<svg width="60" height="60" viewBox="0 0 60 60" fill="none" xmlns="http://www.w3.org/2000/svg">
<path fill-rule="evenodd" clip-rule="evenodd" d="M56.0939 5.82684V11.7384C56.0939 11.987 55.9951 12.2255 55.8193 12.4013C55.6435 12.5771 55.405 12.6759 55.1564 12.6759C54.9078 12.6759 54.6693 12.5771 54.4935 12.4013C54.3177 12.2255 54.2189 11.987 54.2189 11.7384V5.83048L54.0367 6.14606C53.9114 6.35874 53.7071 6.51325 53.4683 6.57592C53.2296 6.63859 52.9757 6.60433 52.7621 6.48061C52.5485 6.35689 52.3925 6.15375 52.328 5.91546C52.2636 5.67718 52.296 5.42308 52.4181 5.20856L54.3471 1.86743C54.4318 1.72112 54.5547 1.60052 54.7025 1.51845C54.8503 1.43638 55.0176 1.39592 55.1866 1.40136C55.3556 1.40681 55.5199 1.45796 55.6621 1.54938C55.8044 1.64079 55.9192 1.76906 55.9943 1.92052L57.8948 5.21231C58.0148 5.42676 58.0454 5.67986 57.9799 5.91671C57.9145 6.15355 57.7583 6.35504 57.5452 6.47746C57.3322 6.59988 57.0794 6.63336 56.8419 6.57064C56.6043 6.50792 56.401 6.35406 56.2761 6.14243L56.0939 5.82684Z" fill="#F9C74F"/>
<path fill-rule="evenodd" clip-rule="evenodd" d="M6.41391 43.8165L16.6117 37.9084C18.5256 36.7996 20.4717 36.0134 22.5754 36.6957C24.9208 37.4563 28.7506 39.0895 32.6564 39.7941C34.1061 40.2641 35.01 41.7157 34.6156 43.1876C34.2211 44.6597 32.9772 45.4187 31.222 45.1473L32.5874 45.3659C34.152 45.6161 35.5888 45.4018 36.9581 44.6045L46.7627 38.8938C54.3841 34.4551 55.5035 41.2838 52.9696 42.8439L35.1767 53.8001C33.5402 54.8075 31.7495 55.0426 29.8931 54.545L16.9873 51.0867L12.2078 53.8461C11.2888 54.3766 10.1066 54.0599 9.57598 53.141L5.71114 46.4468C5.1811 45.5288 5.49657 44.3479 6.41391 43.8165Z" fill="#F6DCCD"/>
<path fill-rule="evenodd" clip-rule="evenodd" d="M34.3829 43.7981C33.838 44.8631 32.715 45.378 31.222 45.1472C29.108 44.5881 26.9964 44.015 24.8841 43.449C24.6152 43.3737 24.3869 43.1954 24.2487 42.9528C24.1105 42.7102 24.0735 42.4229 24.1458 42.1532C24.2181 41.8835 24.3937 41.6532 24.6347 41.5122C24.8757 41.3712 25.1626 41.3309 25.4331 41.4001L34.3829 43.7981ZM6.41391 43.8165L16.6117 37.9084C18.5256 36.7996 20.4717 36.0134 22.5754 36.6957C23.8302 37.1026 25.51 37.7593 27.3989 38.3899L7.64427 49.7952L5.71114 46.4469C5.1811 45.5287 5.49657 44.348 6.41391 43.8165Z" fill="#F1CBBC"/>
<path fill-rule="evenodd" clip-rule="evenodd" d="M7.43063 40.5986L15.5183 54.8889C15.9094 55.5799 15.664 56.4652 14.9731 56.8563L12.2221 58.4132C11.5311 58.8043 10.6458 58.5589 10.2547 57.868L2.16715 43.5775C1.7761 42.8866 2.02149 42.0012 2.71243 41.6102L5.4634 40.0534C6.15434 39.6623 7.03969 39.9077 7.43063 40.5986Z" fill="#515151"/>
<path fill-rule="evenodd" clip-rule="evenodd" d="M11.6843 50.4171L13.1157 52.9463L14.5313 55.4476C14.9215 56.1371 14.678 57.0201 13.9902 57.4125L14.9729 56.8563C15.6639 56.4652 15.9093 55.58 15.5182 54.889L14.0979 52.3794L11.2459 47.3401L8.39075 42.2953L7.43063 40.5988C7.09196 40.0002 6.38227 39.7361 5.74934 39.9304L7.41165 42.8676L10.2636 47.9069L11.684 50.4166L11.6843 50.4171Z" fill="#B1B1B5"/>
<path fill-rule="evenodd" clip-rule="evenodd" d="M5.58188 42.7342C5.32414 42.7719 5.09193 42.9105 4.93632 43.1194C4.78071 43.3283 4.71443 43.5904 4.75208 43.8482C4.78019 44.0404 4.86467 44.2199 4.99482 44.3641C5.12497 44.5083 5.29496 44.6107 5.48328 44.6582C5.67161 44.7058 5.86982 44.6965 6.05284 44.6314C6.23586 44.5664 6.39549 44.4485 6.51153 44.2927C6.62756 44.137 6.6948 43.9503 6.70474 43.7563C6.71468 43.5623 6.66688 43.3697 6.56737 43.2029C6.46787 43.0361 6.32113 42.9025 6.14571 42.8191C5.9703 42.7357 5.77408 42.7061 5.58188 42.7342Z" fill="#685E68"/>
<path fill-rule="evenodd" clip-rule="evenodd" d="M44.9863 23.4158L38.3354 26.1137L43.5743 37.3665C43.5933 37.4087 43.6237 37.4447 43.6622 37.4705C43.7006 37.4962 43.7455 37.5107 43.7918 37.5121C43.838 37.5148 43.884 37.5045 43.9246 37.4824C43.9652 37.4602 43.9988 37.4271 44.0215 37.3867L45.9734 34.0278L49.8004 34.6965C49.8954 34.713 49.9855 34.678 50.0442 34.6013C50.1029 34.5247 50.1135 34.4286 50.0727 34.3412L44.9863 23.4158Z" fill="#FE646F"/>
<path fill-rule="evenodd" clip-rule="evenodd" d="M44.9863 23.4158L44.6406 23.556L49.6144 34.2392C49.6345 34.2809 49.6424 34.3274 49.6374 34.3734C49.6324 34.4194 49.6145 34.463 49.5859 34.4994C49.5582 34.5364 49.5207 34.565 49.4776 34.5818C49.4345 34.5986 49.3875 34.603 49.342 34.5944L45.515 33.9257L43.5632 37.2847C43.5584 37.2929 43.5532 37.3009 43.5476 37.3086L43.5744 37.3662C43.5934 37.4085 43.6238 37.4445 43.6623 37.4703C43.7007 37.496 43.7457 37.5104 43.7919 37.5119C43.8381 37.5146 43.8841 37.5043 43.9247 37.4821C43.9653 37.46 43.9989 37.4268 44.0216 37.3865L45.9735 34.0276L49.8005 34.6962C49.8955 34.7128 49.9856 34.6777 50.0443 34.6011C50.103 34.5244 50.1136 34.4283 50.0728 34.3409L44.9863 23.4158Z" fill="#FD4755"/>
<path fill-rule="evenodd" clip-rule="evenodd" d="M31.4897 23.4158L38.1406 26.1137L32.9017 37.3665C32.8827 37.4087 32.8523 37.4447 32.8138 37.4705C32.7754 37.4962 32.7304 37.5107 32.6842 37.5121C32.638 37.5148 32.592 37.5045 32.5514 37.4824C32.5108 37.4602 32.4772 37.4271 32.4545 37.3867L30.5026 34.0278L26.6756 34.6965C26.5806 34.713 26.4905 34.678 26.4318 34.6013C26.3731 34.5247 26.3625 34.4286 26.4033 34.3412L31.4897 23.4158Z" fill="#FE646F"/>
<path fill-rule="evenodd" clip-rule="evenodd" d="M37.8545 25.9976L38.1407 26.1136L32.9018 37.3664C32.8828 37.4086 32.8524 37.4446 32.8139 37.4704C32.7755 37.4961 32.7306 37.5106 32.6843 37.5121C32.6381 37.5148 32.5921 37.5044 32.5515 37.4823C32.5109 37.4601 32.4773 37.427 32.4546 37.3867L32.2786 37.0837C32.3027 37.1182 32.3353 37.1458 32.3732 37.1641C32.411 37.1824 32.4529 37.1907 32.4949 37.1883C32.5412 37.1868 32.5861 37.1724 32.6246 37.1466C32.663 37.1209 32.6935 37.0848 32.7124 37.0426L37.8545 25.9976ZM30.5014 34.028L26.6756 34.6964C26.6301 34.7049 26.5832 34.7006 26.5401 34.6837C26.497 34.6669 26.4594 34.6383 26.4318 34.6012C26.4065 34.5693 26.3896 34.5317 26.3825 34.4916C26.3754 34.4516 26.3784 34.4104 26.3911 34.3718C26.4214 34.3779 26.4536 34.3782 26.4861 34.3726L30.3131 33.7039L30.5014 34.028Z" fill="#FD4755"/>
<path fill-rule="evenodd" clip-rule="evenodd" d="M39.9371 4.83331L41.6455 6.11206C42.1127 6.46175 42.6045 6.64081 43.1872 6.67315L45.3178 6.79163C46.5936 6.86253 47.6297 7.73206 47.9211 8.97612L48.4078 11.0537C48.5409 11.622 48.8025 12.0751 49.2281 12.4745L50.784 13.9349C51.7157 14.8094 51.9505 16.1413 51.3742 17.2817L50.4115 19.1861C50.1482 19.7069 50.0573 20.2223 50.1266 20.8017L50.3798 22.9206C50.5315 24.1893 49.8552 25.3607 48.6806 25.8637L46.719 26.7038C46.1825 26.9336 45.7816 27.2699 45.4622 27.7583L44.2942 29.5443C43.5948 30.6136 42.3238 31.0762 41.1007 30.7066L39.058 30.0892C38.4994 29.9205 37.976 29.9205 37.4174 30.0892L35.3747 30.7066C34.1516 31.0762 32.8806 30.6136 32.1813 29.5443L31.0133 27.7583C30.694 27.2699 30.293 26.9336 29.7565 26.7038L27.7949 25.8637C26.6203 25.3607 25.944 24.1893 26.0957 22.9206L26.3489 20.8017C26.4182 20.2223 26.3273 19.7069 26.064 19.1861L25.1013 17.2817C24.5249 16.1413 24.7597 14.8092 25.6914 13.9349L27.2474 12.4745C27.6729 12.0751 27.9346 11.6219 28.0677 11.0537L28.5544 8.97612C28.8458 7.73206 29.882 6.86265 31.1577 6.79163L33.2882 6.67315C33.8709 6.64069 34.3627 6.46175 34.8299 6.11206L36.5382 4.83331C37.5616 4.06761 38.9142 4.06761 39.9371 4.83331Z" fill="#F9C74F"/>
<path fill-rule="evenodd" clip-rule="evenodd" d="M39.9371 4.83341L41.6455 6.11216C42.1127 6.46185 42.6045 6.64091 43.1872 6.67325L45.3178 6.79173C46.5936 6.86263 47.6297 7.73216 47.9211 8.97622L48.4078 11.0538C48.5409 11.6221 48.8025 12.0752 49.2281 12.4746L50.784 13.935C51.7157 14.8095 51.9505 16.1414 51.3742 17.2818L50.4115 19.1862C50.1482 19.707 50.0573 20.2224 50.1266 20.8018L50.3798 22.9207C50.5315 24.1894 49.8552 25.3608 48.6806 25.8638L46.719 26.7039C46.1825 26.9337 45.7816 27.27 45.4622 27.7584L44.2942 29.5444C43.6428 30.5402 42.4957 31.0098 41.3532 30.771C42.0613 30.6198 42.6974 30.1942 43.1223 29.5444L44.2903 27.7584C44.6098 27.27 45.0107 26.9336 45.5471 26.7039L47.5087 25.8638C48.6833 25.3608 49.3596 24.1894 49.208 22.9207L48.9547 20.8018C48.8855 20.2224 48.9764 19.707 49.2396 19.1862L50.2023 17.2818C50.7787 16.1414 50.5438 14.8093 49.6121 13.935L48.0562 12.4747C47.6306 12.0754 47.3691 11.6221 47.2359 11.054L46.7493 8.97634C46.4578 7.73228 45.4216 6.86286 44.1459 6.79185L42.0153 6.67337C41.4326 6.64091 40.9409 6.46196 40.4736 6.11228L38.7653 4.83353C38.4228 4.57724 38.0436 4.40696 37.6521 4.32212C38.4302 4.1536 39.2566 4.32399 39.9371 4.83341ZM37.652 30.0281C37.1795 29.924 36.7256 29.9445 36.2457 30.0894L34.203 30.7068C34.1199 30.7319 34.0357 30.7533 33.9506 30.771C34.4079 30.8686 34.895 30.8517 35.375 30.7068L37.4177 30.0894C37.495 30.066 37.5731 30.0455 37.652 30.0281Z" fill="#F3722C"/>
<path d="M37.8647 26.9529C42.5975 26.9529 46.4343 23.1161 46.4343 18.3832C46.4343 13.6503 42.5975 9.81348 37.8647 9.81348C33.1318 9.81348 29.2951 13.6503 29.2951 18.3832C29.2951 23.1161 33.1318 26.9529 37.8647 26.9529Z" fill="#ECEFF1"/>
<path fill-rule="evenodd" clip-rule="evenodd" d="M38.2379 8.97607C38.4349 8.97607 38.6303 8.98334 38.8239 8.99646C34.3644 9.29764 30.8402 13.0099 30.8402 17.5458C30.8402 22.0816 34.3644 25.7938 38.8239 26.0951C38.6288 26.1084 38.4334 26.1152 38.2379 26.1153C33.5051 26.1153 29.6684 22.2786 29.6684 17.5458C29.6684 12.8128 33.5051 8.97607 38.2379 8.97607Z" fill="#D1D1D6"/>
<path fill-rule="evenodd" clip-rule="evenodd" d="M38.5725 13.167L39.47 15.9477C39.4923 16.019 39.5369 16.0812 39.5973 16.1251C39.6577 16.1689 39.7307 16.1922 39.8053 16.1912L42.7274 16.1856C42.8825 16.1853 43.0145 16.281 43.0624 16.4285C43.1104 16.5761 43.0599 16.731 42.9342 16.8219L40.5669 18.5349C40.506 18.578 40.4607 18.6397 40.4376 18.7107C40.4145 18.7817 40.415 18.8583 40.439 18.929L41.3473 21.7062C41.3712 21.7768 41.3716 21.8533 41.3487 21.9242C41.3257 21.9951 41.2805 22.0567 41.2198 22.1C41.1599 22.1444 41.0873 22.1683 41.0128 22.1682C40.9383 22.1682 40.8658 22.1441 40.806 22.0996L38.4454 20.3775C38.3855 20.3329 38.3128 20.3088 38.2382 20.3088C38.1635 20.3088 38.0908 20.3329 38.031 20.3775L35.6704 22.0996C35.5451 22.191 35.3821 22.1911 35.2566 22.1C35.1311 22.0088 35.0809 21.8537 35.1291 21.7063L36.0374 18.9291C36.0613 18.8584 36.0618 18.7818 36.0387 18.7108C36.0157 18.6398 35.9703 18.5782 35.9094 18.535L33.5421 16.8221C33.4164 16.7311 33.366 16.5762 33.4139 16.4287C33.4618 16.2811 33.5938 16.1854 33.749 16.1857L36.671 16.1914C36.7457 16.1922 36.8186 16.169 36.879 16.1252C36.9394 16.0813 36.9841 16.0191 37.0063 15.9478L37.904 13.1671C37.9516 13.0194 38.0834 12.9236 38.2385 12.9236C38.3937 12.9236 38.5248 13.0193 38.5725 13.167Z" fill="#F3722C"/>
<path fill-rule="evenodd" clip-rule="evenodd" d="M38.5725 13.167L39.47 15.9477C39.4909 16.0147 39.5317 16.0738 39.5869 16.1172C39.6421 16.1605 39.7091 16.1861 39.7792 16.1904L39.3168 16.1914C39.2421 16.1923 39.1692 16.1691 39.1088 16.1252C39.0484 16.0813 39.0037 16.0191 38.9815 15.9479L38.0838 13.1671C38.0662 13.1117 38.0352 13.0615 37.9936 13.0209C38.0592 12.9578 38.1469 12.9228 38.2379 12.9236C38.3125 12.9228 38.3853 12.946 38.4456 12.9899C38.5058 13.0337 38.5504 13.0958 38.5725 13.167ZM42.265 16.1866L42.7274 16.1856C42.8825 16.1853 43.0145 16.281 43.0624 16.4286C43.1104 16.5761 43.0599 16.731 42.9342 16.822L40.5669 18.5349C40.506 18.5781 40.4607 18.6397 40.4376 18.7107C40.4145 18.7817 40.415 18.8583 40.439 18.929L41.3473 21.7062C41.3712 21.7768 41.3716 21.8533 41.3487 21.9242C41.3257 21.9951 41.2805 22.0568 41.2198 22.1C41.1599 22.1444 41.0874 22.1683 41.0128 22.1683C40.9383 22.1682 40.8658 22.1441 40.806 22.0996L40.7665 22.0709C40.8154 22.0255 40.8501 21.9669 40.8664 21.9022C40.8828 21.8376 40.8801 21.7695 40.8587 21.7063L39.9504 18.9291C39.9265 18.8584 39.926 18.7819 39.9491 18.7109C39.9721 18.6399 40.0175 18.5782 40.0784 18.535L42.4457 16.8221C42.5065 16.779 42.5518 16.7175 42.5749 16.6466C42.598 16.5758 42.5977 16.4993 42.574 16.4287C42.553 16.3618 42.5122 16.3029 42.4571 16.2596C42.4019 16.2164 42.3349 16.1909 42.265 16.1866ZM37.9937 20.4046L35.6701 22.0996C35.6103 22.1441 35.5378 22.1682 35.4633 22.1683C35.3888 22.1683 35.3162 22.1444 35.2563 22.1C35.244 22.091 35.2322 22.0812 35.2211 22.0708L37.5423 20.3775C37.6022 20.3329 37.6748 20.3088 37.7495 20.3088C37.8242 20.3088 37.8968 20.3329 37.9567 20.3775L37.9937 20.4046ZM33.7225 16.1866C33.731 16.186 33.7398 16.1856 33.7486 16.1856L36.2083 16.1903C36.1996 16.1909 36.1908 16.1912 36.1821 16.1913L33.7225 16.1866Z" fill="#F9C74F"/>
</svg>
