<svg width="60" height="60" viewBox="0 0 60 60" fill="none" xmlns="http://www.w3.org/2000/svg">
<g clip-path="url(#clip0_114_282)">
<path d="M34.4289 7.5H32.4609C32.3055 7.5 32.1565 7.43827 32.0466 7.32838C31.9367 7.2185 31.875 7.06946 31.875 6.91406V0.301758C31.875 0.221727 31.8432 0.144973 31.7866 0.0883828C31.73 0.0317923 31.6533 2.27569e-08 31.5732 2.27569e-08H28.4269C28.3872 -1.53704e-05 28.348 0.00777847 28.3114 0.0229363C28.2747 0.0380942 28.2415 0.0603191 28.2134 0.0883414C28.1854 0.116364 28.1632 0.149634 28.148 0.186253C28.1328 0.222872 28.125 0.262121 28.125 0.301758V6.91406C28.125 7.06946 28.0633 7.2185 27.9534 7.32838C27.8435 7.43827 27.6945 7.5 27.5391 7.5H25.5711C25.1753 7.5 24.9409 7.94297 25.1634 8.27027L29.5922 14.7841C29.7879 15.072 30.212 15.072 30.4076 14.7841L34.8365 8.27016C35.0591 7.94297 34.8246 7.5 34.4289 7.5Z" fill="#4FC6F9"/>
<path d="M49.0416 17.2219L47.6501 15.8304C47.5402 15.7205 47.4785 15.5715 47.4785 15.4161C47.4785 15.2607 47.5402 15.1116 47.6501 15.0017L52.3256 10.3262C52.3537 10.2982 52.3759 10.2649 52.3911 10.2283C52.4062 10.1917 52.414 10.1524 52.414 10.1128C52.414 10.0732 52.4062 10.0339 52.3911 9.9973C52.3759 9.96068 52.3537 9.92741 52.3256 9.89939L50.1008 7.67459C50.0728 7.64656 50.0395 7.62433 50.0029 7.60916C49.9663 7.59399 49.9271 7.58618 49.8874 7.58618C49.8478 7.58618 49.8085 7.59399 49.7719 7.60916C49.7353 7.62433 49.7021 7.64656 49.674 7.67459L44.9985 12.3501C44.8886 12.46 44.7396 12.5217 44.5842 12.5217C44.4288 12.5217 44.2797 12.46 44.1698 12.3501L42.7784 10.9587C42.4985 10.6788 42.0195 10.8261 41.9454 11.2149L40.4709 18.9526C40.4058 19.2944 40.7057 19.5943 41.0475 19.5292L48.7852 18.0547C49.174 17.9806 49.3214 17.5017 49.0416 17.2219Z" fill="#90BE6D"/>
<path d="M52.5 34.4289V32.4609C52.5 32.3055 52.5617 32.1565 52.6716 32.0466C52.7815 31.9367 52.9305 31.875 53.0859 31.875H59.6982C59.7783 31.875 59.855 31.8432 59.9116 31.7866C59.9682 31.73 60 31.6533 60 31.5732V28.4269C60 28.3468 59.9682 28.2701 59.9116 28.2135C59.855 28.1569 59.7783 28.1251 59.6982 28.1251H53.0859C52.9305 28.1251 52.7815 28.0634 52.6716 27.9535C52.5617 27.8436 52.5 27.6946 52.5 27.5392V25.5712C52.5 25.1754 52.057 24.941 51.7297 25.1636L45.2157 29.5923C44.9279 29.788 44.9279 30.2121 45.2157 30.4077L51.7297 34.8366C52.057 35.0591 52.5 34.8246 52.5 34.4289Z" fill="#4FC6F9"/>
<path d="M42.7782 49.0415L44.1697 47.65C44.2796 47.5401 44.4286 47.4784 44.584 47.4784C44.7394 47.4784 44.8885 47.5401 44.9984 47.65L49.6739 52.3256C49.7019 52.3536 49.7352 52.3758 49.7718 52.391C49.8084 52.4062 49.8477 52.414 49.8873 52.414C49.9269 52.414 49.9662 52.4062 50.0028 52.391C50.0394 52.3758 50.0727 52.3536 50.1007 52.3256L52.3255 50.1008C52.3535 50.0727 52.3758 50.0395 52.3909 50.0029C52.4061 49.9662 52.4139 49.927 52.4139 49.8874C52.4139 49.8477 52.4061 49.8085 52.3909 49.7719C52.3758 49.7353 52.3535 49.702 52.3255 49.674L47.65 44.9984C47.5401 44.8885 47.4784 44.7395 47.4784 44.5841C47.4784 44.4287 47.5401 44.2797 47.65 44.1698L49.0415 42.7783C49.3213 42.4985 49.174 42.0194 48.7852 41.9453L41.0475 40.4709C40.7057 40.4057 40.4058 40.7056 40.4709 41.0474L41.9454 48.7851C42.0195 49.1739 42.4984 49.3214 42.7782 49.0415Z" fill="#90BE6D"/>
<path d="M25.5711 52.5001H27.5391C27.6945 52.5001 27.8435 52.5619 27.9534 52.6717C28.0633 52.7816 28.125 52.9307 28.125 53.0861V59.6984C28.125 59.7784 28.1568 59.8551 28.2134 59.9117C28.27 59.9683 28.3467 60.0001 28.4268 60.0001H31.5731C31.6532 60.0001 31.7299 59.9683 31.7865 59.9117C31.8431 59.8551 31.8749 59.7784 31.8749 59.6984V53.0861C31.8749 52.9307 31.9366 52.7816 32.0465 52.6717C32.1564 52.5619 32.3054 52.5001 32.4608 52.5001H34.4288C34.8246 52.5001 35.059 52.0571 34.8364 51.7298L30.4076 45.2159C30.2119 44.928 29.7878 44.928 29.5922 45.2159L25.1634 51.7298C24.9409 52.0571 25.1754 52.5001 25.5711 52.5001Z" fill="#4FC6F9"/>
<path d="M10.9584 42.7782L12.3499 44.1697C12.4598 44.2796 12.5215 44.4286 12.5215 44.584C12.5215 44.7394 12.4598 44.8884 12.3499 44.9983L7.67437 49.6739C7.64635 49.7019 7.62411 49.7351 7.60894 49.7718C7.59378 49.8084 7.58597 49.8476 7.58597 49.8872C7.58597 49.9269 7.59378 49.9661 7.60894 50.0027C7.62411 50.0394 7.64635 50.0726 7.67437 50.1006L9.89918 52.3254C9.9272 52.3535 9.96047 52.3757 9.99708 52.3909C10.0337 52.4061 10.0729 52.4139 10.1126 52.4139C10.1522 52.4139 10.1915 52.4061 10.2281 52.3909C10.2647 52.3757 10.298 52.3535 10.326 52.3254L15.0015 47.6499C15.1114 47.54 15.2604 47.4783 15.4158 47.4783C15.5712 47.4783 15.7203 47.54 15.8302 47.6499L17.2216 49.0414C17.5015 49.3212 17.9805 49.1739 18.0546 48.7851L19.5291 41.0474C19.5942 40.7056 19.2943 40.4057 18.9525 40.4709L11.2148 41.9452C10.826 42.0194 10.6786 42.4983 10.9584 42.7782Z" fill="#90BE6D"/>
<path d="M7.5 25.5712V27.5391C7.5 27.6945 7.43827 27.8435 7.32838 27.9534C7.2185 28.0633 7.06946 28.125 6.91406 28.125H0.301758C0.221727 28.125 0.144973 28.1568 0.0883828 28.2134C0.0317923 28.27 2.27569e-08 28.3468 2.27569e-08 28.4268V31.5732C-1.53704e-05 31.6128 0.00777847 31.6521 0.0229363 31.6887C0.0380942 31.7253 0.0603191 31.7586 0.0883414 31.7866C0.116364 31.8147 0.149634 31.8369 0.186253 31.8521C0.222872 31.8672 0.262121 31.875 0.301758 31.875H6.91406C7.06946 31.875 7.2185 31.9368 7.32838 32.0467C7.43827 32.1566 7.5 32.3056 7.5 32.461V34.4289C7.5 34.8248 7.94297 35.0592 8.27027 34.8366L14.7843 30.4077C15.0721 30.212 15.0721 29.7879 14.7843 29.5924L8.27039 25.1636C7.94297 24.9409 7.5 25.1754 7.5 25.5712Z" fill="#4FC6F9"/>
<path d="M17.2218 10.9584L15.8303 12.3499C15.7204 12.4598 15.5714 12.5215 15.416 12.5215C15.2606 12.5215 15.1115 12.4598 15.0016 12.3499L10.326 7.67434C10.298 7.64632 10.2647 7.62408 10.2281 7.60891C10.1915 7.59375 10.1522 7.58594 10.1126 7.58594C10.0729 7.58594 10.0337 7.59375 9.99708 7.60891C9.96047 7.62408 9.9272 7.64632 9.89918 7.67434L7.67437 9.89915C7.64635 9.92717 7.62411 9.96044 7.60894 9.99705C7.59378 10.0337 7.58597 10.0729 7.58597 10.1125C7.58597 10.1522 7.59378 10.1914 7.60894 10.228C7.62411 10.2647 7.64635 10.2979 7.67437 10.3259L12.3499 15.0015C12.4598 15.1114 12.5215 15.2604 12.5215 15.4158C12.5215 15.5712 12.4598 15.7202 12.3499 15.8301L10.9584 17.2216C10.6786 17.5015 10.8259 17.9805 11.2147 18.0546L18.9524 19.529C19.2942 19.5942 19.5941 19.2943 19.5289 18.9525L18.0547 11.2148C17.9805 10.826 17.5016 10.6786 17.2218 10.9584Z" fill="#90BE6D"/>
<path d="M45 30C45 34.4425 43.0688 38.4339 40.0001 41.1805C37.3463 43.5558 22.6538 43.5558 20 41.1805C16.9313 38.4339 15 34.4425 15 30C15 21.7158 21.7158 15 30 15C38.2842 15 45 21.7158 45 30Z" fill="#F9C74F"/>
<path d="M34.1777 15.5896C37.8172 18.3265 40.1711 22.6812 40.1711 27.5856C40.1711 35.8698 33.4553 42.5856 25.1711 42.5856C23.7212 42.5856 22.3195 42.3798 20.9933 41.996C23.5015 43.8822 27.1168 43.9115 30.4968 43.9115C34.3385 43.9115 37.3462 43.5557 40.0001 41.1805C43.0687 38.4339 45 34.4425 45 30C45 23.1655 40.4292 17.3987 34.1777 15.5896Z" fill="#F3722C"/>
<path d="M40 39.8469C40 37.5152 38.1097 35.625 35.7781 35.625H24.222C21.8903 35.625 20 37.5152 20 39.8469V41.1804C22.6538 43.5557 26.1582 45 30 45C33.8418 45 37.3463 43.5557 40 41.1805V39.8469Z" fill="white"/>
<path d="M30 45.0001C33.8418 45.0001 37.3463 43.5557 40 41.1806V39.8471C40 38.1574 39.0074 36.6997 37.5735 36.0249C34.8734 39.9854 30.3259 42.5856 25.1711 42.5856C23.7213 42.5856 22.3195 42.38 20.9934 41.9962C23.5015 43.8822 26.6202 45.0001 30 45.0001Z" fill="white"/>
<path d="M29.9919 18.75C27.1809 18.75 24.9846 21.177 25.2643 23.974L25.6627 27.9571C25.8851 30.1813 27.7567 31.875 29.9919 31.875C32.2272 31.875 34.0988 30.1813 34.3212 27.9571L34.7195 23.974C34.9992 21.177 32.8029 18.75 29.9919 18.75Z" fill="white"/>
<path d="M24.3796 40.3401C24.1394 40.3401 23.9092 40.4355 23.7394 40.6053C23.5696 40.7751 23.4742 41.0054 23.4742 41.2455V43.5098C24.0611 43.7938 24.6661 44.0391 25.2851 44.244V41.2455C25.285 41.0053 25.1896 40.7751 25.0198 40.6053C24.85 40.4355 24.6197 40.3401 24.3796 40.3401ZM36.5259 43.5099V41.2456C36.5259 41.0055 36.4306 40.7752 36.2608 40.6054C36.091 40.4356 35.8607 40.3402 35.6205 40.3402C35.3804 40.3402 35.1501 40.4356 34.9803 40.6054C34.8105 40.7752 34.7152 41.0055 34.7152 41.2456V44.2441C35.3341 44.0391 35.939 43.7939 36.5259 43.5099Z" fill="#515151"/>
<path d="M36.5259 43.5098V41.2455C36.5259 41.0054 36.4305 40.7751 36.2608 40.6053C36.091 40.4355 35.8607 40.3401 35.6205 40.3401C35.3804 40.3401 35.1501 40.4355 34.9803 40.6053C34.8105 40.7751 34.7152 41.0054 34.7152 41.2455V44.244C35.3341 44.039 35.939 43.7937 36.5259 43.5098ZM23.4741 43.5097C24.061 43.7937 24.6659 44.039 25.285 44.2438V42.5851C24.68 42.5897 24.0753 42.5582 23.4742 42.4906V43.5097H23.4741Z" fill="#201612"/>
</g>
<defs>
<clipPath id="clip0_114_282">
<rect width="60" height="60" fill="white"/>
</clipPath>
</defs>
</svg>
