<svg width="60" height="60" viewBox="0 0 60 60" fill="none" xmlns="http://www.w3.org/2000/svg">
<g clip-path="url(#clip0_116_610)">
<path d="M35.7997 17.2504L34.2002 16.0501L39.6 9.25037C40.3997 8.35 40.6 7.05012 40.1 5.95012C39.4999 4.25037 37.6 3.45012 35.8997 4.05012L35.2997 4.25037L34.6 2.34987L35.2 2.15012C37.8997 1.05012 40.9999 2.45 41.9999 5.15012C42.7001 6.95 42.3999 8.95 41.2001 10.45L35.7997 17.2504ZM18.9 23.6502L11.1 22.7502C8.09999 22.4501 5.89999 19.6502 6.20024 16.6502C6.39987 14.5502 7.79974 12.85 9.70024 12.0502L10.6001 11.6502L11.2997 13.5502L10.3999 13.9501C8.60012 14.6502 7.70024 16.7504 8.39987 18.5501C8.89987 19.7504 9.99999 20.6502 11.2999 20.7504L19.1001 21.6504L18.9 23.6502Z" fill="#F3722C"/>
<path d="M26.4 25.0502L22.5 24.6504C18 24.2503 14.1 21.3501 12.4 17.0503L9.79962 10.4501C9.39975 9.4501 9.89975 8.25035 10.8997 7.84997H11L32.1 0.250471C33.1 -0.149905 34.2997 0.45022 34.7002 1.45022L36.8999 8.05022C38.2003 12.0502 37.3999 16.4502 34.6001 19.6503L31.8999 22.7503L42.6001 50.7504H46.6001C47.3999 50.7504 48.2001 51.2504 48.3999 52.0504L49 53.5504L34.2998 59.35L33.7002 57.85C33.3999 57.0501 33.6001 56.2504 34.2002 55.6502L37.1001 52.85L26.4 25.0502Z" fill="#F4A422"/>
<path d="M30.7003 18.3499L29.2998 16.9502C33.7003 12.5502 29.2003 5.25042 29.2003 5.15029L30.8999 4.05029C31.1001 4.45017 36.2003 12.8499 30.7003 18.3499Z" fill="#EDC17C"/>
<path d="M48.4 52.1503C48.1 51.3501 47.4 50.8501 46.6 50.8501H42.6L37.1 53.0502L34.2002 55.8501C33.6001 56.4501 33.3999 57.2505 33.7002 58.0502L34.2997 59.5502L49 53.7505L48.4 52.1503Z" fill="#F3722C"/>
<path d="M46.4 39.9502L40.7003 24.6503C40.2998 23.6503 39.2003 23.0503 38.1001 23.4502H38L27 28.2504C26.4 28.5502 26 29.0502 25.7998 29.6504L25 33.6504L0 43.6504V57.6504L29 45.6504L36.4 46.5502C36.7998 46.5502 37.2003 46.5502 37.5 46.3501L45.4 42.4501C46.2998 41.9501 46.7003 40.9502 46.4 39.9502Z" fill="#EFCCBF"/>
<path d="M25 33.6504L15 37.6504L19 49.7504L29 45.6504L25 33.6504Z" fill="#676B7F"/>
<path d="M50 4.65039C50 7.95027 47.2998 10.6504 44 10.6504C47.2998 10.6504 50 13.3501 50 16.6504C50 13.3501 52.7002 10.6504 56 10.6504C52.7002 10.6504 50 7.95027 50 4.65039ZM6 24.6504C6 27.9503 3.29975 30.6504 0 30.6504C3.29975 30.6504 6 33.3501 6 36.6504C6 33.3501 8.70025 30.6504 12 30.6504C8.70025 30.6504 6 27.9503 6 24.6504ZM54 24.6504C54 27.9503 51.2998 30.6504 48 30.6504C51.2998 30.6504 54 33.3501 54 36.6504C54 33.3501 56.7002 30.6504 60 30.6504C56.7002 30.6504 54 27.9503 54 24.6504Z" fill="#F9C74F"/>
<path d="M19 49.7505L0 57.6505V43.6505L15 37.6505L19 49.7505ZM21.1 44.9503L22.9 44.3501L20 35.6504L18.2003 36.3501L21.1 44.9503Z" fill="#515151"/>
<path d="M41.5 26.7505L35.7003 28.7505L36.2998 30.5502L42.2003 28.6504L41.5 26.7505ZM43.4 31.85L37.7003 33.7505L38.2998 35.5502L44.1001 33.6504L43.4 31.85ZM45.2003 36.85L39.7003 38.7505L40.2998 40.5502L45.8999 38.7505L45.2003 36.85Z" fill="#D8B4AD"/>
<path d="M35.7997 17.2504L34.2002 16.0501L39.6 9.25037C40.3997 8.35 40.6 7.05012 40.1 5.95012C39.4999 4.25037 37.6 3.45012 35.8997 4.05012L35.2997 4.25037L34.6 2.34987L35.2 2.15012C37.8997 1.05012 40.9999 2.45 41.9999 5.15012C42.7001 6.95 42.3999 8.95 41.2001 10.45L35.7997 17.2504ZM18.9 23.6502L11.1 22.7502C8.09999 22.4501 5.89999 19.6502 6.20024 16.6502C6.39987 14.5502 7.79974 12.85 9.70024 12.0502L10.6001 11.6502L11.2997 13.5502L10.3999 13.9501C8.60012 14.6502 7.70024 16.7504 8.39987 18.5501C8.89987 19.7504 9.99999 20.6502 11.2999 20.7504L19.1001 21.6504L18.9 23.6502Z" fill="#F3722C"/>
<path d="M26.4 25.0502L22.5 24.6504C18 24.2503 14.1 21.3501 12.4 17.0503L9.79962 10.4501C9.39975 9.4501 9.89975 8.25035 10.8997 7.84997H11L32.1 0.250471C33.1 -0.149905 34.2997 0.45022 34.7002 1.45022L36.8999 8.05022C38.2003 12.0502 37.3999 16.4502 34.6001 19.6503L31.8999 22.7503L42.6001 50.7504H46.6001C47.3999 50.7504 48.2001 51.2504 48.3999 52.0504L49 53.5504L34.2998 59.35L33.7002 57.85C33.3999 57.0501 33.6001 56.2504 34.2002 55.6502L37.1001 52.85L26.4 25.0502Z" fill="#F9C74F"/>
<path d="M30.7003 18.3499L29.2998 16.9502C33.7003 12.5502 29.2003 5.25042 29.2003 5.15029L30.8999 4.05029C31.1001 4.45017 36.2003 12.8499 30.7003 18.3499Z" fill="#EDC17C"/>
<path d="M48.4 52.1503C48.1 51.3501 47.4 50.8501 46.6 50.8501H42.6L37.1 53.0502L34.2002 55.8501C33.6001 56.4501 33.3999 57.2505 33.7002 58.0502L34.2997 59.5502L49 53.7505L48.4 52.1503Z" fill="#F3722C"/>
<path d="M46.4 39.9502L40.7003 24.6503C40.2998 23.6503 39.2003 23.0503 38.1001 23.4502H38L27 28.2504C26.4 28.5502 26 29.0502 25.7998 29.6504L25 33.6504L0 43.6504V57.6504L29 45.6504L36.4 46.5502C36.7998 46.5502 37.2003 46.5502 37.5 46.3501L45.4 42.4501C46.2998 41.9501 46.7003 40.9502 46.4 39.9502Z" fill="#EFCCBF"/>
<path d="M25 33.6504L15 37.6504L19 49.7504L29 45.6504L25 33.6504Z" fill="#676B7F"/>
<path d="M50 4.65039C50 7.95027 47.2998 10.6504 44 10.6504C47.2998 10.6504 50 13.3501 50 16.6504C50 13.3501 52.7002 10.6504 56 10.6504C52.7002 10.6504 50 7.95027 50 4.65039ZM6 24.6504C6 27.9503 3.29975 30.6504 0 30.6504C3.29975 30.6504 6 33.3501 6 36.6504C6 33.3501 8.70025 30.6504 12 30.6504C8.70025 30.6504 6 27.9503 6 24.6504ZM54 24.6504C54 27.9503 51.2998 30.6504 48 30.6504C51.2998 30.6504 54 33.3501 54 36.6504C54 33.3501 56.7002 30.6504 60 30.6504C56.7002 30.6504 54 27.9503 54 24.6504Z" fill="#F9C74F"/>
<path d="M19 49.7505L0 57.6505V43.6505L15 37.6505L19 49.7505ZM21.1 44.9503L22.9 44.3501L20 35.6504L18.2003 36.3501L21.1 44.9503Z" fill="#515151"/>
<path d="M41.5 26.7505L35.7003 28.7505L36.2998 30.5502L42.2003 28.6504L41.5 26.7505ZM43.4 31.85L37.7003 33.7505L38.2998 35.5502L44.1001 33.6504L43.4 31.85ZM45.2003 36.85L39.7003 38.7505L40.2998 40.5502L45.8999 38.7505L45.2003 36.85Z" fill="#D8B4AD"/>
</g>
<defs>
<clipPath id="clip0_116_610">
<rect width="60" height="60" fill="white"/>
</clipPath>
</defs>
</svg>
