<svg width="970" height="958" viewBox="0 0 970 958" fill="none" xmlns="http://www.w3.org/2000/svg">
<mask id="mask0_1829_840" style="mask-type:alpha" maskUnits="userSpaceOnUse" x="0" y="0" width="970" height="958">
<rect width="970" height="958" fill="#D9D9D9"/>
</mask>
<g mask="url(#mask0_1829_840)">
<g opacity="0.75">
<path d="M354.2 482.71C353.93 483.06 353.84 483.52 353.94 483.96L372.27 562.25C372.39 562.78 372.79 563.199 373.31 563.359L450.31 586.51C450.83 586.67 451.39 586.529 451.79 586.159L510.46 531.02C510.85 530.66 511.02 530.1 510.9 529.57L492.57 451.28C492.45 450.75 492.05 450.329 491.53 450.169L414.53 427.019C414.01 426.859 413.45 427 413.06 427.37L354.39 482.51C354.31 482.58 354.25 482.64 354.2 482.71ZM375.02 560.71L357.09 484.13L414.48 430.19L489.8 452.83L507.73 529.409L450.34 583.349L375.02 560.71Z" fill="url(#paint0_linear_1829_840)"/>
<path d="M347.45 488.47C347.16 488.86 347.07 489.38 347.22 489.85L373.91 571.12C374.08 571.64 374.51 572.02 375.04 572.13L458.79 589.52C459.32 589.63 459.87 589.45 460.23 589.04L517.29 525.16C517.65 524.75 517.77 524.19 517.6 523.68L490.91 442.41C490.74 441.89 490.31 441.51 489.78 441.4L406.03 424.01C405.5 423.9 404.95 424.08 404.59 424.49L347.53 488.37C347.5 488.4 347.47 488.43 347.45 488.47ZM376.52 569.34L350.38 489.74L406.28 427.17L488.32 444.2L514.46 523.8L458.56 586.37L376.52 569.34Z" fill="url(#paint1_linear_1829_840)"/>
<path d="M395.38 422.209L340.83 495.199C340.51 495.629 340.44 496.209 340.65 496.699L376.47 580.349C376.68 580.849 377.15 581.199 377.69 581.259L468.06 591.929C468.6 591.989 469.13 591.769 469.45 591.329L524 518.339C524.32 517.909 524.39 517.329 524.18 516.839L488.36 433.189C488.15 432.689 487.68 432.339 487.14 432.279L396.77 421.609C396.24 421.549 395.71 421.769 395.38 422.209ZM343.78 496.309L397.28 424.729L485.91 435.189L521.04 517.229L467.54 588.809L378.91 578.349L343.78 496.309Z" fill="url(#paint2_linear_1829_840)"/>
<path d="M385.48 420.53C385.45 420.57 385.43 420.6 385.41 420.64L334.36 503.05C334.08 503.51 334.06 504.09 334.31 504.57L380.03 589.9C380.29 590.38 380.78 590.68 381.32 590.7L478.08 593.63C478.62 593.65 479.13 593.36 479.41 592.91L530.46 510.5C530.74 510.04 530.76 509.46 530.51 508.98L484.79 423.65C484.53 423.17 484.04 422.87 483.5 422.85L386.74 419.92C386.25 419.91 385.78 420.14 385.48 420.53ZM337.4 503.9L387.53 422.98L482.54 425.85L527.43 509.64L477.31 590.56L382.3 587.69L337.4 503.9Z" fill="url(#paint3_linear_1829_840)"/>
<path d="M374.84 419.67C374.79 419.74 374.74 419.81 374.7 419.9L328.24 511.97C328 512.45 328.03 513.03 328.33 513.48L384.69 599.68C384.99 600.14 385.499 600.4 386.049 600.36L488.87 594.49C489.41 594.46 489.89 594.15 490.14 593.66L536.6 501.59C536.84 501.11 536.81 500.53 536.51 500.08L480.15 413.88C479.85 413.43 479.34 413.16 478.79 413.2L375.97 419.07C375.52 419.08 375.1 419.31 374.84 419.67ZM331.34 512.54L377.01 422.03L478.08 416.26L533.48 501L487.81 591.5L386.74 597.27L331.34 512.54Z" fill="url(#paint4_linear_1829_840)"/>
<path d="M363.48 419.74C363.4 419.84 363.34 419.96 363.29 420.09L322.59 521.97C322.39 522.47 322.47 523.04 322.81 523.47L390.53 609.59C390.87 610.02 391.4 610.23 391.94 610.15L500.36 594.39C500.9 594.31 501.35 593.96 501.55 593.45L542.25 491.57C542.45 491.07 542.37 490.5 542.03 490.07L474.31 403.95C473.97 403.52 473.44 403.31 472.9 403.39L364.48 419.15C364.07 419.21 363.71 419.42 363.48 419.74ZM325.73 522.27L365.78 422.02L472.47 406.52L539.11 491.27L499.06 591.52L392.37 607.02L325.73 522.27Z" fill="url(#paint5_linear_1829_840)"/>
<path d="M351.44 420.87C351.34 421.01 351.26 421.17 351.2 421.34L317.51 533.08C317.35 533.6 317.49 534.16 317.86 534.56L397.62 619.55C397.99 619.95 398.55 620.11 399.07 619.99L512.51 593.24C513.04 593.11 513.46 592.72 513.61 592.2L547.3 480.46C547.46 479.94 547.32 479.38 546.95 478.98L467.19 393.99C466.82 393.59 466.26 393.43 465.74 393.55L352.3 420.3C351.96 420.38 351.65 420.59 351.44 420.87ZM320.68 533.12L353.86 423.05L465.59 396.7L544.15 480.41L510.97 590.48L399.23 616.83L320.68 533.12Z" fill="url(#paint6_linear_1829_840)"/>
<path d="M338.79 423.18C338.66 423.35 338.57 423.56 338.52 423.78L313.18 545.33C313.07 545.86 313.25 546.41 313.65 546.77L406.06 629.45C406.46 629.81 407.03 629.93 407.55 629.76L525.29 590.89C525.8 590.72 526.19 590.29 526.3 589.76L551.64 468.21C551.75 467.68 551.57 467.13 551.17 466.77L458.76 384.09C458.36 383.73 457.79 383.61 457.27 383.78L339.53 422.65C339.23 422.75 338.98 422.94 338.79 423.18ZM316.33 545.09L341.31 425.26L457.39 386.94L548.49 468.45L523.51 588.28L407.43 626.6L316.33 545.09Z" fill="url(#paint7_linear_1829_840)"/>
<path d="M325.6 426.81C325.44 427.02 325.34 427.27 325.31 427.54L309.73 558.7C309.67 559.24 309.89 559.77 310.33 560.09L415.92 639.14C416.35 639.47 416.93 639.53 417.43 639.32L538.61 587.21C539.11 587 539.45 586.53 539.52 586L555.1 454.84C555.16 454.3 554.94 453.77 554.5 453.45L448.91 374.4C448.47 374.07 447.9 374.01 447.4 374.22L326.22 426.33C325.97 426.43 325.76 426.6 325.6 426.81ZM312.85 558.19L328.23 428.77L447.8 377.35L551.99 455.35L536.61 584.77L417.04 636.19L312.85 558.19Z" fill="url(#paint8_linear_1829_840)"/>
<path d="M311.96 431.87C311.78 432.12 311.67 432.41 311.66 432.73L307.31 573.18C307.29 573.72 307.57 574.23 308.03 574.52L427.27 648.51C427.73 648.8 428.31 648.81 428.79 648.56L552.38 582.1C552.86 581.84 553.16 581.35 553.18 580.81L557.53 440.36C557.55 439.82 557.27 439.31 556.81 439.02L437.57 365.03C437.11 364.74 436.53 364.73 436.05 364.98L312.46 431.44C312.26 431.55 312.09 431.7 311.96 431.87ZM310.37 572.4L314.67 433.7L436.72 368.07L554.47 441.13L550.17 579.83L428.12 645.46L310.37 572.4Z" fill="url(#paint9_linear_1829_840)"/>
<path d="M297.97 438.51C297.76 438.79 297.65 439.14 297.67 439.5L306.08 588.75C306.11 589.29 306.43 589.77 306.91 590.02L440.14 657.38C440.62 657.62 441.2 657.59 441.66 657.29L566.48 575.4C566.93 575.11 567.19 574.59 567.16 574.05L558.75 424.8C558.72 424.26 558.4 423.78 557.92 423.53L424.69 356.18C424.21 355.94 423.63 355.97 423.17 356.27L298.35 438.16C298.21 438.24 298.08 438.37 297.97 438.51ZM309.06 587.7L300.75 440.2L424.1 359.27L555.76 425.83L564.07 573.33L440.72 654.26L309.06 587.7Z" fill="url(#paint10_linear_1829_840)"/>
<path d="M283.76 446.829C283.52 447.149 283.42 447.549 283.47 447.949L306.23 605.349C306.31 605.889 306.66 606.339 307.17 606.539L454.61 665.569C455.11 665.769 455.69 665.689 456.11 665.349L580.8 566.989C581.22 566.649 581.44 566.119 581.36 565.579L558.61 408.189C558.53 407.649 558.18 407.199 557.67 406.999L410.23 347.969C409.73 347.769 409.15 347.849 408.73 348.189L284.04 446.549C283.94 446.629 283.84 446.729 283.76 446.829ZM309.1 604.049L286.6 448.389L409.91 351.109L555.72 409.489L578.22 565.149L454.91 662.429L309.1 604.049Z" fill="url(#paint11_linear_1829_840)"/>
<path d="M269.48 456.97C269.21 457.33 269.11 457.78 269.22 458.23L307.92 622.92C308.04 623.45 308.44 623.87 308.96 624.03L470.68 672.92C471.2 673.08 471.76 672.94 472.16 672.57L595.18 556.77C595.57 556.4 595.74 555.85 595.62 555.32L556.92 390.63C556.8 390.1 556.4 389.68 555.88 389.52L394.16 340.63C393.64 340.47 393.08 340.61 392.68 340.98L269.66 456.78C269.59 456.84 269.53 456.9 269.48 456.97ZM310.67 621.37L272.37 458.38L394.12 343.78L554.16 392.16L592.46 555.15L470.71 669.75L310.67 621.37Z" fill="url(#paint12_linear_1829_840)"/>
<path d="M255.28 469.039C254.99 469.429 254.9 469.949 255.05 470.419L311.33 641.369C311.5 641.879 311.93 642.269 312.46 642.379L488.39 679.199C488.92 679.309 489.47 679.129 489.83 678.719L609.47 544.599C609.82 544.199 609.95 543.629 609.78 543.119L553.5 372.169C553.33 371.659 552.9 371.269 552.37 371.159L376.45 334.339C375.92 334.229 375.37 334.409 375.01 334.819L255.37 468.949C255.33 468.979 255.3 469.009 255.28 469.039ZM313.94 639.589L258.2 470.309L376.68 337.489L550.89 373.949L606.63 543.229L488.16 676.049L313.94 639.589Z" fill="url(#paint13_linear_1829_840)"/>
<path d="M355.7 329.91L241.34 483.15C241.02 483.58 240.95 484.16 241.16 484.66L316.66 660.61C316.87 661.11 317.34 661.45 317.87 661.52L507.73 684.22C508.27 684.28 508.8 684.06 509.12 683.62L623.48 530.38C623.8 529.95 623.87 529.37 623.66 528.87L548.16 352.92C547.95 352.42 547.48 352.08 546.95 352.01L357.1 329.3C356.56 329.25 356.03 329.48 355.7 329.91ZM244.3 484.27L357.61 332.43L545.72 354.93L620.53 529.27L507.22 681.11L319.11 658.61L244.3 484.27Z" fill="url(#paint14_linear_1829_840)"/>
<path d="M334.87 326.399C334.84 326.439 334.82 326.47 334.79 326.51L227.81 499.52C227.53 499.98 227.51 500.559 227.76 501.039L324.09 680.51C324.35 680.99 324.84 681.29 325.38 681.31L528.69 687.77C529.23 687.79 529.75 687.489 530.03 687.049L637.01 514.049C637.3 513.589 637.31 513.01 637.06 512.53L540.73 333.059C540.47 332.579 539.98 332.28 539.44 332.26L336.13 325.799C335.64 325.769 335.17 325.999 334.87 326.399ZM230.86 500.359L336.92 328.85L538.48 335.26L633.98 513.179L527.92 684.7L326.36 678.299L230.86 500.359Z" fill="url(#paint15_linear_1829_840)"/>
<path d="M312.47 324.599C312.42 324.669 312.37 324.749 312.33 324.829L214.99 518.099C214.75 518.579 214.78 519.159 215.08 519.609L333.81 700.869C334.11 701.319 334.62 701.579 335.16 701.549L551.22 689.549C551.76 689.519 552.24 689.209 552.49 688.719L649.83 495.449C650.07 494.969 650.04 494.389 649.74 493.939L531.02 312.679C530.72 312.229 530.21 311.969 529.67 311.999L313.61 323.999C313.15 324.019 312.74 324.239 312.47 324.599ZM218.1 518.669L314.65 326.969L528.96 315.059L646.73 494.859L550.18 686.559L335.87 698.469L218.1 518.669Z" fill="url(#paint16_linear_1829_840)"/>
<path d="M288.57 324.77C288.49 324.88 288.43 324.99 288.38 325.12L203.14 538.97C202.94 539.47 203.02 540.04 203.36 540.47L345.99 721.55C346.32 721.98 346.86 722.19 347.4 722.11L575.26 689.36C575.8 689.28 576.25 688.92 576.45 688.42L661.69 474.57C661.89 474.07 661.81 473.5 661.47 473.07L518.84 291.98C518.51 291.55 517.97 291.34 517.43 291.42L289.57 324.17C289.17 324.23 288.81 324.45 288.57 324.77ZM206.28 539.27L290.87 327.05L517 294.55L658.55 474.27L573.96 686.49L347.83 718.99L206.28 539.27Z" fill="url(#paint17_linear_1829_840)"/>
<path d="M263.25 327.17C263.15 327.31 263.06 327.47 263.01 327.64L192.51 562.17C192.36 562.69 192.49 563.25 192.86 563.64L360.799 742.34C361.169 742.73 361.72 742.9 362.25 742.78L600.7 686.94C601.23 686.82 601.65 686.42 601.81 685.9L672.31 451.37C672.46 450.85 672.33 450.29 671.96 449.9L504.02 271.2C503.65 270.81 503.1 270.64 502.57 270.76L264.12 326.6C263.77 326.68 263.46 326.89 263.25 327.17ZM195.67 562.21L265.67 329.35L502.41 273.91L669.16 451.33L599.16 684.19L362.42 739.63L195.67 562.21Z" fill="url(#paint18_linear_1829_840)"/>
<path d="M236.64 332.06C236.51 332.23 236.42 332.44 236.37 332.66L183.4 587.75C183.29 588.28 183.47 588.83 183.87 589.19L378.43 762.99C378.83 763.35 379.4 763.47 379.91 763.3L627.44 682.01C627.95 681.84 628.34 681.41 628.45 680.88L681.43 425.79C681.54 425.26 681.36 424.71 680.96 424.35L486.41 250.55C486.01 250.19 485.44 250.07 484.93 250.24L237.4 331.53C237.09 331.62 236.83 331.81 236.64 332.06ZM186.55 587.51L239.17 334.14L485.03 253.39L678.28 426.03L625.66 679.4L379.8 760.14L186.55 587.51Z" fill="url(#paint19_linear_1829_840)"/>
<path d="M208.9 339.71C208.74 339.92 208.64 340.17 208.61 340.44L176.12 615.69C176.06 616.23 176.28 616.76 176.72 617.08L399.02 783.24C399.45 783.56 400.03 783.63 400.53 783.42L655.32 674.32C655.82 674.1 656.17 673.64 656.23 673.1L688.72 397.85C688.78 397.31 688.55 396.78 688.12 396.46L465.82 230.3C465.39 229.98 464.81 229.91 464.31 230.12L209.52 339.22C209.27 339.33 209.06 339.5 208.9 339.71ZM179.23 615.18L211.51 341.67L464.69 233.26L685.59 398.37L653.31 671.88L400.13 780.28L179.23 615.18Z" fill="url(#paint20_linear_1829_840)"/>
<path d="M180.2 350.38C180.02 350.63 179.91 350.93 179.9 351.24L170.99 645.96C170.97 646.5 171.25 647.01 171.71 647.29L422.71 802.77C423.17 803.06 423.75 803.07 424.23 802.82L684.13 663.58C684.61 663.32 684.91 662.83 684.93 662.29L693.84 367.57C693.86 367.03 693.58 366.52 693.12 366.23L442.12 210.75C441.66 210.46 441.08 210.45 440.6 210.7L180.69 349.94C180.5 350.06 180.33 350.21 180.2 350.38ZM174.05 645.18L182.91 352.21L441.27 213.8L690.78 368.36L681.92 661.33L423.56 799.74L174.05 645.18Z" fill="url(#paint21_linear_1829_840)"/>
<path d="M150.78 364.36C150.57 364.64 150.46 364.99 150.48 365.35L168.36 678.52C168.39 679.06 168.71 679.54 169.19 679.79L449.61 821.29C450.09 821.53 450.67 821.5 451.12 821.21L713.66 649.54C714.11 649.24 714.38 648.73 714.34 648.18L696.46 335.01C696.43 334.47 696.11 333.99 695.63 333.74L415.21 192.24C414.73 192 414.15 192.03 413.7 192.32L151.17 364C151.02 364.1 150.89 364.22 150.78 364.36ZM171.35 677.48L153.57 366.06L414.63 195.35L693.48 336.06L711.26 647.48L450.19 818.19L171.35 677.48Z" fill="url(#paint22_linear_1829_840)"/>
<path d="M120.9 381.9C120.66 382.22 120.56 382.62 120.61 383.03L168.6 713.26C168.68 713.8 169.04 714.25 169.54 714.45L479.84 838.41C480.34 838.61 480.91 838.53 481.34 838.19L743.65 631.92C744.07 631.59 744.29 631.05 744.21 630.51L696.22 300.28C696.14 299.74 695.78 299.29 695.28 299.09L384.98 175.13C384.48 174.93 383.91 175.01 383.48 175.35L121.17 381.62C121.07 381.7 120.98 381.8 120.9 381.9ZM171.48 711.95L123.74 383.46L384.67 178.27L693.35 301.58L741.09 630.07L480.16 835.26L171.48 711.95Z" fill="url(#paint23_linear_1829_840)"/>
<path d="M90.8596 403.26C90.5896 403.62 90.4896 404.07 90.5996 404.52L172.08 750.04C172.2 750.57 172.6 750.99 173.12 751.14L513.46 853.74C513.98 853.9 514.54 853.76 514.94 853.39L773.79 610.47C774.19 610.1 774.35 609.54 774.23 609.02L692.75 263.5C692.63 262.97 692.23 262.55 691.71 262.4L351.37 159.8C350.85 159.64 350.29 159.78 349.9 160.15L91.0296 403.06C90.9696 403.13 90.9096 403.19 90.8596 403.26ZM174.82 748.49L93.7496 404.67L351.34 162.95L690.01 265.05L771.08 608.87L513.49 850.59L174.82 748.49Z" fill="url(#paint24_linear_1829_840)"/>
<path d="M60.9997 428.69C60.6997 429.09 60.6197 429.6 60.7697 430.07L179.16 788.69C179.33 789.2 179.76 789.59 180.29 789.7L550.49 866.88C551.02 866.99 551.57 866.81 551.93 866.41L803.75 584.96C804.11 584.56 804.23 583.99 804.06 583.47L685.68 224.85C685.51 224.33 685.08 223.95 684.55 223.84L314.35 146.66C313.82 146.55 313.27 146.73 312.91 147.13L61.0897 428.58C61.0497 428.62 61.0197 428.65 60.9997 428.69ZM181.76 786.91L63.9297 429.95L314.58 149.81L683.07 226.63L800.9 583.59L550.25 863.73L181.76 786.91Z" fill="url(#paint25_linear_1829_840)"/>
<path d="M31.7097 458.4C31.3897 458.83 31.3197 459.41 31.5297 459.91L190.24 828.99C190.45 829.49 190.92 829.83 191.45 829.9L590.94 877.37C591.48 877.43 592.01 877.2 592.33 876.77L833.12 555.14C833.44 554.71 833.51 554.13 833.3 553.63L674.59 184.55C674.38 184.05 673.91 183.71 673.38 183.64L273.89 136.17C273.35 136.11 272.82 136.33 272.5 136.77L31.7097 458.4ZM192.68 826.99L34.6597 459.52L274.39 139.29L672.14 186.55L830.16 554.03L590.43 874.25L192.68 826.99Z" fill="url(#paint26_linear_1829_840)"/>
<path d="M228.78 129.43C228.75 129.46 228.73 129.5 228.71 129.54L3.35968 492.71C3.06968 493.17 3.05963 493.75 3.30963 494.23L205.73 870.66C205.99 871.14 206.48 871.44 207.02 871.46L634.79 884.72C635.33 884.74 635.83 884.47 636.13 884L861.47 520.83C861.76 520.37 861.77 519.79 861.52 519.31L659.1 142.88C658.84 142.4 658.35 142.1 657.81 142.08L230.04 128.82C229.54 128.81 229.07 129.04 228.78 129.43ZM6.38965 493.56L230.82 131.88L656.84 145.09L858.44 519.98L634.01 881.66L207.99 868.45L6.38965 493.56Z" fill="url(#paint27_linear_1829_840)"/>
<path d="M181.78 125.69C181.73 125.76 181.68 125.83 181.64 125.91L-23.5104 531.69C-23.7604 532.17 -23.7204 532.75 -23.4304 533.21L226 913.38C226.3 913.83 226.81 914.09 227.35 914.06L681.92 888.45C682.46 888.42 682.95 888.1 683.19 887.62L888.34 481.85C888.59 481.37 888.55 480.79 888.26 480.33L638.83 100.16C638.53 99.7099 638.02 99.4499 637.48 99.4799L182.91 125.09C182.45 125.11 182.04 125.34 181.78 125.69ZM-20.4103 532.28L183.95 128.07L636.78 102.56L885.24 481.26L680.88 885.47L228.05 910.98L-20.4103 532.28Z" fill="url(#paint28_linear_1829_840)"/>
<path d="M131.61 126.09C131.53 126.19 131.47 126.31 131.42 126.43L-48.3705 575.49C-48.5705 575.99 -48.4905 576.57 -48.1505 576.99L251.43 956.76C251.77 957.19 252.3 957.4 252.84 957.32L732.22 888.03C732.76 887.95 733.21 887.59 733.41 887.09L913.2 438.05C913.4 437.55 913.32 436.97 912.98 436.55L613.39 56.7799C613.06 56.3499 612.52 56.1399 611.98 56.2199L132.6 125.51C132.21 125.56 131.85 125.77 131.61 126.09ZM-45.2305 575.81L133.91 128.38L611.55 59.3499L910.06 437.73L730.92 885.16L253.28 954.19L-45.2305 575.81Z" fill="url(#paint29_linear_1829_840)"/>
<path d="M78.4895 131.17C78.3895 131.31 78.2995 131.47 78.2495 131.64L-70.6505 624.21C-70.8105 624.73 -70.6805 625.29 -70.3005 625.69L282.41 1000.39C282.78 1000.78 283.33 1000.95 283.86 1000.83L785.47 882.94C786 882.81 786.42 882.42 786.57 881.9L935.48 389.329C935.64 388.809 935.5 388.25 935.13 387.85L582.42 13.1595C582.05 12.7695 581.5 12.5995 580.97 12.7195L79.3596 130.6C79.0096 130.68 78.6995 130.89 78.4895 131.17ZM-67.4904 624.24L80.9095 133.35L580.81 15.8795L932.32 389.299L783.92 880.19L284.01 997.66L-67.4904 624.24Z" fill="url(#paint30_linear_1829_840)"/>
<path d="M22.6698 141.47C22.5398 141.64 22.4498 141.85 22.3998 142.07L-89.7401 677.89C-89.8501 678.42 -89.6701 678.97 -89.2701 679.33L319.26 1043.72C319.66 1044.08 320.23 1044.2 320.74 1044.03L841.42 872.6C841.93 872.43 842.32 872 842.43 871.47L954.57 335.65C954.68 335.12 954.5 334.57 954.1 334.21L545.56 -30.1901C545.16 -30.5501 544.59 -30.6701 544.08 -30.5001L23.4098 140.93C23.1098 141.04 22.8498 141.22 22.6698 141.47ZM-86.5902 677.65L25.1898 143.54L544.19 -27.3401L951.42 335.89L839.64 870L320.63 1040.88L-86.5902 677.65Z" fill="url(#paint31_linear_1829_840)"/>
<path d="M-35.5403 157.56C-35.7003 157.77 -35.8003 158.02 -35.8303 158.29L-104.99 736.54C-105.06 737.08 -104.83 737.61 -104.39 737.94L362.35 1086.24C362.78 1086.56 363.36 1086.63 363.85 1086.42L899.75 856.46C900.25 856.25 900.59 855.78 900.66 855.25L969.82 277C969.89 276.46 969.66 275.93 969.22 275.6L502.48 -72.7002C502.05 -73.0202 501.47 -73.0902 500.97 -72.8802L-34.9304 157.07C-35.1704 157.18 -35.3803 157.35 -35.5403 157.56ZM-101.87 736.03L-32.9203 159.52L501.37 -69.7402L966.7 277.51L897.75 854.02L363.46 1083.28L-101.87 736.03Z" fill="url(#paint32_linear_1829_840)"/>
</g>
</g>
<defs>
<linearGradient id="paint0_linear_1829_840" x1="497.057" y1="507.003" x2="419.247" y2="479.144" gradientUnits="userSpaceOnUse">
<stop stop-color="#F4EFE0"/>
<stop offset="0.260417" stop-color="#F1F4EB"/>
<stop offset="1" stop-color="#E2ECDC"/>
</linearGradient>
<linearGradient id="paint1_linear_1829_840" x1="502.603" y1="507.012" x2="419.02" y2="475.684" gradientUnits="userSpaceOnUse">
<stop stop-color="#F4EFE0"/>
<stop offset="0.260417" stop-color="#F1F4EB"/>
<stop offset="1" stop-color="#E2ECDC"/>
</linearGradient>
<linearGradient id="paint2_linear_1829_840" x1="508.056" y1="507.024" x2="419.049" y2="472.077" gradientUnits="userSpaceOnUse">
<stop stop-color="#F4EFE0"/>
<stop offset="0.260417" stop-color="#F1F4EB"/>
<stop offset="1" stop-color="#E2ECDC"/>
</linearGradient>
<linearGradient id="paint3_linear_1829_840" x1="513.312" y1="507.035" x2="419.369" y2="468.352" gradientUnits="userSpaceOnUse">
<stop stop-color="#F4EFE0"/>
<stop offset="0.260417" stop-color="#F1F4EB"/>
<stop offset="1" stop-color="#E2ECDC"/>
</linearGradient>
<linearGradient id="paint4_linear_1829_840" x1="518.315" y1="507.06" x2="418.152" y2="466.418" gradientUnits="userSpaceOnUse">
<stop stop-color="#F4EFE0"/>
<stop offset="0.260417" stop-color="#F1F4EB"/>
<stop offset="1" stop-color="#E2ECDC"/>
</linearGradient>
<linearGradient id="paint5_linear_1829_840" x1="522.923" y1="507.078" x2="416.019" y2="465.712" gradientUnits="userSpaceOnUse">
<stop stop-color="#F4EFE0"/>
<stop offset="0.260417" stop-color="#F1F4EB"/>
<stop offset="1" stop-color="#E2ECDC"/>
</linearGradient>
<linearGradient id="paint6_linear_1829_840" x1="527.043" y1="507.108" x2="413.948" y2="465.331" gradientUnits="userSpaceOnUse">
<stop stop-color="#F4EFE0"/>
<stop offset="0.260417" stop-color="#F1F4EB"/>
<stop offset="1" stop-color="#E2ECDC"/>
</linearGradient>
<linearGradient id="paint7_linear_1829_840" x1="530.589" y1="507.137" x2="412.003" y2="465.315" gradientUnits="userSpaceOnUse">
<stop stop-color="#F4EFE0"/>
<stop offset="0.260417" stop-color="#F1F4EB"/>
<stop offset="1" stop-color="#E2ECDC"/>
</linearGradient>
<linearGradient id="paint8_linear_1829_840" x1="533.42" y1="507.166" x2="410.203" y2="465.697" gradientUnits="userSpaceOnUse">
<stop stop-color="#F4EFE0"/>
<stop offset="0.260417" stop-color="#F1F4EB"/>
<stop offset="1" stop-color="#E2ECDC"/>
</linearGradient>
<linearGradient id="paint9_linear_1829_840" x1="535.414" y1="507.194" x2="408.585" y2="466.517" gradientUnits="userSpaceOnUse">
<stop stop-color="#F4EFE0"/>
<stop offset="0.260417" stop-color="#F1F4EB"/>
<stop offset="1" stop-color="#E2ECDC"/>
</linearGradient>
<linearGradient id="paint10_linear_1829_840" x1="543.342" y1="507.229" x2="407.108" y2="462.916" gradientUnits="userSpaceOnUse">
<stop stop-color="#F4EFE0"/>
<stop offset="0.260417" stop-color="#F1F4EB"/>
<stop offset="1" stop-color="#E2ECDC"/>
</linearGradient>
<linearGradient id="paint11_linear_1829_840" x1="555.044" y1="507.244" x2="405.867" y2="456.353" gradientUnits="userSpaceOnUse">
<stop stop-color="#F4EFE0"/>
<stop offset="0.260417" stop-color="#F1F4EB"/>
<stop offset="1" stop-color="#E2ECDC"/>
</linearGradient>
<linearGradient id="paint12_linear_1829_840" x1="566.8" y1="507.271" x2="404.97" y2="449.429" gradientUnits="userSpaceOnUse">
<stop stop-color="#F4EFE0"/>
<stop offset="0.260417" stop-color="#F1F4EB"/>
<stop offset="1" stop-color="#E2ECDC"/>
</linearGradient>
<linearGradient id="paint13_linear_1829_840" x1="578.487" y1="507.284" x2="404.502" y2="442.139" gradientUnits="userSpaceOnUse">
<stop stop-color="#F4EFE0"/>
<stop offset="0.260417" stop-color="#F1F4EB"/>
<stop offset="1" stop-color="#E2ECDC"/>
</linearGradient>
<linearGradient id="paint14_linear_1829_840" x1="589.95" y1="507.291" x2="404.55" y2="434.533" gradientUnits="userSpaceOnUse">
<stop stop-color="#F4EFE0"/>
<stop offset="0.260417" stop-color="#F1F4EB"/>
<stop offset="1" stop-color="#E2ECDC"/>
</linearGradient>
<linearGradient id="paint15_linear_1829_840" x1="601.029" y1="507.324" x2="405.244" y2="426.687" gradientUnits="userSpaceOnUse">
<stop stop-color="#F4EFE0"/>
<stop offset="0.260417" stop-color="#F1F4EB"/>
<stop offset="1" stop-color="#E2ECDC"/>
</linearGradient>
<linearGradient id="paint16_linear_1829_840" x1="611.527" y1="507.356" x2="402.772" y2="422.49" gradientUnits="userSpaceOnUse">
<stop stop-color="#F4EFE0"/>
<stop offset="0.260417" stop-color="#F1F4EB"/>
<stop offset="1" stop-color="#E2ECDC"/>
</linearGradient>
<linearGradient id="paint17_linear_1829_840" x1="621.248" y1="507.408" x2="398.295" y2="420.986" gradientUnits="userSpaceOnUse">
<stop stop-color="#F4EFE0"/>
<stop offset="0.260417" stop-color="#F1F4EB"/>
<stop offset="1" stop-color="#E2ECDC"/>
</linearGradient>
<linearGradient id="paint18_linear_1829_840" x1="629.951" y1="507.474" x2="393.972" y2="420.171" gradientUnits="userSpaceOnUse">
<stop stop-color="#F4EFE0"/>
<stop offset="0.260417" stop-color="#F1F4EB"/>
<stop offset="1" stop-color="#E2ECDC"/>
</linearGradient>
<linearGradient id="paint19_linear_1829_840" x1="637.436" y1="507.536" x2="389.884" y2="420.099" gradientUnits="userSpaceOnUse">
<stop stop-color="#F4EFE0"/>
<stop offset="0.260417" stop-color="#F1F4EB"/>
<stop offset="1" stop-color="#E2ECDC"/>
</linearGradient>
<linearGradient id="paint20_linear_1829_840" x1="643.42" y1="507.596" x2="386.093" y2="420.87" gradientUnits="userSpaceOnUse">
<stop stop-color="#F4EFE0"/>
<stop offset="0.260417" stop-color="#F1F4EB"/>
<stop offset="1" stop-color="#E2ECDC"/>
</linearGradient>
<linearGradient id="paint21_linear_1829_840" x1="647.627" y1="507.644" x2="382.679" y2="422.553" gradientUnits="userSpaceOnUse">
<stop stop-color="#F4EFE0"/>
<stop offset="0.260417" stop-color="#F1F4EB"/>
<stop offset="1" stop-color="#E2ECDC"/>
</linearGradient>
<linearGradient id="paint22_linear_1829_840" x1="664.505" y1="507.704" x2="379.59" y2="414.808" gradientUnits="userSpaceOnUse">
<stop stop-color="#F4EFE0"/>
<stop offset="0.260417" stop-color="#F1F4EB"/>
<stop offset="1" stop-color="#E2ECDC"/>
</linearGradient>
<linearGradient id="paint23_linear_1829_840" x1="689.105" y1="507.76" x2="377.011" y2="401.005" gradientUnits="userSpaceOnUse">
<stop stop-color="#F4EFE0"/>
<stop offset="0.260417" stop-color="#F1F4EB"/>
<stop offset="1" stop-color="#E2ECDC"/>
</linearGradient>
<linearGradient id="paint24_linear_1829_840" x1="713.837" y1="507.805" x2="375.165" y2="386.393" gradientUnits="userSpaceOnUse">
<stop stop-color="#F4EFE0"/>
<stop offset="0.260417" stop-color="#F1F4EB"/>
<stop offset="1" stop-color="#E2ECDC"/>
</linearGradient>
<linearGradient id="paint25_linear_1829_840" x1="738.425" y1="507.844" x2="374.227" y2="371.042" gradientUnits="userSpaceOnUse">
<stop stop-color="#F4EFE0"/>
<stop offset="0.260417" stop-color="#F1F4EB"/>
<stop offset="1" stop-color="#E2ECDC"/>
</linearGradient>
<linearGradient id="paint26_linear_1829_840" x1="762.531" y1="507.876" x2="374.39" y2="355.036" gradientUnits="userSpaceOnUse">
<stop stop-color="#F4EFE0"/>
<stop offset="0.260417" stop-color="#F1F4EB"/>
<stop offset="1" stop-color="#E2ECDC"/>
</linearGradient>
<linearGradient id="paint27_linear_1829_840" x1="785.811" y1="507.898" x2="375.907" y2="338.462" gradientUnits="userSpaceOnUse">
<stop stop-color="#F4EFE0"/>
<stop offset="0.260417" stop-color="#F1F4EB"/>
<stop offset="1" stop-color="#E2ECDC"/>
</linearGradient>
<linearGradient id="paint28_linear_1829_840" x1="807.879" y1="507.985" x2="370.592" y2="329.778" gradientUnits="userSpaceOnUse">
<stop stop-color="#F4EFE0"/>
<stop offset="0.260417" stop-color="#F1F4EB"/>
<stop offset="1" stop-color="#E2ECDC"/>
</linearGradient>
<linearGradient id="paint29_linear_1829_840" x1="828.297" y1="508.114" x2="361.137" y2="326.659" gradientUnits="userSpaceOnUse">
<stop stop-color="#F4EFE0"/>
<stop offset="0.260417" stop-color="#F1F4EB"/>
<stop offset="1" stop-color="#E2ECDC"/>
</linearGradient>
<linearGradient id="paint30_linear_1829_840" x1="846.603" y1="508.249" x2="352.022" y2="324.965" gradientUnits="userSpaceOnUse">
<stop stop-color="#F4EFE0"/>
<stop offset="0.260417" stop-color="#F1F4EB"/>
<stop offset="1" stop-color="#E2ECDC"/>
</linearGradient>
<linearGradient id="paint31_linear_1829_840" x1="862.292" y1="508.368" x2="343.387" y2="324.851" gradientUnits="userSpaceOnUse">
<stop stop-color="#F4EFE0"/>
<stop offset="0.260417" stop-color="#F1F4EB"/>
<stop offset="1" stop-color="#E2ECDC"/>
</linearGradient>
<linearGradient id="paint32_linear_1829_840" x1="874.83" y1="508.5" x2="335.383" y2="326.522" gradientUnits="userSpaceOnUse">
<stop stop-color="#F4EFE0"/>
<stop offset="0.260417" stop-color="#F1F4EB"/>
<stop offset="1" stop-color="#E2ECDC"/>
</linearGradient>
</defs>
</svg>
