<svg width="60" height="60" viewBox="0 0 60 60" fill="none" xmlns="http://www.w3.org/2000/svg">
<path d="M24.609 1.5C14.211 1.5 5.78943 7.1148 5.78943 14.0502V18.45C5.78943 25.38 14.211 30.9942 24.609 30.9942C35.007 30.9942 43.428 25.38 43.428 18.45V14.0502C43.428 7.1142 35.0064 1.5 24.609 1.5ZM24.609 23.0562C16.3284 23.0562 9.32763 18.9342 9.32763 14.0502C9.32763 9.1668 16.3284 5.0382 24.609 5.0382C32.889 5.0382 39.8898 9.1668 39.8898 14.0502C39.8898 18.9342 32.889 23.0562 24.609 23.0562Z" fill="#F9C74F"/>
<path d="M43.428 25.02V27.291C43.428 27.6564 43.4046 28.0164 43.3578 28.3758C40.1275 29.7556 37.2327 31.8159 34.8708 34.416C31.1316 35.3478 28.218 37.164 26.2128 39.7884C25.6824 39.8184 25.1514 39.8358 24.609 39.8358C14.211 39.8358 5.78943 34.221 5.78943 27.2916V25.02C9.11523 30.9474 16.9002 34.008 24.609 34.008C32.3178 34.008 40.1022 30.948 43.428 25.02Z" fill="#F9C74F"/>
<path d="M24.444 42.8491C23.9658 43.9579 23.6064 45.1609 23.364 46.4527L22.9572 48.6349C13.3326 48.0859 5.79004 42.7015 5.79004 36.1369V33.8611C9.09244 39.7471 16.7892 42.8077 24.444 42.8491Z" fill="#F9C74F"/>
<path d="M23.6064 51.678C22.5384 53.5236 22.2912 55.9476 22.2498 57.4278C12.966 56.6556 5.78943 51.3828 5.78943 44.9778V42.708C8.97423 48.3756 16.2342 51.4308 23.6064 51.678Z" fill="#F9C74F"/>
<path d="M54.1104 28.9979C47.2368 28.2899 40.5288 31.3799 36.1398 36.5429C30.831 37.6613 26.838 40.7147 25.6848 46.8857C27.6672 46.3043 29.5758 46.1453 31.3944 46.5095C31.3314 46.8659 31.269 47.2223 31.2252 47.5847L35.5236 51.8837C35.8835 51.8368 36.242 51.7802 36.5988 51.7139C36.963 53.5325 36.804 55.4417 36.2226 57.4235C42.3942 56.2703 45.4476 52.2773 46.5654 46.9691C51.7284 42.5801 54.8184 35.8715 54.1104 28.9979ZM42.5316 40.5779C42.2128 40.2648 41.9591 39.8917 41.7853 39.4801C41.6114 39.0684 41.5209 38.6264 41.5188 38.1796C41.5168 37.7327 41.6033 37.2899 41.7733 36.8767C41.9434 36.4634 42.1936 36.088 42.5096 35.772C42.8255 35.4561 43.201 35.2058 43.6142 35.0358C44.0274 34.8657 44.4703 34.7792 44.9171 34.7813C45.3639 34.7833 45.806 34.8739 46.2176 35.0477C46.6293 35.2216 47.0024 35.4752 47.3154 35.7941C47.9402 36.4304 48.2884 37.2878 48.2843 38.1796C48.2802 39.0713 47.9242 39.9254 47.2936 40.556C46.663 41.1866 45.8089 41.5427 44.9171 41.5468C44.0253 41.5509 43.168 41.2027 42.5316 40.5779ZM28.0716 55.0367C28.0716 55.0367 27.9858 52.1525 29.1168 50.9843C28.1952 50.8241 27.1908 51.1337 26.1798 52.1453C24.4074 53.9177 24.6162 58.4921 24.6162 58.4921C24.6162 58.4921 29.1912 58.7015 30.9642 56.9291C31.9752 55.9175 32.2842 54.9137 32.124 53.9921C30.9564 55.1225 28.0716 55.0367 28.0716 55.0367Z" fill="#F3722C"/>
</svg>
