<svg width="60" height="60" viewBox="0 0 60 60" fill="none" xmlns="http://www.w3.org/2000/svg">
<g clip-path="url(#clip0_80_264)">
<path d="M8.76917 17.1557L14.1201 22.5066C18.1841 18.4425 23.7985 15.9288 30 15.9288V8.36157C21.7089 8.36157 14.2027 11.7223 8.76917 17.1557Z" fill="#F9C74F"/>
<path d="M51.2308 17.1557L45.8799 22.5066C41.8158 18.4425 36.2015 15.9288 29.9999 15.9288V8.36157C38.2912 8.36157 45.7974 11.7223 51.2308 17.1557Z" fill="#F3722C"/>
<path d="M51.229 17.1575L45.8801 22.5064C49.6901 26.3164 52.1375 31.489 52.4285 37.2306C52.4612 37.8763 52.9875 38.3863 53.634 38.3863H58.7908C59.4782 38.3863 60.0274 37.8135 59.9991 37.1268C59.6774 29.3369 56.3859 22.3144 51.229 17.1575Z" fill="#C8EA73"/>
<path d="M53.8628 20.1689C53.9484 20.9 53.9917 21.6353 53.9925 22.3714C53.9925 25.7454 53.1046 28.9595 51.4998 31.8823C52.0251 33.622 52.337 35.4191 52.4285 37.234C52.4612 37.8787 52.9891 38.3864 53.6347 38.3864H58.7907C59.4779 38.3864 60.0273 37.8139 59.9989 37.1273C59.736 30.762 57.489 24.9104 53.8628 20.1689Z" fill="#90BE6D"/>
<path d="M8.77113 17.1575L14.12 22.5064C10.31 26.3164 7.86257 31.489 7.5716 37.2306C7.5389 37.8764 7.01261 38.3864 6.36609 38.3864H1.20925C0.521949 38.3864 -0.0273085 37.8135 0.00105087 37.1268C0.322731 29.3369 3.61418 22.3144 8.77113 17.1575ZM53.9925 15.3002C53.8735 15.3003 53.7556 15.277 53.6456 15.2314C53.5357 15.1859 53.4358 15.1191 53.3517 15.0349C47.1143 8.79722 38.8212 5.36198 30 5.36198C29.7597 5.36198 29.5292 5.26651 29.3592 5.09656C29.1893 4.92661 29.0938 4.69611 29.0938 4.45577C29.0938 4.21543 29.1893 3.98493 29.3592 3.81498C29.5292 3.64504 29.7597 3.54956 30 3.54956C39.3053 3.54956 48.0535 7.17323 54.6333 13.7531C54.76 13.8798 54.8463 14.0413 54.8812 14.2171C54.9162 14.3929 54.8982 14.5751 54.8297 14.7407C54.7611 14.9063 54.6449 15.0478 54.4959 15.1474C54.3469 15.247 54.1717 15.3001 53.9925 15.3002Z" fill="#F3722C"/>
<path d="M54.6334 13.7531C54.4807 13.6006 54.2787 13.5075 54.0636 13.4906C53.8485 13.4737 53.6344 13.5341 53.4598 13.6609L25.67 33.8559C25.5641 33.933 25.4761 34.032 25.4122 34.1463C25.3482 34.2606 25.3098 34.3874 25.2995 34.518C25.2892 34.6485 25.3074 34.7798 25.3527 34.9027C25.398 35.0256 25.4694 35.1372 25.562 35.2298L33.1566 42.8246C33.2493 42.9172 33.3609 42.9887 33.4838 43.034C33.6067 43.0794 33.7379 43.0975 33.8685 43.0872C33.9991 43.0769 34.1259 43.0385 34.2402 42.9745C34.3545 42.9105 34.4535 42.8224 34.5305 42.7165L54.7256 14.9266C54.8524 14.7521 54.9129 14.538 54.8959 14.3228C54.879 14.1077 54.7859 13.9057 54.6334 13.7531Z" fill="#4073C8"/>
<path d="M30.0001 38.3865C33.3705 38.3865 36.1027 35.6542 36.1027 32.2838C36.1027 28.9134 33.3705 26.1812 30.0001 26.1812C26.6297 26.1812 23.8974 28.9134 23.8974 32.2838C23.8974 35.6542 26.6297 38.3865 30.0001 38.3865Z" fill="#F1D0A5"/>
<path d="M33.0354 26.9905C33.5668 27.9138 33.8459 28.9606 33.8447 30.0259C33.8447 33.3963 31.1125 36.1285 27.7421 36.1285C26.6768 36.1297 25.63 35.8506 24.7067 35.3192C25.7597 37.1516 27.735 38.3865 30 38.3865C33.3705 38.3865 36.1027 35.6543 36.1027 32.2838C36.1026 30.0188 34.8676 28.0435 33.0354 26.9905Z" fill="#F1B986"/>
<path d="M19.7477 43.2686V47.4307C19.7477 48.0979 20.2886 48.6389 20.9559 48.6389H39.0442C39.7115 48.6389 40.2524 48.0979 40.2524 47.4307V43.2686C40.2524 40.5724 38.0667 38.3865 35.3703 38.3865H24.6297C21.9335 38.3866 19.7477 40.5724 19.7477 43.2686Z" fill="#4FC6F9"/>
<path d="M35.3703 38.3865H32.4411C35.1375 38.3865 37.3233 40.5723 37.3233 43.2686V48.639H39.0443C39.7115 48.639 40.2525 48.098 40.2525 47.4308V43.2687C40.2525 40.5723 38.0667 38.3865 35.3703 38.3865Z" fill="#80B4FB"/>
<path d="M39.0441 56.4503H20.9559C20.2886 56.4503 19.7477 55.9094 19.7477 55.2421V53.7529C19.7477 53.0856 20.2886 52.5447 20.9559 52.5447H39.0442C39.7115 52.5447 40.2524 53.0856 40.2524 53.7529V55.2421C40.2524 55.9094 39.7115 56.4503 39.0441 56.4503Z" fill="#4073C8"/>
<path d="M25.78 48.6388V46.1977C25.78 45.9574 25.6845 45.7269 25.5146 45.5569C25.3446 45.387 25.1141 45.2915 24.8738 45.2915C24.6335 45.2915 24.403 45.387 24.233 45.5569C24.0631 45.7269 23.9676 45.9574 23.9676 46.1977V48.6388H25.78ZM36.0324 46.1977C36.0324 45.9574 35.9369 45.7269 35.767 45.5569C35.597 45.387 35.3665 45.2915 35.1262 45.2915C34.8858 45.2915 34.6553 45.387 34.4854 45.5569C34.3154 45.7269 34.22 45.9574 34.22 46.1977V48.6388H36.0324V46.1977Z" fill="#80B4FB"/>
<path d="M59.0938 43.09H53.3346C53.0943 43.09 52.8638 42.9945 52.6938 42.8246C52.5239 42.6546 52.4284 42.4241 52.4284 42.1838C52.4284 41.9435 52.5239 41.713 52.6938 41.543C52.8638 41.3731 53.0943 41.2776 53.3346 41.2776H59.0938C59.3341 41.2776 59.5646 41.3731 59.7346 41.543C59.9045 41.713 60 41.9435 60 42.1838C60 42.4241 59.9045 42.6546 59.7346 42.8246C59.5646 42.9945 59.3341 43.09 59.0938 43.09ZM57.5838 46.9958H54.8987C54.6584 46.9958 54.4279 46.9003 54.2579 46.7303C54.088 46.5604 53.9925 46.3299 53.9925 46.0895C53.9925 45.8492 54.088 45.6187 54.2579 45.4488C54.4279 45.2788 54.6584 45.1833 54.8987 45.1833H57.5838C57.8242 45.1833 58.0547 45.2788 58.2246 45.4488C58.3946 45.6187 58.49 45.8492 58.49 46.0895C58.49 46.3299 58.3946 46.5604 58.2246 46.7303C58.0547 46.9003 57.8242 46.9958 57.5838 46.9958ZM0.906211 43.09H6.66539C6.90573 43.09 7.13623 42.9945 7.30618 42.8246C7.47613 42.6546 7.5716 42.4241 7.5716 42.1838C7.5716 41.9435 7.47613 41.713 7.30618 41.543C7.13623 41.3731 6.90573 41.2776 6.66539 41.2776H0.906211C0.665869 41.2776 0.435371 41.3731 0.265423 41.543C0.0954755 41.713 7.57976e-09 41.9435 7.57976e-09 42.1838C-1.53852e-05 42.3028 0.0234139 42.4207 0.0689499 42.5306C0.114486 42.6406 0.181236 42.7405 0.265389 42.8246C0.349541 42.9088 0.449447 42.9755 0.559401 43.0211C0.669354 43.0666 0.787201 43.09 0.906211 43.09ZM2.41617 46.9958H5.10129C5.34163 46.9958 5.57213 46.9003 5.74208 46.7303C5.91202 46.5604 6.0075 46.3299 6.0075 46.0895C6.0075 45.8492 5.91202 45.6187 5.74208 45.4488C5.57213 45.2788 5.34163 45.1833 5.10129 45.1833H2.41617C2.17583 45.1833 1.94533 45.2788 1.77538 45.4488C1.60544 45.6187 1.50996 45.8492 1.50996 46.0895C1.50996 46.3299 1.60544 46.5604 1.77538 46.7303C1.94533 46.9003 2.17583 46.9958 2.41617 46.9958Z" fill="#4FC6F9"/>
</g>
<defs>
<clipPath id="clip0_80_264">
<rect width="60" height="60" fill="white"/>
</clipPath>
</defs>
</svg>
