<svg width="60" height="60" viewBox="0 0 60 60" fill="none" xmlns="http://www.w3.org/2000/svg">
<g clip-path="url(#clip0_83_356)">
<path d="M29.0946 6.59473H30.9055V13.0931H29.0946V6.59473ZM46.9072 29.0947H53.4055V30.9056H46.9072V29.0947ZM29.0946 46.9073H30.9055V53.4056H29.0946V46.9073ZM6.5946 29.0947H13.0929V30.9056H6.5946V29.0947ZM10.4692 11.7529L11.7494 10.4726L18.6814 17.4046L17.4012 18.6848L10.4692 11.7529ZM41.3091 17.4077L48.2411 10.4757L49.5213 11.7559L42.5893 18.6879L41.3091 17.4077ZM41.3058 42.5959L42.5859 41.3157L49.5179 48.2477L48.2377 49.528L41.3058 42.5959ZM10.466 48.2443L17.3979 41.3122L18.6782 42.5925L11.7462 49.5245L10.466 48.2443Z" fill="#685E68"/>
<path d="M30 47.8125C39.8376 47.8125 47.8125 39.8376 47.8125 30C47.8125 20.1624 39.8376 12.1875 30 12.1875C20.1624 12.1875 12.1875 20.1624 12.1875 30C12.1875 39.8376 20.1624 47.8125 30 47.8125Z" fill="#4FC6F9"/>
<path d="M41.2469 16.1865C44.2689 19.3785 46.1223 23.688 46.1223 28.4306C46.1223 38.2682 38.1474 46.2431 28.3098 46.2431C24.0447 46.2431 20.1297 44.7441 17.063 42.2441C20.3097 45.6732 24.9049 47.8125 30 47.8125C39.8376 47.8125 47.8125 39.8375 47.8125 30C47.8125 24.4275 45.2536 19.4528 41.2469 16.1865Z" fill="#0593FC"/>
<path d="M30 7.5C32.0711 7.5 33.75 5.82107 33.75 3.75C33.75 1.67893 32.0711 0 30 0C27.9289 0 26.25 1.67893 26.25 3.75C26.25 5.82107 27.9289 7.5 30 7.5Z" fill="#90BE6D"/>
<path d="M56.25 33.75C58.3211 33.75 60 32.0711 60 30C60 27.9289 58.3211 26.25 56.25 26.25C54.1789 26.25 52.5 27.9289 52.5 30C52.5 32.0711 54.1789 33.75 56.25 33.75Z" fill="#90BE6D"/>
<path d="M30 60C32.0711 60 33.75 58.3211 33.75 56.25C33.75 54.1789 32.0711 52.5 30 52.5C27.9289 52.5 26.25 54.1789 26.25 56.25C26.25 58.3211 27.9289 60 30 60Z" fill="#90BE6D"/>
<path d="M3.75 33.75C5.82107 33.75 7.5 32.0711 7.5 30C7.5 27.9289 5.82107 26.25 3.75 26.25C1.67893 26.25 0 27.9289 0 30C0 32.0711 1.67893 33.75 3.75 33.75Z" fill="#90BE6D"/>
<path d="M8.4375 13.125C11.0263 13.125 13.125 11.0263 13.125 8.4375C13.125 5.84867 11.0263 3.75 8.4375 3.75C5.84867 3.75 3.75 5.84867 3.75 8.4375C3.75 11.0263 5.84867 13.125 8.4375 13.125Z" fill="#F9C74F"/>
<path d="M51.5625 13.125C54.1513 13.125 56.25 11.0263 56.25 8.4375C56.25 5.84867 54.1513 3.75 51.5625 3.75C48.9737 3.75 46.875 5.84867 46.875 8.4375C46.875 11.0263 48.9737 13.125 51.5625 13.125Z" fill="#F9C74F"/>
<path d="M51.5625 56.25C54.1513 56.25 56.25 54.1513 56.25 51.5625C56.25 48.9737 54.1513 46.875 51.5625 46.875C48.9737 46.875 46.875 48.9737 46.875 51.5625C46.875 54.1513 48.9737 56.25 51.5625 56.25Z" fill="#F9C74F"/>
<path d="M8.4375 56.25C11.0263 56.25 13.125 54.1513 13.125 51.5625C13.125 48.9737 11.0263 46.875 8.4375 46.875C5.84867 46.875 3.75 48.9737 3.75 51.5625C3.75 54.1513 5.84867 56.25 8.4375 56.25Z" fill="#F9C74F"/>
<path d="M10.948 47.6033C11.425 48.3536 11.6777 49.2246 11.6763 50.1138C11.6763 52.7027 9.57757 54.8013 6.98878 54.8013C6.06522 54.8013 5.20401 54.5341 4.47827 54.073C5.30983 55.3815 6.77222 56.25 8.43745 56.25C11.0262 56.25 13.125 54.1514 13.125 51.5625C13.125 49.8972 12.2566 48.4348 10.948 47.6033ZM54.8013 6.98878C54.8013 9.57769 52.7026 11.6763 50.1138 11.6763C49.1902 11.6763 48.329 11.4091 47.6033 10.948C48.4348 12.2566 49.8972 13.125 51.5625 13.125C54.1512 13.125 56.25 11.0264 56.25 8.43745C56.25 6.77222 55.3816 5.30983 54.073 4.47827C54.55 5.22862 54.8027 6.09964 54.8013 6.98878Z" fill="#F3722C"/>
<path d="M7.49999 30C7.49999 28.5922 6.72421 27.3656 5.57694 26.7244C5.88894 27.2827 6.05228 27.9118 6.05132 28.5513C6.05132 30.6224 4.37237 32.3013 2.30132 32.3013C1.66176 32.3023 1.03267 32.1389 0.474365 31.8269C1.11562 32.9742 2.34222 33.75 3.74999 33.75C5.82105 33.75 7.49999 32.071 7.49999 30Z" fill="#2CA96E"/>
<path d="M10.948 4.47827C11.425 5.22862 11.6777 6.09964 11.6763 6.98878C11.6763 9.57757 9.57757 11.6763 6.98878 11.6763C6.09964 11.6777 5.22863 11.425 4.47827 10.948C5.30983 12.2566 6.77222 13.125 8.43745 13.125C11.0262 13.125 13.125 11.0262 13.125 8.43745C13.125 6.77222 12.2566 5.30983 10.948 4.47827Z" fill="#F3722C"/>
<path d="M58.0769 26.7244C58.3889 27.2827 58.5523 27.9118 58.5513 28.5513C58.5513 30.6224 56.8724 32.3013 54.8013 32.3013C54.1618 32.3023 53.5327 32.1389 52.9744 31.8269C53.6156 32.9742 54.8422 33.75 56.25 33.75C58.321 33.75 60 32.071 60 30C60 28.5922 59.2242 27.3656 58.0769 26.7244Z" fill="#2CA96E"/>
<path d="M54.073 47.6033C54.55 48.3536 54.8027 49.2246 54.8013 50.1138C54.8013 52.7027 52.7026 54.8013 50.1138 54.8013C49.1902 54.8013 48.329 54.5341 47.6033 54.073C48.4348 55.3815 49.8972 56.25 51.5625 56.25C54.1512 56.25 56.25 54.1514 56.25 51.5625C56.25 49.8972 55.3816 48.4348 54.073 47.6033Z" fill="#F3722C"/>
<path d="M31.8269 52.9744C32.1389 53.5327 32.3023 54.1618 32.3013 54.8013C32.3013 56.8724 30.6224 58.5513 28.5513 58.5513C27.9118 58.5523 27.2827 58.3889 26.7244 58.0769C27.3656 59.2242 28.5922 60 30 60C32.071 60 33.75 58.321 33.75 56.25C33.75 54.8422 32.9742 53.6156 31.8269 52.9744ZM31.8269 0.474365C32.1389 1.03267 32.3023 1.66176 32.3013 2.30132C32.3013 4.37237 30.6224 6.05132 28.5513 6.05132C27.9118 6.05228 27.2827 5.88894 26.7244 5.57694C27.3656 6.72421 28.5922 7.49999 30 7.49999C32.071 7.49999 33.75 5.82105 33.75 3.74999C33.75 2.34222 32.9742 1.11562 31.8269 0.474365Z" fill="#2CA96E"/>
<path d="M27.6853 25.0821C27.5662 25.0821 27.4483 25.1056 27.3383 25.1512C27.2283 25.1968 27.1284 25.2637 27.0443 25.3479C26.9602 25.4322 26.8935 25.5323 26.8481 25.6424C26.8027 25.7525 26.7795 25.8704 26.7798 25.9895L26.7966 34.2665C26.797 34.5063 26.8926 34.7362 27.0624 34.9056C27.2321 35.075 27.4622 35.1701 27.7021 35.17H27.7055C27.7764 35.1698 29.447 35.1633 30.1139 35.1516C32.5264 35.1095 34.2773 32.996 34.2773 30.1261C34.2773 27.1092 32.5703 25.0823 30.0294 25.0823L27.6853 25.0821ZM32.4664 30.126C32.4664 31.6544 31.7204 33.3123 30.0823 33.3409C29.7452 33.3468 29.1275 33.3515 28.6055 33.3546L28.5925 26.893H30.0294C31.8264 26.893 32.4664 28.5631 32.4664 30.126ZM21.1396 26.6407C21.8087 26.6395 22.4628 26.8391 23.0171 27.2139C23.2162 27.3438 23.4583 27.3902 23.6912 27.3431C23.9241 27.2961 24.1293 27.1594 24.2623 26.9624C24.3953 26.7655 24.4456 26.5242 24.4023 26.2905C24.359 26.0569 24.2256 25.8496 24.0308 25.7134C23.1753 25.1353 22.1755 24.83 21.1396 24.83C18.2887 24.83 15.9695 27.1492 15.9695 30C15.9695 32.8509 18.2887 35.1701 21.1396 35.1701C22.2744 35.1701 23.2921 34.7979 24.0823 34.0941C24.2389 33.9543 24.3852 33.8034 24.5201 33.6426C24.6711 33.4582 24.7433 33.2217 24.7211 32.9844C24.6989 32.7471 24.584 32.5281 24.4014 32.3749C24.2187 32.2218 23.9831 32.1468 23.7455 32.1663C23.508 32.1858 23.2877 32.2982 23.1325 32.479C23.0541 32.5727 22.969 32.6605 22.8779 32.7417C22.4178 33.1516 21.833 33.3593 21.1396 33.3593C19.2873 33.3593 17.7804 31.8524 17.7804 30.0001C17.7804 28.1479 19.2874 26.6407 21.1396 26.6407ZM36.8787 24.8868C36.6944 24.9443 36.5333 25.0591 36.4189 25.2146C36.3044 25.3701 36.2427 25.5581 36.2427 25.7512V34.2645C36.2427 34.5046 36.3381 34.7349 36.5079 34.9047C36.6777 35.0745 36.908 35.1699 37.1481 35.1699C37.3882 35.1699 37.6185 35.0745 37.7883 34.9047C37.9581 34.7349 38.0535 34.5046 38.0535 34.2645V28.6557L42.1595 34.6014C42.4319 34.9949 42.8837 35.1633 43.3108 35.0296C43.7478 34.8931 44.0303 34.4799 44.0303 33.9684L43.9506 25.7266C43.9483 25.488 43.8519 25.2599 43.6824 25.092C43.5129 24.9241 43.284 24.8299 43.0454 24.8298H43.0365C42.7964 24.8322 42.567 24.9298 42.3988 25.1012C42.2307 25.2727 42.1375 25.5039 42.1398 25.744L42.1952 31.4663L37.8933 25.2367C37.7836 25.0778 37.6259 24.9582 37.4434 24.8952C37.2609 24.8323 37.063 24.8293 36.8787 24.8868Z" fill="white"/>
</g>
<defs>
<clipPath id="clip0_83_356">
<rect width="60" height="60" fill="white"/>
</clipPath>
</defs>
</svg>
