<svg width="60" height="60" viewBox="0 0 60 60" fill="none" xmlns="http://www.w3.org/2000/svg">
<path d="M49.6875 52.5H30.9375V45.9375C30.9375 45.6889 30.8387 45.4504 30.6629 45.2746C30.4871 45.0988 30.2486 45 30 45C29.7514 45 29.5129 45.0988 29.3371 45.2746C29.1613 45.4504 29.0625 45.6889 29.0625 45.9375V52.5H10.3125C10.0639 52.5 9.8254 52.5988 9.64959 52.7746C9.47377 52.9504 9.375 53.1889 9.375 53.4375C9.375 53.6861 9.47377 53.9246 9.64959 54.1004C9.8254 54.2762 10.0639 54.375 10.3125 54.375H49.6875C49.9361 54.375 50.1746 54.2762 50.3504 54.1004C50.5262 53.9246 50.625 53.6861 50.625 53.4375C50.625 53.1889 50.5262 52.9504 50.3504 52.7746C50.1746 52.5988 49.9361 52.5 49.6875 52.5Z" fill="#90BE6D"/>
<path d="M53.385 18.5381C51.202 17.3326 48.6341 17.0287 46.23 17.6915C46.7451 15.5412 46.3896 13.2744 45.2409 11.3849C42.5531 6.8287 35.9812 4.15026 30.8784 3.85963C25.3209 3.55213 19.5909 6.08901 16.9537 10.0471C16.1983 11.1526 15.6963 12.4113 15.4837 13.7332C15.2711 15.0551 15.353 16.4077 15.7237 17.6943C13.4772 17.1218 11.1096 17.2461 8.93531 18.0506C7.44879 18.507 6.08498 19.2943 4.94627 20.3532C3.80757 21.4122 2.92356 22.7154 2.36062 24.1649C1.97145 25.223 1.85166 26.3612 2.01205 27.477C2.17244 28.5929 2.60796 29.6513 3.27937 30.5568C4.26394 31.8281 5.52514 32.8584 6.96727 33.5695C8.4094 34.2807 9.99457 34.654 11.6025 34.6612H48.4931C53.8059 34.6612 58.125 30.989 58.125 26.4749C58.1335 24.8456 57.6964 23.2449 56.8609 21.846C56.0255 20.4471 54.8235 19.3033 53.385 18.5381Z" fill="#F9C74F"/>
<path d="M41.25 30.9375H39.9234C39.7048 30.1664 39.3961 29.4238 39.0037 28.725L39.9431 27.7837C40.2924 27.4309 40.4883 26.9546 40.4883 26.4581C40.4883 25.9617 40.2924 25.4853 39.9431 25.1325L38.6175 23.8069C38.2658 23.4556 37.789 23.2583 37.2919 23.2583C36.7948 23.2583 36.318 23.4556 35.9662 23.8069L35.0259 24.7463C34.3268 24.3538 33.5839 24.0451 32.8125 23.8266V22.5C32.812 22.0029 32.6143 21.5262 32.2628 21.1747C31.9113 20.8232 31.4346 20.6255 30.9375 20.625H29.0625C28.5654 20.6255 28.0887 20.8232 27.7372 21.1747C27.3857 21.5262 27.188 22.0029 27.1875 22.5V23.8266C26.4164 24.0452 25.6738 24.3539 24.975 24.7463L24.0337 23.8069C23.6767 23.4658 23.2019 23.2754 22.7081 23.2754C22.2143 23.2754 21.7395 23.4658 21.3825 23.8069L20.0569 25.1325C19.7074 25.4852 19.5114 25.9616 19.5114 26.4581C19.5114 26.9546 19.7074 27.431 20.0569 27.7837L20.9963 28.7241C20.6038 29.4232 20.2951 30.1661 20.0766 30.9375H18.75C18.2529 30.938 17.7762 31.1357 17.4247 31.4872C17.0732 31.8387 16.8755 32.3154 16.875 32.8125V34.6875C16.8755 35.1846 17.0732 35.6613 17.4247 36.0128C17.7762 36.3643 18.2529 36.562 18.75 36.5625H20.0766C20.2952 37.3336 20.6039 38.0762 20.9963 38.775L20.0569 39.7162C19.7074 40.0689 19.5114 40.5454 19.5114 41.0419C19.5114 41.5384 19.7074 42.0148 20.0569 42.3675L21.3825 43.6931C21.7395 44.0342 22.2143 44.2246 22.7081 44.2246C23.2019 44.2246 23.6767 44.0342 24.0337 43.6931L24.9741 42.7537C25.6732 43.1462 26.4161 43.4549 27.1875 43.6734V45C27.188 45.4971 27.3857 45.9738 27.7372 46.3253C28.0887 46.6768 28.5654 46.8745 29.0625 46.875H30.9375C31.4346 46.8745 31.9113 46.6768 32.2628 46.3253C32.6143 45.9738 32.812 45.4971 32.8125 45V43.6734C33.5839 43.4549 34.3268 43.1462 35.0259 42.7537L35.9662 43.6931C36.318 44.0444 36.7948 44.2417 37.2919 44.2417C37.789 44.2417 38.2658 44.0444 38.6175 43.6931L39.9431 42.3675C40.2926 42.0148 40.4886 41.5384 40.4886 41.0419C40.4886 40.5454 40.2926 40.0689 39.9431 39.7162L39.0037 38.7759C39.3962 38.0768 39.7049 37.3339 39.9234 36.5625H41.25C41.7471 36.562 42.2238 36.3643 42.5753 36.0128C42.9268 35.6613 43.1245 35.1846 43.125 34.6875V32.8125C43.1245 32.3154 42.9268 31.8387 42.5753 31.4872C42.2238 31.1357 41.7471 30.938 41.25 30.9375Z" fill="#F3722C"/>
<path d="M30 39.375C33.1066 39.375 35.625 36.8566 35.625 33.75C35.625 30.6434 33.1066 28.125 30 28.125C26.8934 28.125 24.375 30.6434 24.375 33.75C24.375 36.8566 26.8934 39.375 30 39.375Z" fill="#EEEEEE"/>
<path d="M51.5625 56.25C53.1158 56.25 54.375 54.9908 54.375 53.4375C54.375 51.8842 53.1158 50.625 51.5625 50.625C50.0092 50.625 48.75 51.8842 48.75 53.4375C48.75 54.9908 50.0092 56.25 51.5625 56.25Z" fill="#F3722C"/>
<path d="M30 56.25C31.5533 56.25 32.8125 54.9908 32.8125 53.4375C32.8125 51.8842 31.5533 50.625 30 50.625C28.4467 50.625 27.1875 51.8842 27.1875 53.4375C27.1875 54.9908 28.4467 56.25 30 56.25Z" fill="#F3722C"/>
<path d="M8.4375 56.25C9.9908 56.25 11.25 54.9908 11.25 53.4375C11.25 51.8842 9.9908 50.625 8.4375 50.625C6.8842 50.625 5.625 51.8842 5.625 53.4375C5.625 54.9908 6.8842 56.25 8.4375 56.25Z" fill="#F3722C"/>
</svg>
