<svg width="60" height="60" viewBox="0 0 60 60" fill="none" xmlns="http://www.w3.org/2000/svg">
<path d="M51.7969 14.1797H8.20312V42.3047H21.2109L24.7266 44.6484H34.1016L37.6172 42.3047H51.7969V14.1797Z" fill="#F9C74F"/>
<path d="M58.8281 41.1328H57.6562V9.49219C57.6562 8.84508 57.1316 8.32031 56.4844 8.32031H3.51562C2.8684 8.32031 2.34375 8.84508 2.34375 9.49219V41.1328H1.17188C0.524648 41.1328 0 41.6576 0 42.3047C0 47.4741 4.20563 51.6797 9.375 51.6797H50.625C55.7944 51.6797 60 47.4741 60 42.3047C60 41.6576 59.4754 41.1328 58.8281 41.1328ZM4.6875 10.6641H55.3125V41.1328H37.6172C37.3858 41.1328 37.1596 41.2013 36.9671 41.3297L33.7467 43.4766H25.0814L21.861 41.3297C21.6685 41.2013 21.4423 41.1328 21.2109 41.1328H4.6875V10.6641ZM50.625 49.3359H9.375C5.89711 49.3359 3.00094 46.7978 2.44137 43.4766H20.8561L24.0765 45.6234C24.269 45.7518 24.4952 45.8203 24.7266 45.8203H34.1016C34.3329 45.8203 34.5591 45.7518 34.7516 45.6234L37.972 43.4766H57.5586C56.9991 46.7978 54.1029 49.3359 50.625 49.3359Z" fill="#F3722C"/>
<path d="M21.4537 32.1011L17.5948 28.2422L21.4537 24.3833C21.9113 23.9257 21.9113 23.1837 21.4537 22.7259C20.996 22.2684 20.254 22.2684 19.7963 22.7259L15.1088 27.4134C14.6512 27.8711 14.6512 28.6131 15.1088 29.0708L19.7963 33.7583C20.254 34.2159 20.9959 34.2158 21.4537 33.7583C21.9114 33.3007 21.9114 32.5587 21.4537 32.1011ZM38.5464 33.7583C39.0041 34.2159 39.746 34.2158 40.2038 33.7583L44.8913 29.0708C45.3489 28.6132 45.3489 27.8712 44.8913 27.4134L40.2038 22.7259C39.7462 22.2684 39.0041 22.2684 38.5464 22.7259C38.0888 23.1836 38.0888 23.9256 38.5464 24.3833L42.4053 28.2422L38.5464 32.1011C38.0887 32.5587 38.0887 33.3007 38.5464 33.7583ZM26.5555 33.2141L34.8419 24.9277C35.2995 24.47 35.2995 23.728 34.8419 23.2703C34.3844 22.8128 33.6422 22.8128 33.1846 23.2703L24.8983 31.5567C24.4407 32.0143 24.4407 32.7564 24.8983 33.2141C25.356 33.6717 26.0978 33.6716 26.5555 33.2141Z" fill="white"/>
</svg>
