<svg width="60" height="60" viewBox="0 0 60 60" fill="none" xmlns="http://www.w3.org/2000/svg">
<path d="M13.0254 43.1092H46.9746C47.13 43.1092 47.279 43.0475 47.3889 42.9376C47.4988 42.8277 47.5606 42.6787 47.5606 42.5233V17.4763C47.5606 17.3209 47.4988 17.1719 47.3889 17.062C47.279 16.9521 47.13 16.8904 46.9746 16.8904H13.0254C12.87 16.8904 12.721 16.9521 12.6111 17.062C12.5012 17.1719 12.4395 17.3209 12.4395 17.4763V42.5233C12.4395 42.6787 12.5012 42.8277 12.6111 42.9376C12.721 43.0475 12.87 43.1092 13.0254 43.1092Z" fill="#D8ECFE"/>
<path d="M17.3437 42.5234V40.8223H15.4882C15.2863 40.822 15.0927 40.7417 14.9499 40.5989C14.8071 40.4561 14.7267 40.2625 14.7265 40.0606V19.9391C14.7265 19.5191 15.0682 19.1774 15.4882 19.1774H17.3437V17.4763C17.3437 17.3209 17.4055 17.1719 17.5154 17.062C17.6253 16.9521 17.7743 16.8904 17.9297 16.8904H13.0254C12.87 16.8904 12.721 16.9521 12.6111 17.062C12.5012 17.1719 12.4395 17.3209 12.4395 17.4763V42.5233C12.4395 42.6787 12.5012 42.8277 12.6111 42.9376C12.721 43.0475 12.87 43.1092 13.0254 43.1092H17.9297C17.8527 43.1092 17.7765 43.0941 17.7054 43.0647C17.6344 43.0352 17.5698 42.9921 17.5153 42.9377C17.4609 42.8833 17.4178 42.8187 17.3883 42.7476C17.3589 42.6765 17.3437 42.6003 17.3437 42.5234Z" fill="#C4E2FF"/>
<path d="M16.2499 20.7007H43.7501V39.2987H16.2499V20.7007Z" fill="#F9C74F"/>
<path d="M16.2499 20.7007H19.1405V39.2987H16.2499V20.7007Z" fill="#FAC600"/>
<path d="M23.0489 29.329C24.3959 29.329 25.4878 28.2371 25.4878 26.8901C25.4878 25.5431 24.3959 24.4512 23.0489 24.4512C21.7019 24.4512 20.61 25.5431 20.61 26.8901C20.61 28.2371 21.7019 29.329 23.0489 29.329Z" fill="white"/>
<path d="M23.0127 26.8901C23.0127 25.9802 23.5119 25.1883 24.2503 24.7691C23.8843 24.5606 23.4702 24.451 23.0489 24.4512C21.7018 24.4512 20.6099 25.5431 20.6099 26.8902C20.6099 28.2371 21.7018 29.3291 23.0489 29.3291C23.4861 29.3291 23.8955 29.2126 24.2503 29.0112C23.5119 28.5919 23.0127 27.7999 23.0127 26.8901Z" fill="#EAF6FF"/>
<path d="M32.0823 39.2989H43.7501V33.8111C41.875 32.9733 39.7499 32.4998 37.4975 32.4998C33.5497 32.4998 29.9924 33.9529 27.489 36.2773C29.2134 36.9735 30.7717 37.984 32.0478 39.2644L32.0823 39.2989Z" fill="#F3722C"/>
<path d="M32.246 39.2987C29.7291 36.707 25.9689 35.0605 21.7662 35.0605C19.8038 35.0605 17.938 35.4201 16.2498 36.0665V39.2987H32.246Z" fill="#F3722C"/>
<path d="M19.1405 39.2988V35.2805C18.1533 35.4468 17.1851 35.7104 16.2499 36.0675V39.2988H19.1405Z" fill="#D88A55"/>
<path d="M44.5118 40.9394H15.4882C15.2551 40.9394 15.0315 40.8468 14.8667 40.682C14.7019 40.5172 14.6093 40.2936 14.6093 40.0605V19.939C14.6093 19.7059 14.7019 19.4823 14.8667 19.3175C15.0315 19.1527 15.2551 19.0601 15.4882 19.0601H44.5118C44.7449 19.0601 44.9684 19.1527 45.1333 19.3175C45.2981 19.4823 45.3907 19.7059 45.3907 19.939V40.0604C45.3907 40.1758 45.368 40.2901 45.3238 40.3968C45.2797 40.5034 45.2149 40.6003 45.1333 40.682C45.0517 40.7636 44.9548 40.8283 44.8481 40.8725C44.7415 40.9167 44.6272 40.9394 44.5118 40.9394ZM16.3671 39.1816H43.6329V20.8179H16.3671V39.1816Z" fill="white"/>
<path d="M3.86719 17.1012C4.10029 17.1012 4.32384 17.0086 4.48867 16.8437C4.6535 16.6789 4.74609 16.4554 4.74609 16.2223V9.19897H11.7694C12.2549 9.19897 12.6483 8.80546 12.6483 8.32007C12.6483 7.83468 12.2549 7.44116 11.7694 7.44116H3.86719C3.63409 7.44116 3.41053 7.53376 3.24571 7.69859C3.08088 7.86341 2.98828 8.08697 2.98828 8.32007V16.2223C2.98828 16.4554 3.08088 16.6789 3.24571 16.8437C3.41053 17.0086 3.63409 17.1012 3.86719 17.1012ZM56.1328 42.8983C55.8997 42.8983 55.6762 42.9909 55.5113 43.1558C55.3465 43.3206 55.2539 43.5442 55.2539 43.7773V50.8005H48.2306C47.7451 50.8005 47.3517 51.1941 47.3517 51.6794C47.3517 52.1648 47.7451 52.5583 48.2306 52.5583H56.1328C56.3659 52.5583 56.5895 52.4658 56.7543 52.3009C56.9191 52.1361 57.0117 51.9125 57.0117 51.6794V43.7773C57.0117 43.5442 56.9191 43.3206 56.7543 43.1558C56.5895 42.9909 56.3659 42.8983 56.1328 42.8983Z" fill="#4FC6F9"/>
<path d="M59.1211 12.353H52.0978V5.32983C52.0978 4.84444 51.7044 4.45093 51.2189 4.45093C50.7334 4.45093 50.34 4.84444 50.34 5.32983V12.353H8.78109C8.54799 12.353 8.32444 12.4456 8.15961 12.6104C7.99479 12.7753 7.90219 12.9988 7.90219 13.2319V45.8888H0.878906C0.393398 45.8888 0 46.2823 0 46.7677C0 47.2531 0.393398 47.6466 0.878906 47.6466H7.90219V54.6698C7.90219 55.1551 8.29559 55.5487 8.78109 55.5487C9.2666 55.5487 9.66 55.1551 9.66 54.6698V47.6466H51.219C51.4521 47.6466 51.6757 47.554 51.8405 47.3892C52.0053 47.2243 52.0979 47.0008 52.0979 46.7677V14.1108H59.1211C59.6066 14.1108 60 13.7173 60 13.2319C60 12.7465 59.6066 12.353 59.1211 12.353ZM50.34 45.8888H9.66V14.1108H50.3401V45.8888H50.34Z" fill="#4FC6F9"/>
</svg>
