<svg width="60" height="60" viewBox="0 0 60 60" fill="none" xmlns="http://www.w3.org/2000/svg">
<g clip-path="url(#clip0_284_8)">
<path d="M60 23.6759L54.0388 17.7146C50.87 18.3759 47.4411 17.4777 44.9818 15.0183C42.5224 12.5589 41.6242 9.12996 42.2855 5.96133L36.3241 0L27.447 8.87719V14.1307L22.1925 14.1315L0 36.3241L5.96121 42.2854C9.12996 41.6241 12.5589 42.5223 15.0182 44.9817C17.4776 47.4411 18.3758 50.87 17.7145 54.0387L23.6759 60L45.8684 37.8074L45.8692 32.5529H51.1227L60 23.6759ZM34.1498 23.3195L31.6639 20.8336L34.1498 18.3477L36.6357 20.8336L34.1498 23.3195ZM39.1664 28.3361L36.6805 25.8502L39.1664 23.3643L41.6523 25.8502L39.1664 28.3361Z" fill="#0593FC"/>
<path d="M60 23.6756L54.0388 17.7144C50.8701 18.3757 47.4412 17.4775 44.9819 15.0181L15.0183 44.9816C17.4777 47.441 18.376 50.8699 17.7147 54.0386L23.6759 59.9998L45.8684 37.8072L45.8692 32.5527H51.1227L60 23.6756ZM39.1664 28.3358L36.6805 25.8499L39.1664 23.364L41.6523 25.8499L39.1664 28.3358Z" fill="#0593FC"/>
<path d="M25.4739 28.8196L19.5329 25.1802L18.8689 32.4833L13.4664 37.0861L20.1308 39.8693L27.4754 36.9023L32.7292 27.2709L25.4739 28.8196Z" fill="#FFBC45"/>
<path d="M27.5168 41.1312L22.9139 46.5338L20.1308 39.8694L32.7292 27.271L31.1805 34.5263L34.82 40.4672L27.5168 41.1312Z" fill="#FFBC45"/>
</g>
<defs>
<clipPath id="clip0_284_8">
<rect width="60" height="60" fill="white"/>
</clipPath>
</defs>
</svg>
