<svg width="60" height="60" viewBox="0 0 60 60" fill="none" xmlns="http://www.w3.org/2000/svg">
<path d="M57.5 8.04084V23.8915C57.5 25.3067 56.9378 26.664 55.9371 27.6648C54.9363 28.6655 53.579 29.2277 52.1638 29.2277H49.2463V35.9521C49.2463 37.2777 47.6638 37.9633 46.6963 37.0571L38.3425 29.2277H26.9525C25.5373 29.2277 24.18 28.6655 23.1792 27.6648C22.1785 26.664 21.6163 25.3067 21.6163 23.8915V8.04084C21.6163 6.62558 22.1785 5.26828 23.1792 4.26754C24.18 3.2668 25.5373 2.70459 26.9525 2.70459H52.1638C53.579 2.70459 54.9363 3.2668 55.9371 4.26754C56.9378 5.26828 57.5 6.62558 57.5 8.04084Z" fill="#0593FC"/>
<path d="M38.3831 29.2553V43.7016C38.3846 44.4023 38.2477 45.0965 37.9801 45.7442C37.7126 46.3919 37.3197 46.9803 36.8241 47.4757C36.3285 47.9712 35.7399 48.3638 35.0921 48.6311C34.4444 48.8984 33.7502 49.0352 33.0494 49.0334H21.6669L13.3075 56.8872C12.335 57.7878 10.75 57.1028 10.75 55.7709V49.0334H7.83189C7.13126 49.035 6.43722 48.8982 5.78962 48.6308C5.14202 48.3634 4.55361 47.9707 4.05819 47.4753C3.56277 46.9798 3.17009 46.3914 2.90269 45.7438C2.63529 45.0962 2.49845 44.4022 2.50001 43.7016V27.8509C2.49845 27.1503 2.63529 26.4563 2.90269 25.8087C3.17009 25.1611 3.56277 24.5727 4.05819 24.0772C4.55361 23.5818 5.14202 23.1891 5.78962 22.9217C6.43722 22.6543 7.13126 22.5175 7.83189 22.5191H21.63V23.8878C21.6284 24.5884 21.7653 25.2825 22.0327 25.9301C22.3001 26.5777 22.6928 27.1661 23.1882 27.6615C23.6836 28.1569 24.272 28.5496 24.9196 28.817C25.5672 29.0844 26.2613 29.2212 26.9619 29.2197H38.3463L38.3831 29.2553Z" fill="#FFBC45"/>
<path d="M46.7631 14.0532H32.3531C31.3581 14.0532 30.5519 13.2476 30.5519 12.2519C30.5519 11.2563 31.3581 10.4507 32.3531 10.4507H46.7631C47.7581 10.4507 48.5644 11.2563 48.5644 12.2519C48.5644 13.2476 47.7581 14.0532 46.7631 14.0532ZM46.7631 21.2582H32.3531C31.3581 21.2582 30.5519 20.4526 30.5519 19.4569C30.5519 18.4613 31.3581 17.6557 32.3531 17.6557H46.7631C47.7581 17.6557 48.5644 18.4613 48.5644 19.4569C48.5644 20.4526 47.7581 21.2582 46.7631 21.2582Z" fill="#2D5DA3"/>
<path d="M13.9575 37.4879C13.705 37.4879 13.4887 37.4173 13.2731 37.3435C13.0629 37.2406 12.8687 37.108 12.6962 36.9498C12.5162 36.7666 12.3725 36.5873 12.3006 36.3729C12.1925 36.1548 12.1562 35.9048 12.1562 35.6516C12.1562 35.1835 12.3362 34.716 12.6962 34.3885C13.3456 33.706 14.5338 33.706 15.2181 34.3885C15.3981 34.5716 15.5425 34.751 15.615 34.9654C15.7231 35.1835 15.7594 35.4335 15.7594 35.6516C15.7594 35.9048 15.7231 36.1548 15.615 36.3729C15.5431 36.5873 15.3988 36.7666 15.2181 36.9498C14.8944 37.2729 14.4256 37.4879 13.9575 37.4879ZM21.1625 37.4879C20.91 37.4879 20.6938 37.4173 20.4781 37.3435C20.268 37.2406 20.0737 37.108 19.9012 36.9498C19.5412 36.6229 19.3613 36.1548 19.3613 35.6516C19.3613 35.4335 19.3975 35.1835 19.5056 34.9654C19.5775 34.751 19.7212 34.5716 19.9012 34.3885C20.0456 34.2091 20.2619 34.1035 20.4781 33.9948C21.1263 33.7416 21.955 33.886 22.4225 34.3885C22.7831 34.7154 22.9631 35.1835 22.9631 35.6516C22.9631 36.1548 22.7831 36.6229 22.4225 36.9498C22.2794 37.0904 22.0625 37.2348 21.8462 37.3435C21.6306 37.4173 21.415 37.4879 21.1625 37.4879ZM28.3675 37.4879C27.8988 37.4879 27.4306 37.2735 27.1062 36.9498C26.7463 36.6229 26.5663 36.1548 26.5663 35.6516C26.5663 35.1835 26.7463 34.716 27.1062 34.3885C27.7556 33.706 28.9794 33.706 29.6281 34.3885C29.8081 34.5716 29.9525 34.751 30.025 34.9654C30.1331 35.1835 30.1694 35.4335 30.1694 35.6516C30.1694 36.1548 29.9894 36.6229 29.6287 36.9498C29.3044 37.2729 28.8356 37.4879 28.3675 37.4879Z" fill="#9B7B15"/>
<path d="M13.9569 15.8545H10.3544C9.35941 15.8545 8.55316 15.0488 8.55316 14.0532C8.55316 13.0576 9.35941 12.252 10.3544 12.252H13.9569C14.1935 12.252 14.4277 12.2985 14.6462 12.3891C14.8648 12.4796 15.0633 12.6123 15.2306 12.7795C15.3978 12.9468 15.5305 13.1454 15.621 13.3639C15.7116 13.5824 15.7582 13.8167 15.7582 14.0532C15.7582 14.2897 15.7116 14.524 15.621 14.7425C15.5305 14.961 15.3978 15.1596 15.2306 15.3269C15.0633 15.4941 14.8648 15.6268 14.6462 15.7173C14.4277 15.8079 14.1935 15.8545 13.9569 15.8545ZM49.9819 48.2776H46.3794C45.3844 48.2776 44.5782 47.472 44.5782 46.4763C44.5782 45.4807 45.3844 44.6751 46.3794 44.6751H49.9819C50.9769 44.6751 51.7832 45.4807 51.7832 46.4763C51.7832 47.472 50.9769 48.2776 49.9819 48.2776Z" fill="#E07B2F"/>
</svg>
