<svg width="60" height="60" viewBox="0 0 60 60" fill="none" xmlns="http://www.w3.org/2000/svg">
<g clip-path="url(#clip0_103_1460)">
<path d="M18.227 1.32069e-09C27.7793 -0.000117186 35.5369 7.79848 35.4888 17.3507C35.467 21.6865 33.8462 25.6439 31.1864 28.6644C30.9312 28.9542 30.8673 29.3675 31.0349 29.7155C31.7079 31.1136 32.4696 32.1679 32.9843 32.8C33.2693 33.1499 33.0572 33.677 32.6098 33.7362C30.6169 33.9995 28.1958 32.9998 27.1515 32.5064C27.0165 32.4427 26.8685 32.4114 26.7192 32.415C26.57 32.4186 26.4236 32.4569 26.2918 32.527C23.9473 33.7684 21.2829 34.4861 18.454 34.5225C9.04523 34.6437 1.08703 26.8966 0.966676 17.4878C0.843512 7.85086 8.61844 0.000117189 18.227 1.32069e-09Z" fill="#F3722C"/>
<path d="M32.9837 32.7997C33.2688 33.1499 33.0574 33.6771 32.6101 33.7361C31.659 33.8614 30.6121 33.6991 29.6623 33.4424C29.7028 33.4387 29.7434 33.4338 29.7839 33.4289C30.2312 33.37 30.4425 32.8427 30.1575 32.4926C29.6439 31.8609 28.882 30.8067 28.2087 29.4083C28.0416 29.0606 28.1054 28.6465 28.3598 28.3564C31.0201 25.3361 32.6409 21.3793 32.6631 17.043C32.7049 8.6148 26.6702 1.55051 18.6868 0.00585938C28.0281 0.251602 35.5359 7.95246 35.4893 17.3502C35.4671 21.6866 33.8464 25.6433 31.186 28.6636C30.9318 28.9536 30.8678 29.3677 31.0349 29.7155C31.7082 31.1139 32.4701 32.1682 32.9837 32.7997Z" fill="#F33E0D"/>
<path d="M27.1629 19.5891C28.4528 19.5891 29.4984 18.5434 29.4984 17.2535C29.4984 15.9636 28.4528 14.918 27.1629 14.918C25.873 14.918 24.8273 15.9636 24.8273 17.2535C24.8273 18.5434 25.873 19.5891 27.1629 19.5891Z" fill="#FFEEE7"/>
<path d="M18.2271 19.5891C19.517 19.5891 20.5626 18.5434 20.5626 17.2535C20.5626 15.9636 19.517 14.918 18.2271 14.918C16.9372 14.918 15.8916 15.9636 15.8916 17.2535C15.8916 18.5434 16.9372 19.5891 18.2271 19.5891Z" fill="#FFEEE7"/>
<path d="M9.29144 19.5891C10.5813 19.5891 11.627 18.5434 11.627 17.2535C11.627 15.9636 10.5813 14.918 9.29144 14.918C8.00155 14.918 6.95589 15.9636 6.95589 17.2535C6.95589 18.5434 8.00155 19.5891 9.29144 19.5891Z" fill="#FFEEE7"/>
<path d="M57.9224 12.2797C56.9964 10.0675 55.5298 8.07973 53.636 6.60668C51.5797 5.00731 48.6382 3.20285 45.9559 4.37895C45.2159 4.70344 44.6143 5.22387 44.1478 5.86606C43.8275 6.302 43.5707 6.7977 43.371 7.34391C43.3282 7.45993 41.5796 12.9988 40.9311 15.6961C40.4974 17.5021 40.8258 18.7481 41.9802 19.7331C42.3411 20.0413 42.782 20.3241 43.3069 20.5903C44.5488 21.2201 45.8389 21.7488 47.1334 22.2713L47.6749 22.4896L49.196 23.0661L48.6366 24.6627C45.6389 33.0563 40.9377 40.3458 34.5032 46.512L33.4501 47.6406L32.1173 46.3741C31.1096 45.3056 30.1291 44.1827 28.9818 43.2807C26.9585 41.69 25.3675 41.5973 23.3207 43.1443C20.9157 44.9619 18.5427 46.8689 16.421 49.001C14.0767 51.357 14.2404 53.6125 16.5391 56.0216C18.5299 58.108 20.9973 59.3101 23.8198 59.8208C27.4603 60.4795 31.5929 59.2406 34.7767 57.387C37.5346 55.7811 40.0389 53.9776 42.3066 51.9918L45.4833 48.9311C51.154 42.921 55.061 35.5618 57.5743 27.1915C58.9725 22.5346 59.8459 16.8751 57.9224 12.2797Z" fill="#F9C74F"/>
<path d="M49.196 23.0663C51.0015 17.8434 52.6087 12.3549 53.9754 6.87967C53.8641 6.78652 53.7509 6.69561 53.636 6.60698C51.7855 5.1767 49.299 3.62737 46.8602 4.09682C44.978 4.45835 43.7951 5.94264 43.2511 7.69635C42.4297 10.3492 41.5798 12.9991 40.9311 15.6964C40.3618 18.0671 41.104 19.4736 43.3065 20.5899C44.721 21.3083 46.2021 21.8965 47.6752 22.4896L49.196 23.0663ZM33.45 47.6409C31.5974 49.5331 29.6466 51.382 27.6206 53.2113C25.38 55.2331 23.2503 57.0582 20.653 58.8819C19.1244 58.2239 17.7448 57.2851 16.5396 56.0212C14.2403 53.6125 14.077 51.3576 16.4207 49.0012C18.5423 46.8684 20.9162 44.9623 23.3202 43.1451C25.3673 41.5974 26.9578 41.691 28.9812 43.2815C30.1293 44.1837 31.1092 45.3065 32.1177 46.3736L33.45 47.6409Z" fill="#F9C74F"/>
<path d="M57.5744 27.1912C53.7122 40.0529 46.5608 50.526 34.7766 57.3868C31.5932 59.2413 27.4605 60.4797 23.8195 59.8208C20.9969 59.3104 18.5303 58.1085 16.5388 56.0214C15.5858 55.0219 14.9986 54.0488 14.8076 53.0844C14.8591 53.141 14.9132 53.1988 14.9673 53.2554C16.9588 55.3425 19.4256 56.5444 22.248 57.0548C25.8891 57.7137 30.0217 56.4752 33.2051 54.6209C44.9893 47.76 52.1406 37.2871 56.003 24.4253C57.401 19.7684 58.2749 14.1095 56.3512 9.51422C56.3261 9.45516 56.301 9.39609 56.2746 9.33691C56.917 10.2158 57.469 11.1952 57.9228 12.2802C59.8464 16.8755 58.9725 22.5345 57.5744 27.1912Z" fill="#D39E1C"/>
<path d="M22.248 57.0549C19.4255 56.5446 16.9588 55.3426 14.9673 53.2555C14.9134 53.1991 14.8602 53.1421 14.8076 53.0845L14.8113 53.0996C14.8201 53.1435 14.8289 53.1889 14.8403 53.2328C14.8905 53.4285 14.9565 53.62 15.0318 53.8074C15.1816 54.1804 15.3711 54.5361 15.5971 54.8685C15.817 55.1933 16.0617 55.5009 16.3237 55.7926C16.6011 56.1004 16.8946 56.3932 17.203 56.6699C17.7628 57.1736 18.3557 57.6249 18.9967 58.0205C19.4195 58.2816 19.8574 58.5175 20.308 58.7271C20.3973 58.7685 20.4865 58.81 20.5771 58.8478C20.6023 58.8603 20.6273 58.8704 20.6525 58.8817C21.4413 58.3282 22.2156 57.7543 22.9747 57.1606C22.7313 57.1343 22.4889 57.099 22.248 57.0549Z" fill="#D39E1C"/>
</g>
<defs>
<clipPath id="clip0_103_1460">
<rect width="60" height="60" fill="white"/>
</clipPath>
</defs>
</svg>
