<svg width="646" height="981" viewBox="0 0 646 981" fill="none" xmlns="http://www.w3.org/2000/svg">
<mask id="mask0_246_206" style="mask-type:alpha" maskUnits="userSpaceOnUse" x="0" y="0" width="646" height="981">
<rect x="0.00244141" width="645" height="981" fill="#D9D9D9"/>
</mask>
<g mask="url(#mask0_246_206)">
<g opacity="0.75">
<path d="M615.632 482.71C615.902 483.06 615.992 483.52 615.892 483.96L597.562 562.25C597.442 562.78 597.042 563.2 596.522 563.36L519.522 586.51C519.002 586.67 518.442 586.53 518.042 586.16L459.372 531.02C458.982 530.66 458.812 530.1 458.932 529.57L477.262 451.28C477.382 450.75 477.782 450.33 478.302 450.17L555.302 427.02C555.822 426.86 556.382 427 556.772 427.37L615.442 482.51C615.522 482.58 615.582 482.64 615.632 482.71ZM594.812 560.71L612.742 484.13L555.352 430.19L480.032 452.83L462.102 529.41L519.492 583.35L594.812 560.71Z" fill="url(#paint0_linear_246_206)"/>
<path d="M622.382 488.47C622.672 488.86 622.762 489.38 622.612 489.85L595.922 571.12C595.752 571.64 595.322 572.02 594.792 572.13L511.042 589.52C510.512 589.63 509.962 589.45 509.602 589.04L452.542 525.16C452.182 524.75 452.062 524.19 452.232 523.68L478.922 442.41C479.092 441.89 479.522 441.51 480.052 441.4L563.802 424.01C564.332 423.9 564.882 424.08 565.242 424.49L622.302 488.37C622.332 488.4 622.362 488.43 622.382 488.47ZM593.312 569.34L619.452 489.74L563.552 427.17L481.512 444.2L455.372 523.8L511.272 586.37L593.312 569.34Z" fill="url(#paint1_linear_246_206)"/>
<path d="M574.452 422.21L629.002 495.2C629.322 495.63 629.392 496.21 629.182 496.7L593.362 580.35C593.152 580.85 592.682 581.2 592.143 581.26L501.772 591.93C501.232 591.99 500.702 591.77 500.382 591.33L445.832 518.34C445.512 517.91 445.442 517.33 445.652 516.84L481.472 433.19C481.682 432.69 482.152 432.34 482.692 432.28L573.062 421.61C573.592 421.55 574.122 421.77 574.452 422.21ZM626.052 496.31L572.552 424.73L483.922 435.19L448.792 517.23L502.292 588.81L590.922 578.35L626.052 496.31Z" fill="url(#paint2_linear_246_206)"/>
<path d="M584.352 420.53C584.382 420.57 584.402 420.6 584.422 420.64L635.472 503.05C635.752 503.51 635.772 504.09 635.522 504.57L589.802 589.9C589.542 590.38 589.052 590.68 588.512 590.7L491.752 593.63C491.212 593.65 490.702 593.36 490.422 592.91L439.372 510.5C439.092 510.04 439.072 509.46 439.322 508.98L485.042 423.65C485.302 423.17 485.792 422.87 486.332 422.85L583.092 419.92C583.582 419.91 584.052 420.14 584.352 420.53ZM632.432 503.9L582.302 422.98L487.292 425.85L442.402 509.64L492.522 590.56L587.532 587.69L632.432 503.9Z" fill="url(#paint3_linear_246_206)"/>
<path d="M594.992 419.67C595.042 419.74 595.093 419.81 595.133 419.9L641.593 511.97C641.833 512.45 641.803 513.03 641.503 513.48L585.143 599.68C584.843 600.14 584.333 600.4 583.783 600.36L480.962 594.49C480.422 594.46 479.943 594.15 479.693 593.66L433.233 501.59C432.993 501.11 433.023 500.53 433.323 500.08L489.682 413.88C489.982 413.43 490.493 413.16 491.043 413.2L593.862 419.07C594.312 419.08 594.732 419.31 594.992 419.67ZM638.492 512.54L592.823 422.03L491.752 416.26L436.353 501L482.022 591.5L583.093 597.27L638.492 512.54Z" fill="url(#paint4_linear_246_206)"/>
<path d="M606.352 419.74C606.432 419.84 606.492 419.96 606.542 420.09L647.242 521.97C647.442 522.47 647.362 523.04 647.022 523.47L579.302 609.59C578.962 610.02 578.432 610.23 577.892 610.15L469.472 594.39C468.932 594.31 468.482 593.96 468.282 593.45L427.582 491.57C427.382 491.07 427.462 490.5 427.802 490.07L495.522 403.95C495.862 403.52 496.392 403.31 496.932 403.39L605.352 419.15C605.762 419.21 606.122 419.42 606.352 419.74ZM644.102 522.27L604.052 422.02L497.362 406.52L430.722 491.27L470.772 591.52L577.462 607.02L644.102 522.27Z" fill="url(#paint5_linear_246_206)"/>
<path d="M618.392 420.87C618.492 421.01 618.572 421.17 618.632 421.34L652.322 533.08C652.482 533.6 652.342 534.16 651.972 534.56L572.212 619.55C571.842 619.95 571.282 620.11 570.762 619.99L457.322 593.24C456.792 593.11 456.372 592.72 456.222 592.2L422.532 480.46C422.372 479.94 422.512 479.38 422.882 478.98L502.642 393.99C503.012 393.59 503.572 393.43 504.092 393.55L617.532 420.3C617.872 420.38 618.182 420.59 618.392 420.87ZM649.152 533.12L615.972 423.05L504.242 396.7L425.682 480.41L458.862 590.48L570.602 616.83L649.152 533.12Z" fill="url(#paint6_linear_246_206)"/>
<path d="M631.042 423.18C631.172 423.35 631.262 423.56 631.312 423.78L656.652 545.33C656.762 545.86 656.582 546.41 656.182 546.77L563.772 629.45C563.372 629.81 562.802 629.93 562.282 629.76L444.542 590.89C444.032 590.72 443.642 590.29 443.532 589.76L418.192 468.21C418.082 467.68 418.262 467.13 418.662 466.77L511.072 384.09C511.472 383.73 512.042 383.61 512.562 383.78L630.302 422.65C630.602 422.75 630.852 422.94 631.042 423.18ZM653.502 545.09L628.522 425.26L512.442 386.94L421.342 468.45L446.322 588.28L562.402 626.6L653.502 545.09Z" fill="url(#paint7_linear_246_206)"/>
<path d="M644.232 426.81C644.392 427.02 644.492 427.27 644.522 427.54L660.102 558.7C660.162 559.24 659.942 559.77 659.502 560.09L553.912 639.14C553.482 639.47 552.902 639.53 552.402 639.32L431.222 587.21C430.722 587 430.382 586.53 430.312 586L414.732 454.84C414.672 454.3 414.892 453.77 415.332 453.45L520.922 374.4C521.362 374.07 521.932 374.01 522.432 374.22L643.612 426.33C643.862 426.43 644.072 426.6 644.232 426.81ZM656.982 558.19L641.602 428.77L522.032 377.35L417.842 455.35L433.222 584.77L552.792 636.19L656.982 558.19Z" fill="url(#paint8_linear_246_206)"/>
<path d="M657.872 431.87C658.052 432.12 658.162 432.41 658.172 432.73L662.522 573.18C662.542 573.72 662.262 574.23 661.802 574.52L542.562 648.51C542.102 648.8 541.522 648.81 541.042 648.56L417.452 582.1C416.972 581.84 416.672 581.35 416.652 580.81L412.302 440.36C412.282 439.82 412.562 439.31 413.022 439.02L532.262 365.03C532.722 364.74 533.302 364.73 533.782 364.98L657.372 431.44C657.572 431.55 657.742 431.7 657.872 431.87ZM659.462 572.4L655.162 433.7L533.112 368.07L415.362 441.13L419.662 579.83L541.712 645.46L659.462 572.4Z" fill="url(#paint9_linear_246_206)"/>
<path d="M671.862 438.51C672.072 438.79 672.182 439.14 672.162 439.5L663.753 588.75C663.723 589.29 663.402 589.77 662.922 590.02L529.692 657.38C529.212 657.62 528.632 657.59 528.172 657.29L403.353 575.4C402.903 575.11 402.643 574.59 402.673 574.05L411.082 424.8C411.112 424.26 411.432 423.78 411.912 423.53L545.143 356.18C545.622 355.94 546.202 355.97 546.662 356.27L671.482 438.16C671.622 438.24 671.753 438.37 671.862 438.51ZM660.773 587.7L669.083 440.2L545.732 359.27L414.073 425.83L405.763 573.33L529.112 654.26L660.773 587.7Z" fill="url(#paint10_linear_246_206)"/>
<path d="M686.072 446.83C686.312 447.15 686.412 447.55 686.362 447.95L663.602 605.35C663.522 605.89 663.172 606.34 662.662 606.54L515.222 665.57C514.722 665.77 514.142 665.69 513.722 665.35L389.032 566.99C388.612 566.65 388.392 566.12 388.472 565.58L411.222 408.19C411.302 407.65 411.652 407.2 412.162 407L559.602 347.97C560.102 347.77 560.682 347.85 561.102 348.19L685.792 446.55C685.892 446.63 685.992 446.73 686.072 446.83ZM660.732 604.05L683.232 448.39L559.922 351.11L414.112 409.49L391.612 565.15L514.922 662.43L660.732 604.05Z" fill="url(#paint11_linear_246_206)"/>
<path d="M700.352 456.97C700.622 457.33 700.722 457.78 700.612 458.23L661.912 622.92C661.792 623.45 661.392 623.87 660.872 624.03L499.152 672.92C498.632 673.08 498.072 672.94 497.672 672.57L374.652 556.77C374.262 556.4 374.092 555.85 374.212 555.32L412.912 390.63C413.032 390.1 413.432 389.68 413.952 389.52L575.672 340.63C576.192 340.47 576.752 340.61 577.152 340.98L700.172 456.78C700.242 456.84 700.302 456.9 700.352 456.97ZM659.162 621.37L697.462 458.38L575.712 343.78L415.672 392.16L377.372 555.15L499.122 669.75L659.162 621.37Z" fill="url(#paint12_linear_246_206)"/>
<path d="M714.552 469.04C714.842 469.43 714.932 469.95 714.783 470.42L658.502 641.37C658.332 641.88 657.902 642.27 657.372 642.38L481.442 679.2C480.912 679.31 480.362 679.13 480.002 678.72L360.362 544.6C360.012 544.2 359.882 543.63 360.052 543.12L416.332 372.17C416.502 371.66 416.932 371.27 417.462 371.16L593.382 334.34C593.912 334.23 594.462 334.41 594.822 334.82L714.462 468.95C714.503 468.98 714.532 469.01 714.552 469.04ZM655.892 639.59L711.632 470.31L593.152 337.49L418.942 373.95L363.202 543.23L481.672 676.05L655.892 639.59Z" fill="url(#paint13_linear_246_206)"/>
<path d="M614.132 329.91L728.492 483.15C728.812 483.58 728.882 484.16 728.672 484.66L653.172 660.61C652.962 661.11 652.492 661.45 651.962 661.52L462.102 684.22C461.562 684.28 461.032 684.06 460.712 683.62L346.352 530.38C346.032 529.95 345.962 529.37 346.172 528.87L421.672 352.92C421.882 352.42 422.352 352.08 422.882 352.01L612.732 329.3C613.272 329.25 613.802 329.48 614.132 329.91ZM725.533 484.27L612.222 332.43L424.112 354.93L349.302 529.27L462.612 681.11L650.722 658.61L725.533 484.27Z" fill="url(#paint14_linear_246_206)"/>
<path d="M634.962 326.4C634.992 326.44 635.012 326.47 635.042 326.51L742.022 499.52C742.302 499.98 742.322 500.56 742.072 501.04L645.742 680.51C645.482 680.99 644.992 681.29 644.452 681.31L441.142 687.77C440.602 687.79 440.082 687.49 439.802 687.05L332.822 514.05C332.532 513.59 332.522 513.01 332.772 512.53L429.102 333.06C429.362 332.58 429.852 332.28 430.392 332.26L633.702 325.8C634.192 325.77 634.662 326 634.962 326.4ZM738.972 500.36L632.912 328.85L431.352 335.26L335.852 513.18L441.912 684.7L643.472 678.3L738.972 500.36Z" fill="url(#paint15_linear_246_206)"/>
<path d="M657.362 324.6C657.412 324.67 657.462 324.75 657.502 324.83L754.842 518.1C755.082 518.58 755.052 519.16 754.752 519.61L636.022 700.87C635.722 701.32 635.212 701.58 634.672 701.55L418.612 689.55C418.072 689.52 417.592 689.21 417.342 688.72L320.002 495.45C319.762 494.97 319.792 494.39 320.092 493.94L438.812 312.68C439.112 312.23 439.622 311.97 440.162 312L656.222 324C656.682 324.02 657.092 324.24 657.362 324.6ZM751.732 518.67L655.182 326.97L440.872 315.06L323.102 494.86L419.652 686.56L633.962 698.47L751.732 518.67Z" fill="url(#paint16_linear_246_206)"/>
<path d="M681.263 324.77C681.342 324.88 681.403 324.99 681.453 325.12L766.693 538.97C766.893 539.47 766.812 540.04 766.472 540.47L623.843 721.55C623.513 721.98 622.973 722.19 622.432 722.11L394.572 689.36C394.032 689.28 393.582 688.92 393.382 688.42L308.143 474.57C307.943 474.07 308.022 473.5 308.362 473.07L450.992 291.98C451.322 291.55 451.862 291.34 452.402 291.42L680.263 324.17C680.663 324.23 681.023 324.45 681.263 324.77ZM763.552 539.27L678.963 327.05L452.832 294.55L311.282 474.27L395.872 686.49L622.003 718.99L763.552 539.27Z" fill="url(#paint17_linear_246_206)"/>
<path d="M706.583 327.17C706.683 327.31 706.773 327.47 706.823 327.64L777.323 562.17C777.473 562.69 777.342 563.25 776.972 563.64L609.033 742.34C608.663 742.73 608.113 742.9 607.583 742.78L369.132 686.94C368.603 686.82 368.182 686.42 368.022 685.9L297.522 451.37C297.372 450.85 297.502 450.29 297.872 449.9L465.812 271.2C466.182 270.81 466.733 270.64 467.263 270.76L705.713 326.6C706.063 326.68 706.373 326.89 706.583 327.17ZM774.162 562.21L704.162 329.35L467.423 273.91L300.673 451.33L370.673 684.19L607.412 739.63L774.162 562.21Z" fill="url(#paint18_linear_246_206)"/>
<path d="M733.192 332.06C733.322 332.23 733.412 332.44 733.462 332.66L786.432 587.75C786.542 588.28 786.362 588.83 785.962 589.19L591.402 762.99C591.002 763.35 590.432 763.47 589.922 763.3L342.392 682.01C341.882 681.84 341.492 681.41 341.382 680.88L288.402 425.79C288.292 425.26 288.472 424.71 288.872 424.35L483.422 250.55C483.822 250.19 484.392 250.07 484.902 250.24L732.432 331.53C732.742 331.62 733.002 331.81 733.192 332.06ZM783.282 587.51L730.662 334.14L484.802 253.39L291.552 426.03L344.172 679.4L590.032 760.14L783.282 587.51Z" fill="url(#paint19_linear_246_206)"/>
<path d="M760.932 339.71C761.092 339.92 761.192 340.17 761.222 340.44L793.712 615.69C793.772 616.23 793.552 616.76 793.112 617.08L570.812 783.24C570.382 783.56 569.802 783.63 569.302 783.42L314.512 674.32C314.012 674.1 313.662 673.64 313.602 673.1L281.112 397.85C281.052 397.31 281.282 396.78 281.712 396.46L504.012 230.3C504.442 229.98 505.022 229.91 505.522 230.12L760.312 339.22C760.562 339.33 760.772 339.5 760.932 339.71ZM790.602 615.18L758.322 341.67L505.142 233.26L284.242 398.37L316.522 671.88L569.702 780.28L790.602 615.18Z" fill="url(#paint20_linear_246_206)"/>
<path d="M789.632 350.38C789.812 350.63 789.922 350.93 789.932 351.24L798.842 645.96C798.862 646.5 798.582 647.01 798.122 647.29L547.122 802.77C546.662 803.06 546.082 803.07 545.602 802.82L285.702 663.58C285.222 663.32 284.922 662.83 284.902 662.29L275.992 367.57C275.972 367.03 276.252 366.52 276.712 366.23L527.712 210.75C528.173 210.46 528.752 210.45 529.232 210.7L789.142 349.94C789.332 350.06 789.502 350.21 789.632 350.38ZM795.782 645.18L786.922 352.21L528.562 213.8L279.052 368.36L287.912 661.33L546.272 799.74L795.782 645.18Z" fill="url(#paint21_linear_246_206)"/>
<path d="M819.052 364.36C819.262 364.64 819.372 364.99 819.352 365.35L801.472 678.52C801.442 679.06 801.122 679.54 800.642 679.79L520.222 821.29C519.742 821.53 519.162 821.5 518.712 821.21L256.172 649.54C255.722 649.24 255.452 648.73 255.492 648.18L273.372 335.01C273.402 334.47 273.722 333.99 274.202 333.74L554.622 192.24C555.102 192 555.682 192.03 556.132 192.32L818.662 364C818.812 364.1 818.942 364.22 819.052 364.36ZM798.482 677.48L816.262 366.06L555.202 195.35L276.352 336.06L258.572 647.48L519.642 818.19L798.482 677.48Z" fill="url(#paint22_linear_246_206)"/>
<path d="M848.932 381.9C849.172 382.22 849.272 382.62 849.222 383.03L801.232 713.26C801.152 713.8 800.792 714.25 800.292 714.45L489.992 838.41C489.492 838.61 488.922 838.53 488.492 838.19L226.182 631.92C225.762 631.59 225.542 631.05 225.622 630.51L273.612 300.28C273.692 299.74 274.052 299.29 274.552 299.09L584.852 175.13C585.352 174.93 585.922 175.01 586.352 175.35L848.662 381.62C848.762 381.7 848.852 381.8 848.932 381.9ZM798.352 711.95L846.092 383.46L585.162 178.27L276.482 301.58L228.742 630.07L489.672 835.26L798.352 711.95Z" fill="url(#paint23_linear_246_206)"/>
<path d="M878.972 403.26C879.242 403.62 879.342 404.07 879.232 404.52L797.752 750.04C797.632 750.57 797.232 750.99 796.712 751.14L456.372 853.74C455.852 853.9 455.292 853.76 454.892 853.39L196.042 610.47C195.642 610.1 195.482 609.54 195.602 609.02L277.082 263.5C277.202 262.97 277.602 262.55 278.122 262.4L618.462 159.8C618.982 159.64 619.542 159.78 619.932 160.15L878.802 403.06C878.862 403.13 878.922 403.19 878.972 403.26ZM795.012 748.49L876.082 404.67L618.492 162.95L279.822 265.05L198.752 608.87L456.342 850.59L795.012 748.49Z" fill="url(#paint24_linear_246_206)"/>
<path d="M908.832 428.69C909.132 429.09 909.212 429.6 909.062 430.07L790.672 788.69C790.502 789.2 790.072 789.59 789.542 789.7L419.342 866.88C418.812 866.99 418.262 866.81 417.902 866.41L166.082 584.96C165.722 584.56 165.602 583.99 165.772 583.47L284.152 224.85C284.322 224.33 284.752 223.95 285.282 223.84L655.482 146.66C656.012 146.55 656.562 146.73 656.922 147.13L908.742 428.58C908.782 428.62 908.812 428.65 908.832 428.69ZM788.072 786.91L905.902 429.95L655.252 149.81L286.762 226.63L168.932 583.59L419.582 863.73L788.072 786.91Z" fill="url(#paint25_linear_246_206)"/>
<path d="M938.122 458.4C938.442 458.83 938.512 459.41 938.302 459.91L779.592 828.99C779.382 829.49 778.912 829.83 778.382 829.9L378.892 877.37C378.352 877.43 377.822 877.2 377.502 876.77L136.712 555.14C136.392 554.71 136.322 554.13 136.532 553.63L295.242 184.55C295.452 184.05 295.922 183.71 296.452 183.64L695.942 136.17C696.482 136.11 697.012 136.33 697.332 136.77L938.122 458.4ZM777.152 826.99L935.172 459.52L695.442 139.29L297.692 186.55L139.672 554.03L379.402 874.25L777.152 826.99Z" fill="url(#paint26_linear_246_206)"/>
<path d="M741.052 129.43C741.082 129.46 741.102 129.5 741.122 129.54L966.472 492.71C966.762 493.17 966.772 493.75 966.522 494.23L764.102 870.66C763.842 871.14 763.352 871.44 762.812 871.46L335.042 884.72C334.502 884.74 334.002 884.47 333.702 884L108.362 520.83C108.072 520.37 108.062 519.79 108.312 519.31L310.732 142.88C310.992 142.4 311.482 142.1 312.022 142.08L739.792 128.82C740.292 128.81 740.762 129.04 741.052 129.43ZM963.442 493.56L739.012 131.88L312.992 145.09L111.392 519.98L335.822 881.66L761.842 868.45L963.442 493.56Z" fill="url(#paint27_linear_246_206)"/>
<path d="M788.052 125.69C788.102 125.76 788.152 125.83 788.192 125.91L993.342 531.69C993.592 532.17 993.552 532.75 993.262 533.21L743.832 913.38C743.532 913.83 743.022 914.09 742.482 914.06L287.912 888.45C287.372 888.42 286.882 888.1 286.642 887.62L81.4924 481.85C81.2424 481.37 81.2824 480.79 81.5724 480.33L331.002 100.16C331.302 99.7098 331.812 99.4498 332.352 99.4798L786.922 125.09C787.382 125.11 787.792 125.34 788.052 125.69ZM990.242 532.28L785.882 128.07L333.052 102.56L84.5924 481.26L288.952 885.47L741.782 910.98L990.242 532.28Z" fill="url(#paint28_linear_246_206)"/>
<path d="M838.222 126.09C838.302 126.19 838.362 126.31 838.412 126.43L1018.2 575.49C1018.4 575.99 1018.32 576.57 1017.98 576.99L718.403 956.76C718.062 957.19 717.532 957.4 716.992 957.32L237.612 888.03C237.072 887.95 236.622 887.59 236.422 887.09L56.6325 438.05C56.4325 437.55 56.5125 436.97 56.8525 436.55L356.442 56.7797C356.772 56.3497 357.312 56.1397 357.852 56.2197L837.232 125.51C837.622 125.56 837.982 125.77 838.222 126.09ZM1015.06 575.81L835.922 128.38L358.282 59.3497L59.7725 437.73L238.912 885.16L716.552 954.19L1015.06 575.81Z" fill="url(#paint29_linear_246_206)"/>
<path d="M891.343 131.17C891.443 131.31 891.533 131.47 891.583 131.64L1040.48 624.21C1040.64 624.73 1040.51 625.29 1040.13 625.69L687.422 1000.39C687.052 1000.78 686.503 1000.95 685.972 1000.83L184.363 882.94C183.833 882.81 183.412 882.42 183.262 881.9L34.3525 389.33C34.1925 388.81 34.3325 388.25 34.7025 387.85L387.413 13.1598C387.783 12.7698 388.332 12.5998 388.862 12.7198L890.472 130.6C890.822 130.68 891.133 130.89 891.343 131.17ZM1037.32 624.24L888.922 133.35L389.022 15.8798L37.5125 389.3L185.913 880.19L685.823 997.66L1037.32 624.24Z" fill="url(#paint30_linear_246_206)"/>
<path d="M947.162 141.47C947.292 141.64 947.383 141.85 947.432 142.07L1059.57 677.89C1059.68 678.42 1059.5 678.97 1059.1 679.33L650.573 1043.72C650.172 1044.08 649.603 1044.2 649.093 1044.03L128.413 872.6C127.903 872.43 127.513 872 127.403 871.47L15.2625 335.65C15.1525 335.12 15.3325 334.57 15.7325 334.21L424.272 -30.1902C424.672 -30.5502 425.242 -30.6702 425.753 -30.5002L946.422 140.93C946.722 141.04 946.982 141.22 947.162 141.47ZM1056.42 677.65L944.643 143.54L425.643 -27.3402L18.4125 335.89L130.193 870L649.203 1040.88L1056.42 677.65Z" fill="url(#paint31_linear_246_206)"/>
<path d="M1005.37 157.56C1005.53 157.77 1005.63 158.02 1005.66 158.29L1074.82 736.54C1074.89 737.08 1074.66 737.61 1074.22 737.94L607.482 1086.24C607.052 1086.56 606.472 1086.63 605.982 1086.42L70.0824 856.46C69.5824 856.25 69.2424 855.78 69.1724 855.25L0.0123968 277C-0.0576032 276.46 0.172397 275.93 0.612397 275.6L467.352 -72.7002C467.782 -73.0202 468.362 -73.0902 468.862 -72.8802L1004.76 157.07C1005 157.18 1005.21 157.35 1005.37 157.56ZM1071.7 736.03L1002.75 159.52L468.462 -69.7402L3.1324 277.51L72.0824 854.02L606.372 1083.28L1071.7 736.03Z" fill="url(#paint32_linear_246_206)"/>
</g>
</g>
<defs>
<linearGradient id="paint0_linear_246_206" x1="478.838" y1="523.935" x2="578.471" y2="467.864" gradientUnits="userSpaceOnUse">
<stop stop-color="#F4EFE0" stop-opacity="0.8"/>
<stop offset="0.401768" stop-color="#F1F4EB" stop-opacity="0.8"/>
<stop offset="1" stop-color="#E2ECDC" stop-opacity="0.9"/>
</linearGradient>
<linearGradient id="paint1_linear_246_206" x1="473.813" y1="524.575" x2="579.565" y2="462.272" gradientUnits="userSpaceOnUse">
<stop stop-color="#F4EFE0" stop-opacity="0.8"/>
<stop offset="0.401768" stop-color="#F1F4EB" stop-opacity="0.8"/>
<stop offset="1" stop-color="#E2ECDC" stop-opacity="0.9"/>
</linearGradient>
<linearGradient id="paint2_linear_246_206" x1="468.871" y1="525.093" x2="580.049" y2="456.482" gradientUnits="userSpaceOnUse">
<stop stop-color="#F4EFE0" stop-opacity="0.8"/>
<stop offset="0.401768" stop-color="#F1F4EB" stop-opacity="0.8"/>
<stop offset="1" stop-color="#E2ECDC" stop-opacity="0.9"/>
</linearGradient>
<linearGradient id="paint3_linear_246_206" x1="464.109" y1="525.461" x2="579.829" y2="450.563" gradientUnits="userSpaceOnUse">
<stop stop-color="#F4EFE0" stop-opacity="0.8"/>
<stop offset="0.401768" stop-color="#F1F4EB" stop-opacity="0.8"/>
<stop offset="1" stop-color="#E2ECDC" stop-opacity="0.9"/>
</linearGradient>
<linearGradient id="paint4_linear_246_206" x1="459.575" y1="526.913" x2="583.498" y2="447.878" gradientUnits="userSpaceOnUse">
<stop stop-color="#F4EFE0" stop-opacity="0.8"/>
<stop offset="0.401768" stop-color="#F1F4EB" stop-opacity="0.8"/>
<stop offset="1" stop-color="#E2ECDC" stop-opacity="0.9"/>
</linearGradient>
<linearGradient id="paint5_linear_246_206" x1="455.398" y1="529.014" x2="589.481" y2="447.463" gradientUnits="userSpaceOnUse">
<stop stop-color="#F4EFE0" stop-opacity="0.8"/>
<stop offset="0.401768" stop-color="#F1F4EB" stop-opacity="0.8"/>
<stop offset="1" stop-color="#E2ECDC" stop-opacity="0.9"/>
</linearGradient>
<linearGradient id="paint6_linear_246_206" x1="451.667" y1="531.136" x2="595.314" y2="447.731" gradientUnits="userSpaceOnUse">
<stop stop-color="#F4EFE0" stop-opacity="0.8"/>
<stop offset="0.401768" stop-color="#F1F4EB" stop-opacity="0.8"/>
<stop offset="1" stop-color="#E2ECDC" stop-opacity="0.9"/>
</linearGradient>
<linearGradient id="paint7_linear_246_206" x1="448.453" y1="533.246" x2="600.875" y2="448.751" gradientUnits="userSpaceOnUse">
<stop stop-color="#F4EFE0" stop-opacity="0.8"/>
<stop offset="0.401768" stop-color="#F1F4EB" stop-opacity="0.8"/>
<stop offset="1" stop-color="#E2ECDC" stop-opacity="0.9"/>
</linearGradient>
<linearGradient id="paint8_linear_246_206" x1="445.887" y1="535.312" x2="606.059" y2="450.58" gradientUnits="userSpaceOnUse">
<stop stop-color="#F4EFE0" stop-opacity="0.8"/>
<stop offset="0.401768" stop-color="#F1F4EB" stop-opacity="0.8"/>
<stop offset="1" stop-color="#E2ECDC" stop-opacity="0.9"/>
</linearGradient>
<linearGradient id="paint9_linear_246_206" x1="444.079" y1="537.313" x2="610.757" y2="453.289" gradientUnits="userSpaceOnUse">
<stop stop-color="#F4EFE0" stop-opacity="0.8"/>
<stop offset="0.401768" stop-color="#F1F4EB" stop-opacity="0.8"/>
<stop offset="1" stop-color="#E2ECDC" stop-opacity="0.9"/>
</linearGradient>
<linearGradient id="paint10_linear_246_206" x1="436.896" y1="539.214" x2="615.376" y2="447.962" gradientUnits="userSpaceOnUse">
<stop stop-color="#F4EFE0" stop-opacity="0.8"/>
<stop offset="0.401768" stop-color="#F1F4EB" stop-opacity="0.8"/>
<stop offset="1" stop-color="#E2ECDC" stop-opacity="0.9"/>
</linearGradient>
<linearGradient id="paint11_linear_246_206" x1="426.291" y1="540.957" x2="619.592" y2="437.306" gradientUnits="userSpaceOnUse">
<stop stop-color="#F4EFE0" stop-opacity="0.8"/>
<stop offset="0.401768" stop-color="#F1F4EB" stop-opacity="0.8"/>
<stop offset="1" stop-color="#E2ECDC" stop-opacity="0.9"/>
</linearGradient>
<linearGradient id="paint12_linear_246_206" x1="415.637" y1="542.533" x2="622.946" y2="426.065" gradientUnits="userSpaceOnUse">
<stop stop-color="#F4EFE0" stop-opacity="0.8"/>
<stop offset="0.401768" stop-color="#F1F4EB" stop-opacity="0.8"/>
<stop offset="1" stop-color="#E2ECDC" stop-opacity="0.9"/>
</linearGradient>
<linearGradient id="paint13_linear_246_206" x1="405.047" y1="543.873" x2="625.24" y2="414.282" gradientUnits="userSpaceOnUse">
<stop stop-color="#F4EFE0" stop-opacity="0.8"/>
<stop offset="0.401768" stop-color="#F1F4EB" stop-opacity="0.8"/>
<stop offset="1" stop-color="#E2ECDC" stop-opacity="0.9"/>
</linearGradient>
<linearGradient id="paint14_linear_246_206" x1="394.66" y1="544.941" x2="626.273" y2="402.074" gradientUnits="userSpaceOnUse">
<stop stop-color="#F4EFE0" stop-opacity="0.8"/>
<stop offset="0.401768" stop-color="#F1F4EB" stop-opacity="0.8"/>
<stop offset="1" stop-color="#E2ECDC" stop-opacity="0.9"/>
</linearGradient>
<linearGradient id="paint15_linear_246_206" x1="384.62" y1="545.721" x2="625.774" y2="389.603" gradientUnits="userSpaceOnUse">
<stop stop-color="#F4EFE0" stop-opacity="0.8"/>
<stop offset="0.401768" stop-color="#F1F4EB" stop-opacity="0.8"/>
<stop offset="1" stop-color="#E2ECDC" stop-opacity="0.9"/>
</linearGradient>
<linearGradient id="paint16_linear_246_206" x1="375.107" y1="548.679" x2="633.238" y2="383.734" gradientUnits="userSpaceOnUse">
<stop stop-color="#F4EFE0" stop-opacity="0.8"/>
<stop offset="0.401768" stop-color="#F1F4EB" stop-opacity="0.8"/>
<stop offset="1" stop-color="#E2ECDC" stop-opacity="0.9"/>
</linearGradient>
<linearGradient id="paint17_linear_246_206" x1="366.297" y1="553.097" x2="645.795" y2="382.807" gradientUnits="userSpaceOnUse">
<stop stop-color="#F4EFE0" stop-opacity="0.8"/>
<stop offset="0.401768" stop-color="#F1F4EB" stop-opacity="0.8"/>
<stop offset="1" stop-color="#E2ECDC" stop-opacity="0.9"/>
</linearGradient>
<linearGradient id="paint18_linear_246_206" x1="358.411" y1="557.553" x2="658.021" y2="383.326" gradientUnits="userSpaceOnUse">
<stop stop-color="#F4EFE0" stop-opacity="0.8"/>
<stop offset="0.401768" stop-color="#F1F4EB" stop-opacity="0.8"/>
<stop offset="1" stop-color="#E2ECDC" stop-opacity="0.9"/>
</linearGradient>
<linearGradient id="paint19_linear_246_206" x1="351.628" y1="561.975" x2="669.697" y2="385.391" gradientUnits="userSpaceOnUse">
<stop stop-color="#F4EFE0" stop-opacity="0.8"/>
<stop offset="0.401768" stop-color="#F1F4EB" stop-opacity="0.8"/>
<stop offset="1" stop-color="#E2ECDC" stop-opacity="0.9"/>
</linearGradient>
<linearGradient id="paint20_linear_246_206" x1="346.205" y1="566.313" x2="680.603" y2="389.169" gradientUnits="userSpaceOnUse">
<stop stop-color="#F4EFE0" stop-opacity="0.8"/>
<stop offset="0.401768" stop-color="#F1F4EB" stop-opacity="0.8"/>
<stop offset="1" stop-color="#E2ECDC" stop-opacity="0.9"/>
</linearGradient>
<linearGradient id="paint21_linear_246_206" x1="342.393" y1="570.492" x2="690.478" y2="394.776" gradientUnits="userSpaceOnUse">
<stop stop-color="#F4EFE0" stop-opacity="0.8"/>
<stop offset="0.401768" stop-color="#F1F4EB" stop-opacity="0.8"/>
<stop offset="1" stop-color="#E2ECDC" stop-opacity="0.9"/>
</linearGradient>
<linearGradient id="paint22_linear_246_206" x1="327.099" y1="574.465" x2="700.165" y2="383.273" gradientUnits="userSpaceOnUse">
<stop stop-color="#F4EFE0" stop-opacity="0.8"/>
<stop offset="0.401768" stop-color="#F1F4EB" stop-opacity="0.8"/>
<stop offset="1" stop-color="#E2ECDC" stop-opacity="0.9"/>
</linearGradient>
<linearGradient id="paint23_linear_246_206" x1="304.806" y1="578.141" x2="708.953" y2="360.849" gradientUnits="userSpaceOnUse">
<stop stop-color="#F4EFE0" stop-opacity="0.8"/>
<stop offset="0.401768" stop-color="#F1F4EB" stop-opacity="0.8"/>
<stop offset="1" stop-color="#E2ECDC" stop-opacity="0.9"/>
</linearGradient>
<linearGradient id="paint24_linear_246_206" x1="282.394" y1="581.43" x2="715.912" y2="337.146" gradientUnits="userSpaceOnUse">
<stop stop-color="#F4EFE0" stop-opacity="0.8"/>
<stop offset="0.401768" stop-color="#F1F4EB" stop-opacity="0.8"/>
<stop offset="1" stop-color="#E2ECDC" stop-opacity="0.9"/>
</linearGradient>
<linearGradient id="paint25_linear_246_206" x1="260.112" y1="584.25" x2="720.64" y2="312.346" gradientUnits="userSpaceOnUse">
<stop stop-color="#F4EFE0" stop-opacity="0.8"/>
<stop offset="0.401768" stop-color="#F1F4EB" stop-opacity="0.8"/>
<stop offset="1" stop-color="#E2ECDC" stop-opacity="0.9"/>
</linearGradient>
<linearGradient id="paint26_linear_246_206" x1="238.267" y1="586.502" x2="722.685" y2="286.674" gradientUnits="userSpaceOnUse">
<stop stop-color="#F4EFE0" stop-opacity="0.8"/>
<stop offset="0.401768" stop-color="#F1F4EB" stop-opacity="0.8"/>
<stop offset="1" stop-color="#E2ECDC" stop-opacity="0.9"/>
</linearGradient>
<linearGradient id="paint27_linear_246_206" x1="217.171" y1="588.081" x2="721.512" y2="260.401" gradientUnits="userSpaceOnUse">
<stop stop-color="#F4EFE0" stop-opacity="0.8"/>
<stop offset="0.401768" stop-color="#F1F4EB" stop-opacity="0.8"/>
<stop offset="1" stop-color="#E2ECDC" stop-opacity="0.9"/>
</linearGradient>
<linearGradient id="paint28_linear_246_206" x1="197.173" y1="594.394" x2="737.497" y2="248.282" gradientUnits="userSpaceOnUse">
<stop stop-color="#F4EFE0" stop-opacity="0.8"/>
<stop offset="0.401768" stop-color="#F1F4EB" stop-opacity="0.8"/>
<stop offset="1" stop-color="#E2ECDC" stop-opacity="0.9"/>
</linearGradient>
<linearGradient id="paint29_linear_246_206" x1="178.67" y1="603.704" x2="763.972" y2="246.36" gradientUnits="userSpaceOnUse">
<stop stop-color="#F4EFE0" stop-opacity="0.8"/>
<stop offset="0.401768" stop-color="#F1F4EB" stop-opacity="0.8"/>
<stop offset="1" stop-color="#E2ECDC" stop-opacity="0.9"/>
</linearGradient>
<linearGradient id="paint30_linear_246_206" x1="162.081" y1="613.073" x2="789.743" y2="247.464" gradientUnits="userSpaceOnUse">
<stop stop-color="#F4EFE0" stop-opacity="0.8"/>
<stop offset="0.401768" stop-color="#F1F4EB" stop-opacity="0.8"/>
<stop offset="1" stop-color="#E2ECDC" stop-opacity="0.9"/>
</linearGradient>
<linearGradient id="paint31_linear_246_206" x1="147.865" y1="622.367" x2="814.366" y2="251.862" gradientUnits="userSpaceOnUse">
<stop stop-color="#F4EFE0" stop-opacity="0.8"/>
<stop offset="0.401768" stop-color="#F1F4EB" stop-opacity="0.8"/>
<stop offset="1" stop-color="#E2ECDC" stop-opacity="0.9"/>
</linearGradient>
<linearGradient id="paint32_linear_246_206" x1="136.502" y1="631.5" x2="837.363" y2="259.875" gradientUnits="userSpaceOnUse">
<stop stop-color="#F4EFE0" stop-opacity="0.8"/>
<stop offset="0.401768" stop-color="#F1F4EB" stop-opacity="0.8"/>
<stop offset="1" stop-color="#E2ECDC" stop-opacity="0.9"/>
</linearGradient>
</defs>
</svg>
