<svg width="41" height="58" viewBox="0 0 41 58" fill="none" xmlns="http://www.w3.org/2000/svg">
<path d="M12.3978 4.11793L3.66996 31.5282C11.5308 21.3033 16.6376 13.7439 18.9087 5.781C19.3756 4.14382 18.4143 2.4822 16.8113 1.91696C14.9854 1.27313 12.9862 2.27011 12.3978 4.11793Z" fill="#F3722C"/>
<path d="M30.2921 10.4091L10.1056 38.1646C21.1634 31.3672 30.4828 21.7031 35.7814 14.1218C36.7333 12.76 36.4353 10.9117 35.1662 9.83338C33.6792 8.56994 31.4371 8.83477 30.2921 10.4091Z" fill="#F3722C"/>
<path d="M32.9294 34.6585L10.8897 47.8664C23.657 46.4277 29.7301 44.2699 36.3778 40.2374C37.7755 39.3896 38.2785 37.6084 37.5928 36.1157C36.7742 34.3336 34.6034 33.6553 32.9294 34.6585Z" fill="#F3722C"/>
</svg>
