<svg width="276" height="55" viewBox="0 0 276 55" fill="none" xmlns="http://www.w3.org/2000/svg">
<path d="M73.238 48V39.656H70.494V38.2H77.578V39.656H74.75V48H73.238ZM80.9879 48.14C80.2692 48.14 79.6252 47.9767 79.0559 47.65C78.4959 47.314 78.0526 46.8613 77.7259 46.292C77.3992 45.7133 77.2359 45.0553 77.2359 44.318C77.2359 43.5807 77.3992 42.9273 77.7259 42.358C78.0526 41.7793 78.4959 41.3267 79.0559 41C79.6252 40.664 80.2692 40.496 80.9879 40.496C81.6972 40.496 82.3319 40.664 82.8919 41C83.4612 41.3267 83.9092 41.7793 84.2359 42.358C84.5626 42.9273 84.7259 43.5807 84.7259 44.318C84.7259 45.0553 84.5626 45.7133 84.2359 46.292C83.9092 46.8613 83.4612 47.314 82.8919 47.65C82.3319 47.9767 81.6972 48.14 80.9879 48.14ZM80.9879 46.824C81.4266 46.824 81.8186 46.7167 82.1639 46.502C82.5092 46.278 82.7799 45.9793 82.9759 45.606C83.1719 45.2233 83.2652 44.794 83.2559 44.318C83.2652 43.8327 83.1719 43.4033 82.9759 43.03C82.7799 42.6473 82.5092 42.3487 82.1639 42.134C81.8186 41.9193 81.4266 41.812 80.9879 41.812C80.5492 41.812 80.1526 41.924 79.7979 42.148C79.4526 42.3627 79.1819 42.6613 78.9859 43.044C78.7899 43.4173 78.6966 43.842 78.7059 44.318C78.6966 44.794 78.7899 45.2233 78.9859 45.606C79.1819 45.9793 79.4526 46.278 79.7979 46.502C80.1526 46.7167 80.5492 46.824 80.9879 46.824ZM90.585 48V38.2H92.069L95.639 44.01L94.925 43.996L98.537 38.2H99.937V48H98.425V43.982C98.425 43.142 98.4437 42.386 98.481 41.714C98.5277 41.042 98.6023 40.3747 98.705 39.712L98.901 40.23L95.695 45.186H94.771L91.663 40.286L91.817 39.712C91.9197 40.3373 91.9897 40.9813 92.027 41.644C92.0737 42.2973 92.097 43.0767 92.097 43.982V48H90.585ZM105.149 48.14C104.542 48.14 103.987 47.972 103.483 47.636C102.988 47.3 102.591 46.8427 102.293 46.264C101.994 45.6853 101.845 45.032 101.845 44.304C101.845 43.5667 101.994 42.9133 102.293 42.344C102.601 41.7653 103.011 41.3127 103.525 40.986C104.047 40.6593 104.631 40.496 105.275 40.496C105.657 40.496 106.007 40.552 106.325 40.664C106.642 40.776 106.917 40.9347 107.151 41.14C107.393 41.336 107.589 41.5647 107.739 41.826C107.897 42.0873 107.995 42.3673 108.033 42.666L107.711 42.554V40.65H109.167V48H107.711V46.25L108.047 46.152C107.991 46.404 107.874 46.6513 107.697 46.894C107.529 47.1273 107.309 47.3373 107.039 47.524C106.777 47.7107 106.483 47.86 106.157 47.972C105.839 48.084 105.503 48.14 105.149 48.14ZM105.527 46.81C105.965 46.81 106.353 46.7027 106.689 46.488C107.025 46.2733 107.286 45.9793 107.473 45.606C107.669 45.2233 107.767 44.7893 107.767 44.304C107.767 43.828 107.669 43.4033 107.473 43.03C107.286 42.6567 107.025 42.3627 106.689 42.148C106.353 41.9333 105.965 41.826 105.527 41.826C105.097 41.826 104.715 41.9333 104.379 42.148C104.052 42.3627 103.791 42.6567 103.595 43.03C103.408 43.4033 103.315 43.828 103.315 44.304C103.315 44.7893 103.408 45.2233 103.595 45.606C103.791 45.9793 104.052 46.2733 104.379 46.488C104.715 46.7027 105.097 46.81 105.527 46.81ZM112.496 45.704L112.426 44.136L115.94 40.65H117.886L112.496 45.704ZM111.18 48V37.64H112.622V48H111.18ZM116.136 48L113.364 44.766L114.386 43.828L117.984 48H116.136ZM122.253 48.14C121.497 48.14 120.825 47.9813 120.237 47.664C119.658 47.3373 119.201 46.894 118.865 46.334C118.538 45.774 118.375 45.13 118.375 44.402C118.375 43.8233 118.468 43.296 118.655 42.82C118.841 42.344 119.098 41.9333 119.425 41.588C119.761 41.2333 120.157 40.9627 120.615 40.776C121.081 40.58 121.585 40.482 122.127 40.482C122.603 40.482 123.046 40.5753 123.457 40.762C123.867 40.9393 124.222 41.1867 124.521 41.504C124.829 41.8213 125.062 42.1993 125.221 42.638C125.389 43.0673 125.468 43.5387 125.459 44.052L125.445 44.668H119.439L119.117 43.52H124.199L123.989 43.758V43.422C123.961 43.114 123.858 42.8387 123.681 42.596C123.503 42.3533 123.279 42.162 123.009 42.022C122.738 41.882 122.444 41.812 122.127 41.812C121.623 41.812 121.198 41.91 120.853 42.106C120.507 42.2927 120.246 42.5727 120.069 42.946C119.891 43.31 119.803 43.7627 119.803 44.304C119.803 44.8173 119.91 45.2653 120.125 45.648C120.339 46.0213 120.643 46.3107 121.035 46.516C121.427 46.7213 121.879 46.824 122.393 46.824C122.757 46.824 123.093 46.7633 123.401 46.642C123.718 46.5207 124.059 46.3013 124.423 45.984L125.151 47.006C124.927 47.23 124.651 47.426 124.325 47.594C124.007 47.762 123.667 47.8973 123.303 48C122.948 48.0933 122.598 48.14 122.253 48.14ZM131.314 48V38.2H132.826V48H131.314ZM131.986 43.828V42.372H137.04V43.828H131.986ZM131.986 39.656V38.2H137.67V39.656H131.986ZM141.994 48.14C141.388 48.14 140.832 47.972 140.328 47.636C139.834 47.3 139.437 46.8427 139.138 46.264C138.84 45.6853 138.69 45.032 138.69 44.304C138.69 43.5667 138.84 42.9133 139.138 42.344C139.446 41.7653 139.857 41.3127 140.37 40.986C140.893 40.6593 141.476 40.496 142.12 40.496C142.503 40.496 142.853 40.552 143.17 40.664C143.488 40.776 143.763 40.9347 143.996 41.14C144.239 41.336 144.435 41.5647 144.584 41.826C144.743 42.0873 144.841 42.3673 144.878 42.666L144.556 42.554V40.65H146.012V48H144.556V46.25L144.892 46.152C144.836 46.404 144.72 46.6513 144.542 46.894C144.374 47.1273 144.155 47.3373 143.884 47.524C143.623 47.7107 143.329 47.86 143.002 47.972C142.685 48.084 142.349 48.14 141.994 48.14ZM142.372 46.81C142.811 46.81 143.198 46.7027 143.534 46.488C143.87 46.2733 144.132 45.9793 144.318 45.606C144.514 45.2233 144.612 44.7893 144.612 44.304C144.612 43.828 144.514 43.4033 144.318 43.03C144.132 42.6567 143.87 42.3627 143.534 42.148C143.198 41.9333 142.811 41.826 142.372 41.826C141.943 41.826 141.56 41.9333 141.224 42.148C140.898 42.3627 140.636 42.6567 140.44 43.03C140.254 43.4033 140.16 43.828 140.16 44.304C140.16 44.7893 140.254 45.2233 140.44 45.606C140.636 45.9793 140.898 46.2733 141.224 46.488C141.56 46.7027 141.943 46.81 142.372 46.81ZM150.476 48.14C149.86 48.14 149.304 48.0327 148.81 47.818C148.315 47.6033 147.904 47.286 147.578 46.866L148.558 46.026C148.838 46.3527 149.141 46.5907 149.468 46.74C149.804 46.88 150.182 46.95 150.602 46.95C150.77 46.95 150.924 46.9313 151.064 46.894C151.213 46.8473 151.339 46.782 151.442 46.698C151.554 46.614 151.638 46.516 151.694 46.404C151.75 46.2827 151.778 46.152 151.778 46.012C151.778 45.7693 151.689 45.5733 151.512 45.424C151.418 45.3587 151.269 45.2887 151.064 45.214C150.868 45.13 150.611 45.046 150.294 44.962C149.752 44.822 149.309 44.6633 148.964 44.486C148.618 44.3087 148.352 44.108 148.166 43.884C148.026 43.7067 147.923 43.5153 147.858 43.31C147.792 43.0953 147.76 42.862 147.76 42.61C147.76 42.302 147.825 42.022 147.956 41.77C148.096 41.5087 148.282 41.2847 148.516 41.098C148.758 40.902 149.038 40.7527 149.356 40.65C149.682 40.5473 150.028 40.496 150.392 40.496C150.737 40.496 151.078 40.5427 151.414 40.636C151.759 40.7293 152.076 40.8647 152.366 41.042C152.655 41.2193 152.898 41.4293 153.094 41.672L152.268 42.582C152.09 42.4047 151.894 42.2507 151.68 42.12C151.474 41.98 151.264 41.8727 151.05 41.798C150.835 41.7233 150.639 41.686 150.462 41.686C150.266 41.686 150.088 41.7047 149.93 41.742C149.771 41.7793 149.636 41.8353 149.524 41.91C149.421 41.9847 149.342 42.078 149.286 42.19C149.23 42.302 149.202 42.428 149.202 42.568C149.211 42.6893 149.239 42.806 149.286 42.918C149.342 43.0207 149.416 43.1093 149.51 43.184C149.612 43.2587 149.766 43.338 149.972 43.422C150.177 43.506 150.438 43.5853 150.756 43.66C151.222 43.7813 151.605 43.9167 151.904 44.066C152.212 44.206 152.454 44.3693 152.632 44.556C152.818 44.7333 152.949 44.9387 153.024 45.172C153.098 45.4053 153.136 45.6667 153.136 45.956C153.136 46.376 153.014 46.754 152.772 47.09C152.538 47.4167 152.221 47.6733 151.82 47.86C151.418 48.0467 150.97 48.14 150.476 48.14ZM155.635 48V38.774H157.077V48H155.635ZM154.109 42.05V40.65H158.785V42.05H154.109ZM163.46 48.14C162.704 48.14 162.032 47.9813 161.444 47.664C160.865 47.3373 160.408 46.894 160.072 46.334C159.745 45.774 159.582 45.13 159.582 44.402C159.582 43.8233 159.675 43.296 159.862 42.82C160.048 42.344 160.305 41.9333 160.632 41.588C160.968 41.2333 161.364 40.9627 161.822 40.776C162.288 40.58 162.792 40.482 163.334 40.482C163.81 40.482 164.253 40.5753 164.664 40.762C165.074 40.9393 165.429 41.1867 165.728 41.504C166.036 41.8213 166.269 42.1993 166.428 42.638C166.596 43.0673 166.675 43.5387 166.666 44.052L166.652 44.668H160.646L160.324 43.52H165.406L165.196 43.758V43.422C165.168 43.114 165.065 42.8387 164.888 42.596C164.71 42.3533 164.486 42.162 164.216 42.022C163.945 41.882 163.651 41.812 163.334 41.812C162.83 41.812 162.405 41.91 162.06 42.106C161.714 42.2927 161.453 42.5727 161.276 42.946C161.098 43.31 161.01 43.7627 161.01 44.304C161.01 44.8173 161.117 45.2653 161.332 45.648C161.546 46.0213 161.85 46.3107 162.242 46.516C162.634 46.7213 163.086 46.824 163.6 46.824C163.964 46.824 164.3 46.7633 164.608 46.642C164.925 46.5207 165.266 46.3013 165.63 45.984L166.358 47.006C166.134 47.23 165.858 47.426 165.532 47.594C165.214 47.762 164.874 47.8973 164.51 48C164.155 48.0933 163.805 48.14 163.46 48.14ZM168.233 48V40.65H169.689V42.96L169.549 42.4C169.651 42.0453 169.824 41.7233 170.067 41.434C170.319 41.1447 170.603 40.916 170.921 40.748C171.247 40.58 171.583 40.496 171.929 40.496C172.087 40.496 172.237 40.51 172.377 40.538C172.526 40.566 172.643 40.5987 172.727 40.636L172.349 42.204C172.237 42.1573 172.111 42.12 171.971 42.092C171.84 42.0547 171.709 42.036 171.579 42.036C171.327 42.036 171.084 42.0873 170.851 42.19C170.627 42.2833 170.426 42.4187 170.249 42.596C170.081 42.764 169.945 42.9647 169.843 43.198C169.74 43.422 169.689 43.6693 169.689 43.94V48H168.233ZM180.799 48V43.114L180.897 43.8L176.935 38.2H178.755L181.779 42.54L181.429 42.498L184.159 38.2H185.895L182.101 43.954L182.311 43.002V48H180.799ZM189.228 48.14C188.509 48.14 187.865 47.9767 187.296 47.65C186.736 47.314 186.293 46.8613 185.966 46.292C185.639 45.7133 185.476 45.0553 185.476 44.318C185.476 43.5807 185.639 42.9273 185.966 42.358C186.293 41.7793 186.736 41.3267 187.296 41C187.865 40.664 188.509 40.496 189.228 40.496C189.937 40.496 190.572 40.664 191.132 41C191.701 41.3267 192.149 41.7793 192.476 42.358C192.803 42.9273 192.966 43.5807 192.966 44.318C192.966 45.0553 192.803 45.7133 192.476 46.292C192.149 46.8613 191.701 47.314 191.132 47.65C190.572 47.9767 189.937 48.14 189.228 48.14ZM189.228 46.824C189.667 46.824 190.059 46.7167 190.404 46.502C190.749 46.278 191.02 45.9793 191.216 45.606C191.412 45.2233 191.505 44.794 191.496 44.318C191.505 43.8327 191.412 43.4033 191.216 43.03C191.02 42.6473 190.749 42.3487 190.404 42.134C190.059 41.9193 189.667 41.812 189.228 41.812C188.789 41.812 188.393 41.924 188.038 42.148C187.693 42.3627 187.422 42.6613 187.226 43.044C187.03 43.4173 186.937 43.842 186.946 44.318C186.937 44.794 187.03 45.2233 187.226 45.606C187.422 45.9793 187.693 46.278 188.038 46.502C188.393 46.7167 188.789 46.824 189.228 46.824ZM197.113 48.14C196.591 48.14 196.133 48.0187 195.741 47.776C195.359 47.5333 195.06 47.1927 194.845 46.754C194.64 46.3153 194.537 45.7927 194.537 45.186V40.65H195.979V44.794C195.979 45.2233 196.045 45.5967 196.175 45.914C196.315 46.222 196.511 46.46 196.763 46.628C197.025 46.796 197.337 46.88 197.701 46.88C197.972 46.88 198.219 46.838 198.443 46.754C198.667 46.6607 198.859 46.5347 199.017 46.376C199.185 46.2173 199.316 46.026 199.409 45.802C199.503 45.578 199.549 45.3353 199.549 45.074V40.65H200.991V48H199.549V46.46L199.801 46.292C199.689 46.6373 199.498 46.95 199.227 47.23C198.966 47.51 198.653 47.734 198.289 47.902C197.925 48.0607 197.533 48.14 197.113 48.14ZM203.014 48V40.65H204.47V42.96L204.33 42.4C204.433 42.0453 204.605 41.7233 204.848 41.434C205.1 41.1447 205.385 40.916 205.702 40.748C206.029 40.58 206.365 40.496 206.71 40.496C206.869 40.496 207.018 40.51 207.158 40.538C207.307 40.566 207.424 40.5987 207.508 40.636L207.13 42.204C207.018 42.1573 206.892 42.12 206.752 42.092C206.621 42.0547 206.491 42.036 206.36 42.036C206.108 42.036 205.865 42.0873 205.632 42.19C205.408 42.2833 205.207 42.4187 205.03 42.596C204.862 42.764 204.727 42.9647 204.624 43.198C204.521 43.422 204.47 43.6693 204.47 43.94V48H203.014ZM215.972 48.14C215.44 48.14 214.946 48.07 214.488 47.93C214.04 47.79 213.63 47.58 213.256 47.3C212.892 47.0107 212.566 46.656 212.276 46.236L213.312 45.046C213.77 45.6993 214.208 46.152 214.628 46.404C215.048 46.656 215.548 46.782 216.126 46.782C216.481 46.782 216.803 46.726 217.092 46.614C217.382 46.502 217.61 46.348 217.778 46.152C217.946 45.956 218.03 45.732 218.03 45.48C218.03 45.312 218.002 45.1533 217.946 45.004C217.89 44.8547 217.802 44.7193 217.68 44.598C217.568 44.4767 217.419 44.3647 217.232 44.262C217.055 44.1593 216.845 44.0707 216.602 43.996C216.36 43.912 216.08 43.842 215.762 43.786C215.258 43.6833 214.82 43.548 214.446 43.38C214.073 43.212 213.76 43.002 213.508 42.75C213.256 42.498 213.07 42.2133 212.948 41.896C212.827 41.5693 212.766 41.2053 212.766 40.804C212.766 40.412 212.85 40.048 213.018 39.712C213.196 39.376 213.434 39.0867 213.732 38.844C214.04 38.592 214.4 38.4007 214.81 38.27C215.221 38.13 215.664 38.06 216.14 38.06C216.644 38.06 217.106 38.1253 217.526 38.256C217.946 38.3867 218.32 38.5827 218.646 38.844C218.973 39.096 219.244 39.4087 219.458 39.782L218.394 40.832C218.208 40.524 217.998 40.2673 217.764 40.062C217.531 39.8473 217.274 39.6887 216.994 39.586C216.714 39.474 216.416 39.418 216.098 39.418C215.734 39.418 215.417 39.474 215.146 39.586C214.876 39.698 214.661 39.8567 214.502 40.062C214.353 40.258 214.278 40.4913 214.278 40.762C214.278 40.958 214.316 41.14 214.39 41.308C214.465 41.4667 214.577 41.6113 214.726 41.742C214.885 41.8633 215.095 41.9753 215.356 42.078C215.618 42.1713 215.93 42.2553 216.294 42.33C216.808 42.442 217.265 42.5867 217.666 42.764C218.068 42.932 218.408 43.1327 218.688 43.366C218.968 43.5993 219.178 43.8607 219.318 44.15C219.468 44.4393 219.542 44.752 219.542 45.088C219.542 45.7133 219.398 46.2547 219.108 46.712C218.819 47.1693 218.408 47.524 217.876 47.776C217.344 48.0187 216.71 48.14 215.972 48.14ZM221.559 48V40.65H223.001V48H221.559ZM222.259 39.026C221.951 39.026 221.713 38.9467 221.545 38.788C221.377 38.6293 221.293 38.4053 221.293 38.116C221.293 37.8453 221.377 37.626 221.545 37.458C221.722 37.29 221.96 37.206 222.259 37.206C222.567 37.206 222.805 37.2853 222.973 37.444C223.141 37.6027 223.225 37.8267 223.225 38.116C223.225 38.3867 223.136 38.606 222.959 38.774C222.791 38.942 222.557 39.026 222.259 39.026ZM226.127 48V38.774H227.569V48H226.127ZM224.601 42.05V40.65H229.277V42.05H224.601ZM233.952 48.14C233.196 48.14 232.524 47.9813 231.936 47.664C231.357 47.3373 230.9 46.894 230.564 46.334C230.237 45.774 230.074 45.13 230.074 44.402C230.074 43.8233 230.167 43.296 230.354 42.82C230.54 42.344 230.797 41.9333 231.124 41.588C231.46 41.2333 231.856 40.9627 232.314 40.776C232.78 40.58 233.284 40.482 233.826 40.482C234.302 40.482 234.745 40.5753 235.156 40.762C235.566 40.9393 235.921 41.1867 236.22 41.504C236.528 41.8213 236.761 42.1993 236.92 42.638C237.088 43.0673 237.167 43.5387 237.158 44.052L237.144 44.668H231.138L230.816 43.52H235.898L235.688 43.758V43.422C235.66 43.114 235.557 42.8387 235.38 42.596C235.202 42.3533 234.978 42.162 234.708 42.022C234.437 41.882 234.143 41.812 233.826 41.812C233.322 41.812 232.897 41.91 232.552 42.106C232.206 42.2927 231.945 42.5727 231.768 42.946C231.59 43.31 231.502 43.7627 231.502 44.304C231.502 44.8173 231.609 45.2653 231.824 45.648C232.038 46.0213 232.342 46.3107 232.734 46.516C233.126 46.7213 233.578 46.824 234.092 46.824C234.456 46.824 234.792 46.7633 235.1 46.642C235.417 46.5207 235.758 46.3013 236.122 45.984L236.85 47.006C236.626 47.23 236.35 47.426 236.024 47.594C235.706 47.762 235.366 47.8973 235.002 48C234.647 48.0933 234.297 48.14 233.952 48.14Z" fill="white"/>
<path d="M72.6056 5.68359H88.2032V8.94141H76.3204V12.5977H86.8439V15.6562H76.3204V20.7539H88.4493V24H72.6056V5.68359ZM91.3204 14.6719C91.3204 13.3828 91.5626 12.1797 92.047 11.0625C92.5314 9.9375 93.2384 8.96094 94.1681 8.13281C95.0978 7.30469 96.2384 6.65234 97.59 6.17578C98.9493 5.69922 100.504 5.46094 102.254 5.46094C102.887 5.46094 103.52 5.49609 104.152 5.56641C104.793 5.62891 105.422 5.73047 106.039 5.87109C106.664 6.01172 107.27 6.19141 107.856 6.41016C108.449 6.62109 109.012 6.875 109.543 7.17188L107.832 9.98438C107.512 9.79688 107.149 9.62891 106.742 9.48047C106.336 9.32422 105.899 9.19531 105.43 9.09375C104.969 8.98438 104.488 8.90234 103.988 8.84766C103.496 8.79297 103 8.76562 102.5 8.76562C101.344 8.76562 100.313 8.91406 99.4064 9.21094C98.5001 9.5 97.7345 9.91016 97.1095 10.4414C96.4845 10.9648 96.0079 11.5938 95.6798 12.3281C95.3517 13.0625 95.1876 13.8672 95.1876 14.7422C95.1876 15.6484 95.3595 16.4805 95.7032 17.2383C96.047 17.9961 96.5353 18.6484 97.1681 19.1953C97.8009 19.7422 98.5665 20.1719 99.465 20.4844C100.363 20.7891 101.367 20.9414 102.477 20.9414C103.359 20.9414 104.168 20.8438 104.902 20.6484C105.637 20.4453 106.277 20.1602 106.824 19.793C107.371 19.4258 107.817 18.9844 108.16 18.4688C108.504 17.9453 108.731 17.3594 108.84 16.7109H102.442V13.6523H112.18V13.6641L112.192 13.6523C112.387 14.5898 112.445 15.5039 112.367 16.3945C112.297 17.2773 112.094 18.1133 111.758 18.9023C111.43 19.6836 110.977 20.4023 110.399 21.0586C109.82 21.7148 109.129 22.2812 108.324 22.7578C107.52 23.2266 106.606 23.5938 105.582 23.8594C104.559 24.1172 103.438 24.2461 102.219 24.2461C100.516 24.2461 98.9884 23.9961 97.6368 23.4961C96.2931 22.9961 95.1525 22.3125 94.215 21.4453C93.2775 20.5781 92.5587 19.5625 92.0587 18.3984C91.5665 17.2344 91.3204 15.9922 91.3204 14.6719ZM115.578 13.3828H126.324V15.9844H115.578V13.3828ZM129.465 14.7891C129.465 13.4062 129.719 12.1406 130.227 10.9922C130.734 9.84375 131.445 8.85938 132.359 8.03906C133.281 7.21094 134.383 6.57031 135.664 6.11719C136.953 5.66406 138.379 5.4375 139.942 5.4375C141.496 5.4375 142.918 5.66406 144.207 6.11719C145.496 6.57031 146.598 7.21094 147.512 8.03906C148.434 8.85938 149.149 9.84375 149.656 10.9922C150.164 12.1406 150.418 13.4062 150.418 14.7891C150.418 16.1797 150.164 17.457 149.656 18.6211C149.149 19.7773 148.434 20.7734 147.512 21.6094C146.598 22.4453 145.496 23.0977 144.207 23.5664C142.918 24.0273 141.496 24.2578 139.942 24.2578C138.379 24.2578 136.953 24.0273 135.664 23.5664C134.383 23.0977 133.281 22.4453 132.359 21.6094C131.445 20.7734 130.734 19.7773 130.227 18.6211C129.719 17.457 129.465 16.1797 129.465 14.7891ZM133.18 14.7891C133.18 15.7344 133.348 16.5859 133.684 17.3438C134.027 18.1016 134.5 18.75 135.102 19.2891C135.711 19.8203 136.426 20.2305 137.246 20.5195C138.074 20.8086 138.973 20.9531 139.942 20.9531C140.91 20.9531 141.805 20.8086 142.625 20.5195C143.453 20.2305 144.168 19.8203 144.77 19.2891C145.371 18.75 145.844 18.1016 146.188 17.3438C146.531 16.5859 146.703 15.7344 146.703 14.7891C146.703 13.8438 146.531 12.9961 146.188 12.2461C145.844 11.4961 145.371 10.8633 144.77 10.3477C144.168 9.82422 143.453 9.42578 142.625 9.15234C141.805 8.87891 140.91 8.74219 139.942 8.74219C138.973 8.74219 138.074 8.87891 137.246 9.15234C136.426 9.42578 135.711 9.82422 135.102 10.3477C134.5 10.8633 134.027 11.4961 133.684 12.2461C133.348 12.9961 133.18 13.8438 133.18 14.7891ZM157.484 29.6484H154.016V10.1719H157.484V11.4727C157.789 11.2617 158.149 11.0625 158.563 10.875C158.977 10.6875 159.422 10.5234 159.899 10.3828C160.375 10.2422 160.867 10.1328 161.375 10.0547C161.883 9.96875 162.391 9.92578 162.899 9.92578C164.07 9.92578 165.145 10.0977 166.121 10.4414C167.106 10.7852 167.949 11.2695 168.652 11.8945C169.356 12.5195 169.902 13.2695 170.293 14.1445C170.692 15.0117 170.891 15.9727 170.891 17.0273C170.891 18.1289 170.684 19.125 170.27 20.0156C169.856 20.8984 169.281 21.6562 168.547 22.2891C167.82 22.9141 166.953 23.3984 165.945 23.7422C164.945 24.0781 163.859 24.2461 162.688 24.2461C162.188 24.2461 161.692 24.2148 161.199 24.1523C160.715 24.0898 160.246 24.0039 159.793 23.8945C159.348 23.7852 158.926 23.6562 158.527 23.5078C158.137 23.3516 157.789 23.1836 157.484 23.0039V29.6484ZM157.484 19.6523C157.836 19.9336 158.207 20.1719 158.598 20.3672C158.988 20.5625 159.387 20.7227 159.793 20.8477C160.199 20.9727 160.609 21.0664 161.024 21.1289C161.438 21.1836 161.84 21.2109 162.231 21.2109C163.027 21.2109 163.734 21.1055 164.352 20.8945C164.977 20.6758 165.5 20.3789 165.922 20.0039C166.352 19.6289 166.68 19.1875 166.906 18.6797C167.133 18.1719 167.246 17.6211 167.246 17.0273C167.246 16.4727 167.133 15.9492 166.906 15.457C166.688 14.9648 166.367 14.5352 165.945 14.168C165.531 13.793 165.027 13.5 164.434 13.2891C163.848 13.0703 163.188 12.9609 162.453 12.9609C161.984 12.9609 161.516 13.0078 161.047 13.1016C160.578 13.1875 160.125 13.3125 159.688 13.4766C159.258 13.6406 158.852 13.8398 158.469 14.0742C158.094 14.3086 157.766 14.5703 157.484 14.8594V19.6523ZM176.258 12.7734H172.918V10.1719H176.258V5.87109H179.727V10.1719H183.067V12.7734H179.727V24H176.258V12.7734ZM187.977 8.28516C187.633 8.28516 187.32 8.23828 187.039 8.14453C186.766 8.04297 186.531 7.91016 186.336 7.74609C186.141 7.57422 185.988 7.37891 185.879 7.16016C185.777 6.93359 185.727 6.69531 185.727 6.44531C185.727 6.1875 185.777 5.94922 185.879 5.73047C185.988 5.50391 186.141 5.30859 186.336 5.14453C186.531 4.98047 186.766 4.85156 187.039 4.75781C187.32 4.65625 187.633 4.60547 187.977 4.60547C188.328 4.60547 188.641 4.65625 188.914 4.75781C189.195 4.85156 189.434 4.98047 189.629 5.14453C189.824 5.30859 189.973 5.50391 190.074 5.73047C190.184 5.94922 190.238 6.1875 190.238 6.44531C190.238 6.69531 190.184 6.93359 190.074 7.16016C189.973 7.37891 189.824 7.57422 189.629 7.74609C189.434 7.91016 189.195 8.04297 188.914 8.14453C188.641 8.23828 188.328 8.28516 187.977 8.28516ZM186.242 10.1719H189.711V24H186.242V10.1719ZM194.258 10.1719H197.727V11.3438C198.594 10.8125 199.438 10.4453 200.258 10.2422C201.086 10.0312 201.895 9.92578 202.684 9.92578C203.785 9.92578 204.797 10.1016 205.719 10.4531C206.641 10.8047 207.43 11.3359 208.086 12.0469C208.594 11.6562 209.094 11.3281 209.586 11.0625C210.078 10.7891 210.57 10.5703 211.063 10.4062C211.555 10.2344 212.055 10.1133 212.563 10.043C213.07 9.96484 213.594 9.92578 214.133 9.92578C215.266 9.92578 216.293 10.082 217.215 10.3945C218.137 10.6992 218.922 11.1562 219.57 11.7656C220.227 12.375 220.731 13.1367 221.082 14.0508C221.442 14.957 221.621 16.0078 221.621 17.2031V24H218.164V17.7656C218.164 17.0078 218.055 16.332 217.836 15.7383C217.625 15.1367 217.324 14.6328 216.934 14.2266C216.551 13.8125 216.09 13.5 215.551 13.2891C215.02 13.0703 214.434 12.9609 213.793 12.9609C213.442 12.9609 213.082 12.9961 212.715 13.0664C212.348 13.1289 211.988 13.2305 211.637 13.3711C211.293 13.5117 210.969 13.6914 210.664 13.9102C210.359 14.1211 210.094 14.3711 209.867 14.6602V24H206.41V17.7656C206.41 17.0078 206.301 16.332 206.082 15.7383C205.871 15.1367 205.57 14.6328 205.18 14.2266C204.797 13.8125 204.332 13.5 203.785 13.2891C203.246 13.0703 202.652 12.9609 202.004 12.9609C201.606 12.9609 201.203 13.0039 200.797 13.0898C200.399 13.168 200.012 13.2812 199.637 13.4297C199.27 13.5781 198.922 13.7578 198.594 13.9688C198.274 14.1797 197.984 14.418 197.727 14.6836V24H194.258V10.1719ZM227.82 8.28516C227.477 8.28516 227.164 8.23828 226.883 8.14453C226.609 8.04297 226.375 7.91016 226.18 7.74609C225.984 7.57422 225.832 7.37891 225.723 7.16016C225.621 6.93359 225.57 6.69531 225.57 6.44531C225.57 6.1875 225.621 5.94922 225.723 5.73047C225.832 5.50391 225.984 5.30859 226.18 5.14453C226.375 4.98047 226.609 4.85156 226.883 4.75781C227.164 4.65625 227.477 4.60547 227.82 4.60547C228.172 4.60547 228.484 4.65625 228.758 4.75781C229.039 4.85156 229.277 4.98047 229.473 5.14453C229.668 5.30859 229.817 5.50391 229.918 5.73047C230.027 5.94922 230.082 6.1875 230.082 6.44531C230.082 6.69531 230.027 6.93359 229.918 7.16016C229.817 7.37891 229.668 7.57422 229.473 7.74609C229.277 7.91016 229.039 8.04297 228.758 8.14453C228.484 8.23828 228.172 8.28516 227.82 8.28516ZM226.086 10.1719H229.555V24H226.086V10.1719ZM240.676 13.0547H233.586V10.1719H247.109L238.578 21.1172H246.641V24H232.203L240.676 13.0547ZM249.336 17.0391C249.336 16.1016 249.527 15.207 249.91 14.3555C250.293 13.4961 250.844 12.7383 251.563 12.082C252.281 11.4258 253.16 10.9023 254.199 10.5117C255.246 10.1211 256.434 9.92578 257.762 9.92578C259.082 9.92578 260.27 10.125 261.324 10.5234C262.387 10.9141 263.285 11.4531 264.02 12.1406C264.762 12.8281 265.328 13.6367 265.719 14.5664C266.117 15.4961 266.317 16.4922 266.317 17.5547C266.317 17.6875 266.313 17.832 266.305 17.9883C266.305 18.1367 266.297 18.2734 266.281 18.3984H253.203C253.352 18.8125 253.59 19.1914 253.918 19.5352C254.254 19.8789 254.672 20.1758 255.172 20.4258C255.672 20.6758 256.25 20.8711 256.906 21.0117C257.563 21.1445 258.289 21.2109 259.086 21.2109C259.883 21.2109 260.676 21.1289 261.465 20.9648C262.254 20.793 263.008 20.5781 263.727 20.3203L264.899 22.9688C264.445 23.1797 263.984 23.3672 263.516 23.5312C263.055 23.6875 262.57 23.8203 262.063 23.9297C261.563 24.0312 261.035 24.1094 260.481 24.1641C259.934 24.2188 259.356 24.2461 258.746 24.2461C257.192 24.2461 255.828 24.0586 254.656 23.6836C253.484 23.3086 252.504 22.7969 251.715 22.1484C250.926 21.5 250.332 20.7383 249.934 19.8633C249.535 18.9883 249.336 18.0469 249.336 17.0391ZM262.637 15.6914C262.512 15.3086 262.317 14.9531 262.051 14.625C261.793 14.2891 261.469 14 261.078 13.7578C260.688 13.5078 260.234 13.3125 259.719 13.1719C259.203 13.0312 258.637 12.9609 258.02 12.9609C257.363 12.9609 256.766 13.0352 256.227 13.1836C255.688 13.332 255.215 13.5312 254.809 13.7812C254.402 14.0312 254.063 14.3203 253.789 14.6484C253.524 14.9766 253.328 15.3242 253.203 15.6914H262.637Z" fill="white"/>
<path d="M50.4077 4.8235C42.0052 -3.43518 24.9386 -0.0476635 12.2869 12.3832C-0.364699 24.8184 -3.80682 41.5888 4.59562 49.8475C12.9981 58.1062 30.0647 54.7187 42.712 42.2878C55.3636 29.8568 58.8057 13.0822 50.4077 4.8235ZM5.77789 45.5681C-1.16306 38.7416 2.22234 24.351 13.3427 13.4209C24.4631 2.49083 39.1041 -0.836655 46.0494 5.98555C52.9947 12.8078 49.6049 27.2026 38.4846 38.1327C27.3642 49.0628 12.7232 52.3903 5.77789 45.5681Z" fill="#43AA8B"/>
<path d="M16.5143 38.1329C5.39399 27.2028 2.00858 12.8123 8.9539 5.98579C12.7014 2.3024 17.0989 1.10176 23.5687 2.93274C24.3496 2.57254 25.1349 2.24666 25.9158 1.95078C17.016 -1.43245 9.8875 -0.3776 4.59563 4.82374C-3.80681 13.0824 -0.251262 29.7456 12.287 42.288C16.9681 46.9705 18.9792 47.6609 18.9792 47.6609C21.3481 47.1549 23.8087 46.293 26.2648 45.0923C26.2648 45.0923 19.9521 41.5119 16.5143 38.1329Z" fill="#F3722C"/>
<path d="M42.7119 12.3834C38.7289 8.46846 35.1777 6.30731 30.7278 4.27051C29.9512 4.4892 29.166 4.74648 28.3807 5.03806C33.1883 6.82616 37.263 9.09451 41.6605 13.4168C52.7809 24.3469 56.1663 38.7374 49.2254 45.5639C45.8225 48.9086 41.3726 50.7696 35.5921 49.5346C33.197 51.044 30.7452 52.2747 28.3065 53.2009C37.1976 56.5841 45.1201 55.0447 50.4076 49.8434C58.8057 41.5933 55.3636 24.8186 42.7119 12.3834Z" fill="#F3722C"/>
</svg>
