<svg width="276" height="55" viewBox="0 0 276 55" fill="none" xmlns="http://www.w3.org/2000/svg">
<path d="M74.234 48V39.656H71.49V38.2H78.574V39.656H75.746V48H74.234ZM81.9839 48.14C81.2652 48.14 80.6212 47.9767 80.0519 47.65C79.4919 47.314 79.0485 46.8613 78.7219 46.292C78.3952 45.7133 78.2319 45.0553 78.2319 44.318C78.2319 43.5807 78.3952 42.9273 78.7219 42.358C79.0485 41.7793 79.4919 41.3267 80.0519 41C80.6212 40.664 81.2652 40.496 81.9839 40.496C82.6932 40.496 83.3279 40.664 83.8879 41C84.4572 41.3267 84.9052 41.7793 85.2319 42.358C85.5585 42.9273 85.7219 43.5807 85.7219 44.318C85.7219 45.0553 85.5585 45.7133 85.2319 46.292C84.9052 46.8613 84.4572 47.314 83.8879 47.65C83.3279 47.9767 82.6932 48.14 81.9839 48.14ZM81.9839 46.824C82.4225 46.824 82.8145 46.7167 83.1599 46.502C83.5052 46.278 83.7759 45.9793 83.9719 45.606C84.1679 45.2233 84.2612 44.794 84.2519 44.318C84.2612 43.8327 84.1679 43.4033 83.9719 43.03C83.7759 42.6473 83.5052 42.3487 83.1599 42.134C82.8145 41.9193 82.4225 41.812 81.9839 41.812C81.5452 41.812 81.1485 41.924 80.7939 42.148C80.4485 42.3627 80.1779 42.6613 79.9819 43.044C79.7859 43.4173 79.6925 43.842 79.7019 44.318C79.6925 44.794 79.7859 45.2233 79.9819 45.606C80.1779 45.9793 80.4485 46.278 80.7939 46.502C81.1485 46.7167 81.5452 46.824 81.9839 46.824ZM91.581 48V38.2H93.065L96.635 44.01L95.921 43.996L99.533 38.2H100.933V48H99.421V43.982C99.421 43.142 99.4397 42.386 99.477 41.714C99.5237 41.042 99.5983 40.3747 99.701 39.712L99.897 40.23L96.691 45.186H95.767L92.659 40.286L92.813 39.712C92.9157 40.3373 92.9857 40.9813 93.023 41.644C93.0697 42.2973 93.093 43.0767 93.093 43.982V48H91.581ZM106.145 48.14C105.538 48.14 104.983 47.972 104.479 47.636C103.984 47.3 103.587 46.8427 103.289 46.264C102.99 45.6853 102.841 45.032 102.841 44.304C102.841 43.5667 102.99 42.9133 103.289 42.344C103.597 41.7653 104.007 41.3127 104.521 40.986C105.043 40.6593 105.627 40.496 106.271 40.496C106.653 40.496 107.003 40.552 107.321 40.664C107.638 40.776 107.913 40.9347 108.147 41.14C108.389 41.336 108.585 41.5647 108.735 41.826C108.893 42.0873 108.991 42.3673 109.029 42.666L108.707 42.554V40.65H110.163V48H108.707V46.25L109.043 46.152C108.987 46.404 108.87 46.6513 108.693 46.894C108.525 47.1273 108.305 47.3373 108.035 47.524C107.773 47.7107 107.479 47.86 107.153 47.972C106.835 48.084 106.499 48.14 106.145 48.14ZM106.523 46.81C106.961 46.81 107.349 46.7027 107.685 46.488C108.021 46.2733 108.282 45.9793 108.469 45.606C108.665 45.2233 108.763 44.7893 108.763 44.304C108.763 43.828 108.665 43.4033 108.469 43.03C108.282 42.6567 108.021 42.3627 107.685 42.148C107.349 41.9333 106.961 41.826 106.523 41.826C106.093 41.826 105.711 41.9333 105.375 42.148C105.048 42.3627 104.787 42.6567 104.591 43.03C104.404 43.4033 104.311 43.828 104.311 44.304C104.311 44.7893 104.404 45.2233 104.591 45.606C104.787 45.9793 105.048 46.2733 105.375 46.488C105.711 46.7027 106.093 46.81 106.523 46.81ZM113.492 45.704L113.422 44.136L116.936 40.65H118.882L113.492 45.704ZM112.176 48V37.64H113.618V48H112.176ZM117.132 48L114.36 44.766L115.382 43.828L118.98 48H117.132ZM123.249 48.14C122.493 48.14 121.821 47.9813 121.233 47.664C120.654 47.3373 120.197 46.894 119.861 46.334C119.534 45.774 119.371 45.13 119.371 44.402C119.371 43.8233 119.464 43.296 119.651 42.82C119.837 42.344 120.094 41.9333 120.421 41.588C120.757 41.2333 121.153 40.9627 121.611 40.776C122.077 40.58 122.581 40.482 123.123 40.482C123.599 40.482 124.042 40.5753 124.453 40.762C124.863 40.9393 125.218 41.1867 125.517 41.504C125.825 41.8213 126.058 42.1993 126.217 42.638C126.385 43.0673 126.464 43.5387 126.455 44.052L126.441 44.668H120.435L120.113 43.52H125.195L124.985 43.758V43.422C124.957 43.114 124.854 42.8387 124.677 42.596C124.499 42.3533 124.275 42.162 124.005 42.022C123.734 41.882 123.44 41.812 123.123 41.812C122.619 41.812 122.194 41.91 121.849 42.106C121.503 42.2927 121.242 42.5727 121.065 42.946C120.887 43.31 120.799 43.7627 120.799 44.304C120.799 44.8173 120.906 45.2653 121.121 45.648C121.335 46.0213 121.639 46.3107 122.031 46.516C122.423 46.7213 122.875 46.824 123.389 46.824C123.753 46.824 124.089 46.7633 124.397 46.642C124.714 46.5207 125.055 46.3013 125.419 45.984L126.147 47.006C125.923 47.23 125.647 47.426 125.321 47.594C125.003 47.762 124.663 47.8973 124.299 48C123.944 48.0933 123.594 48.14 123.249 48.14ZM132.31 48V38.2H133.822V48H132.31ZM132.982 43.828V42.372H138.036V43.828H132.982ZM132.982 39.656V38.2H138.666V39.656H132.982ZM142.99 48.14C142.384 48.14 141.828 47.972 141.324 47.636C140.83 47.3 140.433 46.8427 140.134 46.264C139.836 45.6853 139.686 45.032 139.686 44.304C139.686 43.5667 139.836 42.9133 140.134 42.344C140.442 41.7653 140.853 41.3127 141.366 40.986C141.889 40.6593 142.472 40.496 143.116 40.496C143.499 40.496 143.849 40.552 144.166 40.664C144.484 40.776 144.759 40.9347 144.992 41.14C145.235 41.336 145.431 41.5647 145.58 41.826C145.739 42.0873 145.837 42.3673 145.874 42.666L145.552 42.554V40.65H147.008V48H145.552V46.25L145.888 46.152C145.832 46.404 145.716 46.6513 145.538 46.894C145.37 47.1273 145.151 47.3373 144.88 47.524C144.619 47.7107 144.325 47.86 143.998 47.972C143.681 48.084 143.345 48.14 142.99 48.14ZM143.368 46.81C143.807 46.81 144.194 46.7027 144.53 46.488C144.866 46.2733 145.128 45.9793 145.314 45.606C145.51 45.2233 145.608 44.7893 145.608 44.304C145.608 43.828 145.51 43.4033 145.314 43.03C145.128 42.6567 144.866 42.3627 144.53 42.148C144.194 41.9333 143.807 41.826 143.368 41.826C142.939 41.826 142.556 41.9333 142.22 42.148C141.894 42.3627 141.632 42.6567 141.436 43.03C141.25 43.4033 141.156 43.828 141.156 44.304C141.156 44.7893 141.25 45.2233 141.436 45.606C141.632 45.9793 141.894 46.2733 142.22 46.488C142.556 46.7027 142.939 46.81 143.368 46.81ZM151.472 48.14C150.856 48.14 150.3 48.0327 149.806 47.818C149.311 47.6033 148.9 47.286 148.574 46.866L149.554 46.026C149.834 46.3527 150.137 46.5907 150.464 46.74C150.8 46.88 151.178 46.95 151.598 46.95C151.766 46.95 151.92 46.9313 152.06 46.894C152.209 46.8473 152.335 46.782 152.438 46.698C152.55 46.614 152.634 46.516 152.69 46.404C152.746 46.2827 152.774 46.152 152.774 46.012C152.774 45.7693 152.685 45.5733 152.508 45.424C152.414 45.3587 152.265 45.2887 152.06 45.214C151.864 45.13 151.607 45.046 151.29 44.962C150.748 44.822 150.305 44.6633 149.96 44.486C149.614 44.3087 149.348 44.108 149.162 43.884C149.022 43.7067 148.919 43.5153 148.854 43.31C148.788 43.0953 148.756 42.862 148.756 42.61C148.756 42.302 148.821 42.022 148.952 41.77C149.092 41.5087 149.278 41.2847 149.512 41.098C149.754 40.902 150.034 40.7527 150.352 40.65C150.678 40.5473 151.024 40.496 151.388 40.496C151.733 40.496 152.074 40.5427 152.41 40.636C152.755 40.7293 153.072 40.8647 153.362 41.042C153.651 41.2193 153.894 41.4293 154.09 41.672L153.264 42.582C153.086 42.4047 152.89 42.2507 152.676 42.12C152.47 41.98 152.26 41.8727 152.046 41.798C151.831 41.7233 151.635 41.686 151.458 41.686C151.262 41.686 151.084 41.7047 150.926 41.742C150.767 41.7793 150.632 41.8353 150.52 41.91C150.417 41.9847 150.338 42.078 150.282 42.19C150.226 42.302 150.198 42.428 150.198 42.568C150.207 42.6893 150.235 42.806 150.282 42.918C150.338 43.0207 150.412 43.1093 150.506 43.184C150.608 43.2587 150.762 43.338 150.968 43.422C151.173 43.506 151.434 43.5853 151.752 43.66C152.218 43.7813 152.601 43.9167 152.9 44.066C153.208 44.206 153.45 44.3693 153.628 44.556C153.814 44.7333 153.945 44.9387 154.02 45.172C154.094 45.4053 154.132 45.6667 154.132 45.956C154.132 46.376 154.01 46.754 153.768 47.09C153.534 47.4167 153.217 47.6733 152.816 47.86C152.414 48.0467 151.966 48.14 151.472 48.14ZM156.631 48V38.774H158.073V48H156.631ZM155.105 42.05V40.65H159.781V42.05H155.105ZM164.456 48.14C163.7 48.14 163.028 47.9813 162.44 47.664C161.861 47.3373 161.404 46.894 161.068 46.334C160.741 45.774 160.578 45.13 160.578 44.402C160.578 43.8233 160.671 43.296 160.858 42.82C161.044 42.344 161.301 41.9333 161.628 41.588C161.964 41.2333 162.36 40.9627 162.818 40.776C163.284 40.58 163.788 40.482 164.33 40.482C164.806 40.482 165.249 40.5753 165.66 40.762C166.07 40.9393 166.425 41.1867 166.724 41.504C167.032 41.8213 167.265 42.1993 167.424 42.638C167.592 43.0673 167.671 43.5387 167.662 44.052L167.648 44.668H161.642L161.32 43.52H166.402L166.192 43.758V43.422C166.164 43.114 166.061 42.8387 165.884 42.596C165.706 42.3533 165.482 42.162 165.212 42.022C164.941 41.882 164.647 41.812 164.33 41.812C163.826 41.812 163.401 41.91 163.056 42.106C162.71 42.2927 162.449 42.5727 162.272 42.946C162.094 43.31 162.006 43.7627 162.006 44.304C162.006 44.8173 162.113 45.2653 162.328 45.648C162.542 46.0213 162.846 46.3107 163.238 46.516C163.63 46.7213 164.082 46.824 164.596 46.824C164.96 46.824 165.296 46.7633 165.604 46.642C165.921 46.5207 166.262 46.3013 166.626 45.984L167.354 47.006C167.13 47.23 166.854 47.426 166.528 47.594C166.21 47.762 165.87 47.8973 165.506 48C165.151 48.0933 164.801 48.14 164.456 48.14ZM169.229 48V40.65H170.685V42.96L170.545 42.4C170.647 42.0453 170.82 41.7233 171.063 41.434C171.315 41.1447 171.599 40.916 171.917 40.748C172.243 40.58 172.579 40.496 172.925 40.496C173.083 40.496 173.233 40.51 173.373 40.538C173.522 40.566 173.639 40.5987 173.723 40.636L173.345 42.204C173.233 42.1573 173.107 42.12 172.967 42.092C172.836 42.0547 172.705 42.036 172.575 42.036C172.323 42.036 172.08 42.0873 171.847 42.19C171.623 42.2833 171.422 42.4187 171.245 42.596C171.077 42.764 170.941 42.9647 170.839 43.198C170.736 43.422 170.685 43.6693 170.685 43.94V48H169.229ZM181.795 48V43.114L181.893 43.8L177.931 38.2H179.751L182.775 42.54L182.425 42.498L185.155 38.2H186.891L183.097 43.954L183.307 43.002V48H181.795ZM190.224 48.14C189.505 48.14 188.861 47.9767 188.292 47.65C187.732 47.314 187.289 46.8613 186.962 46.292C186.635 45.7133 186.472 45.0553 186.472 44.318C186.472 43.5807 186.635 42.9273 186.962 42.358C187.289 41.7793 187.732 41.3267 188.292 41C188.861 40.664 189.505 40.496 190.224 40.496C190.933 40.496 191.568 40.664 192.128 41C192.697 41.3267 193.145 41.7793 193.472 42.358C193.799 42.9273 193.962 43.5807 193.962 44.318C193.962 45.0553 193.799 45.7133 193.472 46.292C193.145 46.8613 192.697 47.314 192.128 47.65C191.568 47.9767 190.933 48.14 190.224 48.14ZM190.224 46.824C190.663 46.824 191.055 46.7167 191.4 46.502C191.745 46.278 192.016 45.9793 192.212 45.606C192.408 45.2233 192.501 44.794 192.492 44.318C192.501 43.8327 192.408 43.4033 192.212 43.03C192.016 42.6473 191.745 42.3487 191.4 42.134C191.055 41.9193 190.663 41.812 190.224 41.812C189.785 41.812 189.389 41.924 189.034 42.148C188.689 42.3627 188.418 42.6613 188.222 43.044C188.026 43.4173 187.933 43.842 187.942 44.318C187.933 44.794 188.026 45.2233 188.222 45.606C188.418 45.9793 188.689 46.278 189.034 46.502C189.389 46.7167 189.785 46.824 190.224 46.824ZM198.109 48.14C197.587 48.14 197.129 48.0187 196.737 47.776C196.355 47.5333 196.056 47.1927 195.841 46.754C195.636 46.3153 195.533 45.7927 195.533 45.186V40.65H196.975V44.794C196.975 45.2233 197.041 45.5967 197.171 45.914C197.311 46.222 197.507 46.46 197.759 46.628C198.021 46.796 198.333 46.88 198.697 46.88C198.968 46.88 199.215 46.838 199.439 46.754C199.663 46.6607 199.855 46.5347 200.013 46.376C200.181 46.2173 200.312 46.026 200.405 45.802C200.499 45.578 200.545 45.3353 200.545 45.074V40.65H201.987V48H200.545V46.46L200.797 46.292C200.685 46.6373 200.494 46.95 200.223 47.23C199.962 47.51 199.649 47.734 199.285 47.902C198.921 48.0607 198.529 48.14 198.109 48.14ZM204.01 48V40.65H205.466V42.96L205.326 42.4C205.429 42.0453 205.601 41.7233 205.844 41.434C206.096 41.1447 206.381 40.916 206.698 40.748C207.025 40.58 207.361 40.496 207.706 40.496C207.865 40.496 208.014 40.51 208.154 40.538C208.303 40.566 208.42 40.5987 208.504 40.636L208.126 42.204C208.014 42.1573 207.888 42.12 207.748 42.092C207.617 42.0547 207.487 42.036 207.356 42.036C207.104 42.036 206.861 42.0873 206.628 42.19C206.404 42.2833 206.203 42.4187 206.026 42.596C205.858 42.764 205.723 42.9647 205.62 43.198C205.517 43.422 205.466 43.6693 205.466 43.94V48H204.01ZM216.968 48.14C216.436 48.14 215.942 48.07 215.484 47.93C215.036 47.79 214.626 47.58 214.252 47.3C213.888 47.0107 213.562 46.656 213.272 46.236L214.308 45.046C214.766 45.6993 215.204 46.152 215.624 46.404C216.044 46.656 216.544 46.782 217.122 46.782C217.477 46.782 217.799 46.726 218.088 46.614C218.378 46.502 218.606 46.348 218.774 46.152C218.942 45.956 219.026 45.732 219.026 45.48C219.026 45.312 218.998 45.1533 218.942 45.004C218.886 44.8547 218.798 44.7193 218.676 44.598C218.564 44.4767 218.415 44.3647 218.228 44.262C218.051 44.1593 217.841 44.0707 217.598 43.996C217.356 43.912 217.076 43.842 216.758 43.786C216.254 43.6833 215.816 43.548 215.442 43.38C215.069 43.212 214.756 43.002 214.504 42.75C214.252 42.498 214.066 42.2133 213.944 41.896C213.823 41.5693 213.762 41.2053 213.762 40.804C213.762 40.412 213.846 40.048 214.014 39.712C214.192 39.376 214.43 39.0867 214.728 38.844C215.036 38.592 215.396 38.4007 215.806 38.27C216.217 38.13 216.66 38.06 217.136 38.06C217.64 38.06 218.102 38.1253 218.522 38.256C218.942 38.3867 219.316 38.5827 219.642 38.844C219.969 39.096 220.24 39.4087 220.454 39.782L219.39 40.832C219.204 40.524 218.994 40.2673 218.76 40.062C218.527 39.8473 218.27 39.6887 217.99 39.586C217.71 39.474 217.412 39.418 217.094 39.418C216.73 39.418 216.413 39.474 216.142 39.586C215.872 39.698 215.657 39.8567 215.498 40.062C215.349 40.258 215.274 40.4913 215.274 40.762C215.274 40.958 215.312 41.14 215.386 41.308C215.461 41.4667 215.573 41.6113 215.722 41.742C215.881 41.8633 216.091 41.9753 216.352 42.078C216.614 42.1713 216.926 42.2553 217.29 42.33C217.804 42.442 218.261 42.5867 218.662 42.764C219.064 42.932 219.404 43.1327 219.684 43.366C219.964 43.5993 220.174 43.8607 220.314 44.15C220.464 44.4393 220.538 44.752 220.538 45.088C220.538 45.7133 220.394 46.2547 220.104 46.712C219.815 47.1693 219.404 47.524 218.872 47.776C218.34 48.0187 217.706 48.14 216.968 48.14ZM222.555 48V40.65H223.997V48H222.555ZM223.255 39.026C222.947 39.026 222.709 38.9467 222.541 38.788C222.373 38.6293 222.289 38.4053 222.289 38.116C222.289 37.8453 222.373 37.626 222.541 37.458C222.718 37.29 222.956 37.206 223.255 37.206C223.563 37.206 223.801 37.2853 223.969 37.444C224.137 37.6027 224.221 37.8267 224.221 38.116C224.221 38.3867 224.132 38.606 223.955 38.774C223.787 38.942 223.553 39.026 223.255 39.026ZM227.123 48V38.774H228.565V48H227.123ZM225.597 42.05V40.65H230.273V42.05H225.597ZM234.948 48.14C234.192 48.14 233.52 47.9813 232.932 47.664C232.353 47.3373 231.896 46.894 231.56 46.334C231.233 45.774 231.07 45.13 231.07 44.402C231.07 43.8233 231.163 43.296 231.35 42.82C231.536 42.344 231.793 41.9333 232.12 41.588C232.456 41.2333 232.852 40.9627 233.31 40.776C233.776 40.58 234.28 40.482 234.822 40.482C235.298 40.482 235.741 40.5753 236.152 40.762C236.562 40.9393 236.917 41.1867 237.216 41.504C237.524 41.8213 237.757 42.1993 237.916 42.638C238.084 43.0673 238.163 43.5387 238.154 44.052L238.14 44.668H232.134L231.812 43.52H236.894L236.684 43.758V43.422C236.656 43.114 236.553 42.8387 236.376 42.596C236.198 42.3533 235.974 42.162 235.704 42.022C235.433 41.882 235.139 41.812 234.822 41.812C234.318 41.812 233.893 41.91 233.548 42.106C233.202 42.2927 232.941 42.5727 232.764 42.946C232.586 43.31 232.498 43.7627 232.498 44.304C232.498 44.8173 232.605 45.2653 232.82 45.648C233.034 46.0213 233.338 46.3107 233.73 46.516C234.122 46.7213 234.574 46.824 235.088 46.824C235.452 46.824 235.788 46.7633 236.096 46.642C236.413 46.5207 236.754 46.3013 237.118 45.984L237.846 47.006C237.622 47.23 237.346 47.426 237.02 47.594C236.702 47.762 236.362 47.8973 235.998 48C235.643 48.0933 235.293 48.14 234.948 48.14Z" fill="#201612"/>
<path d="M73.6016 5.68359H89.1992V8.94141H77.3164V12.5977H87.8398V15.6562H77.3164V20.7539H89.4453V24H73.6016V5.68359ZM92.3164 14.6719C92.3164 13.3828 92.5586 12.1797 93.043 11.0625C93.5273 9.9375 94.2344 8.96094 95.1641 8.13281C96.0938 7.30469 97.2344 6.65234 98.5859 6.17578C99.9453 5.69922 101.5 5.46094 103.25 5.46094C103.883 5.46094 104.516 5.49609 105.148 5.56641C105.789 5.62891 106.418 5.73047 107.035 5.87109C107.66 6.01172 108.266 6.19141 108.852 6.41016C109.445 6.62109 110.008 6.875 110.539 7.17188L108.828 9.98438C108.508 9.79688 108.145 9.62891 107.738 9.48047C107.332 9.32422 106.895 9.19531 106.426 9.09375C105.965 8.98438 105.484 8.90234 104.984 8.84766C104.492 8.79297 103.996 8.76562 103.496 8.76562C102.34 8.76562 101.309 8.91406 100.402 9.21094C99.4961 9.5 98.7305 9.91016 98.1055 10.4414C97.4805 10.9648 97.0039 11.5938 96.6758 12.3281C96.3477 13.0625 96.1836 13.8672 96.1836 14.7422C96.1836 15.6484 96.3555 16.4805 96.6992 17.2383C97.043 17.9961 97.5312 18.6484 98.1641 19.1953C98.7969 19.7422 99.5625 20.1719 100.461 20.4844C101.359 20.7891 102.363 20.9414 103.473 20.9414C104.355 20.9414 105.164 20.8438 105.898 20.6484C106.633 20.4453 107.273 20.1602 107.82 19.793C108.367 19.4258 108.812 18.9844 109.156 18.4688C109.5 17.9453 109.727 17.3594 109.836 16.7109H103.438V13.6523H113.176V13.6641L113.188 13.6523C113.383 14.5898 113.441 15.5039 113.363 16.3945C113.293 17.2773 113.09 18.1133 112.754 18.9023C112.426 19.6836 111.973 20.4023 111.395 21.0586C110.816 21.7148 110.125 22.2812 109.32 22.7578C108.516 23.2266 107.602 23.5938 106.578 23.8594C105.555 24.1172 104.434 24.2461 103.215 24.2461C101.512 24.2461 99.9844 23.9961 98.6328 23.4961C97.2891 22.9961 96.1484 22.3125 95.2109 21.4453C94.2734 20.5781 93.5547 19.5625 93.0547 18.3984C92.5625 17.2344 92.3164 15.9922 92.3164 14.6719ZM116.574 13.3828H127.32V15.9844H116.574V13.3828ZM130.461 14.7891C130.461 13.4062 130.715 12.1406 131.223 10.9922C131.73 9.84375 132.441 8.85938 133.355 8.03906C134.277 7.21094 135.379 6.57031 136.66 6.11719C137.949 5.66406 139.375 5.4375 140.938 5.4375C142.492 5.4375 143.914 5.66406 145.203 6.11719C146.492 6.57031 147.594 7.21094 148.508 8.03906C149.43 8.85938 150.145 9.84375 150.652 10.9922C151.16 12.1406 151.414 13.4062 151.414 14.7891C151.414 16.1797 151.16 17.457 150.652 18.6211C150.145 19.7773 149.43 20.7734 148.508 21.6094C147.594 22.4453 146.492 23.0977 145.203 23.5664C143.914 24.0273 142.492 24.2578 140.938 24.2578C139.375 24.2578 137.949 24.0273 136.66 23.5664C135.379 23.0977 134.277 22.4453 133.355 21.6094C132.441 20.7734 131.73 19.7773 131.223 18.6211C130.715 17.457 130.461 16.1797 130.461 14.7891ZM134.176 14.7891C134.176 15.7344 134.344 16.5859 134.68 17.3438C135.023 18.1016 135.496 18.75 136.098 19.2891C136.707 19.8203 137.422 20.2305 138.242 20.5195C139.07 20.8086 139.969 20.9531 140.938 20.9531C141.906 20.9531 142.801 20.8086 143.621 20.5195C144.449 20.2305 145.164 19.8203 145.766 19.2891C146.367 18.75 146.84 18.1016 147.184 17.3438C147.527 16.5859 147.699 15.7344 147.699 14.7891C147.699 13.8438 147.527 12.9961 147.184 12.2461C146.84 11.4961 146.367 10.8633 145.766 10.3477C145.164 9.82422 144.449 9.42578 143.621 9.15234C142.801 8.87891 141.906 8.74219 140.938 8.74219C139.969 8.74219 139.07 8.87891 138.242 9.15234C137.422 9.42578 136.707 9.82422 136.098 10.3477C135.496 10.8633 135.023 11.4961 134.68 12.2461C134.344 12.9961 134.176 13.8438 134.176 14.7891ZM158.48 29.6484H155.012V10.1719H158.48V11.4727C158.785 11.2617 159.145 11.0625 159.559 10.875C159.973 10.6875 160.418 10.5234 160.895 10.3828C161.371 10.2422 161.863 10.1328 162.371 10.0547C162.879 9.96875 163.387 9.92578 163.895 9.92578C165.066 9.92578 166.141 10.0977 167.117 10.4414C168.102 10.7852 168.945 11.2695 169.648 11.8945C170.352 12.5195 170.898 13.2695 171.289 14.1445C171.688 15.0117 171.887 15.9727 171.887 17.0273C171.887 18.1289 171.68 19.125 171.266 20.0156C170.852 20.8984 170.277 21.6562 169.543 22.2891C168.816 22.9141 167.949 23.3984 166.941 23.7422C165.941 24.0781 164.855 24.2461 163.684 24.2461C163.184 24.2461 162.688 24.2148 162.195 24.1523C161.711 24.0898 161.242 24.0039 160.789 23.8945C160.344 23.7852 159.922 23.6562 159.523 23.5078C159.133 23.3516 158.785 23.1836 158.48 23.0039V29.6484ZM158.48 19.6523C158.832 19.9336 159.203 20.1719 159.594 20.3672C159.984 20.5625 160.383 20.7227 160.789 20.8477C161.195 20.9727 161.605 21.0664 162.02 21.1289C162.434 21.1836 162.836 21.2109 163.227 21.2109C164.023 21.2109 164.73 21.1055 165.348 20.8945C165.973 20.6758 166.496 20.3789 166.918 20.0039C167.348 19.6289 167.676 19.1875 167.902 18.6797C168.129 18.1719 168.242 17.6211 168.242 17.0273C168.242 16.4727 168.129 15.9492 167.902 15.457C167.684 14.9648 167.363 14.5352 166.941 14.168C166.527 13.793 166.023 13.5 165.43 13.2891C164.844 13.0703 164.184 12.9609 163.449 12.9609C162.98 12.9609 162.512 13.0078 162.043 13.1016C161.574 13.1875 161.121 13.3125 160.684 13.4766C160.254 13.6406 159.848 13.8398 159.465 14.0742C159.09 14.3086 158.762 14.5703 158.48 14.8594V19.6523ZM177.254 12.7734H173.914V10.1719H177.254V5.87109H180.723V10.1719H184.062V12.7734H180.723V24H177.254V12.7734ZM188.973 8.28516C188.629 8.28516 188.316 8.23828 188.035 8.14453C187.762 8.04297 187.527 7.91016 187.332 7.74609C187.137 7.57422 186.984 7.37891 186.875 7.16016C186.773 6.93359 186.723 6.69531 186.723 6.44531C186.723 6.1875 186.773 5.94922 186.875 5.73047C186.984 5.50391 187.137 5.30859 187.332 5.14453C187.527 4.98047 187.762 4.85156 188.035 4.75781C188.316 4.65625 188.629 4.60547 188.973 4.60547C189.324 4.60547 189.637 4.65625 189.91 4.75781C190.191 4.85156 190.43 4.98047 190.625 5.14453C190.82 5.30859 190.969 5.50391 191.07 5.73047C191.18 5.94922 191.234 6.1875 191.234 6.44531C191.234 6.69531 191.18 6.93359 191.07 7.16016C190.969 7.37891 190.82 7.57422 190.625 7.74609C190.43 7.91016 190.191 8.04297 189.91 8.14453C189.637 8.23828 189.324 8.28516 188.973 8.28516ZM187.238 10.1719H190.707V24H187.238V10.1719ZM195.254 10.1719H198.723V11.3438C199.59 10.8125 200.434 10.4453 201.254 10.2422C202.082 10.0312 202.891 9.92578 203.68 9.92578C204.781 9.92578 205.793 10.1016 206.715 10.4531C207.637 10.8047 208.426 11.3359 209.082 12.0469C209.59 11.6562 210.09 11.3281 210.582 11.0625C211.074 10.7891 211.566 10.5703 212.059 10.4062C212.551 10.2344 213.051 10.1133 213.559 10.043C214.066 9.96484 214.59 9.92578 215.129 9.92578C216.262 9.92578 217.289 10.082 218.211 10.3945C219.133 10.6992 219.918 11.1562 220.566 11.7656C221.223 12.375 221.727 13.1367 222.078 14.0508C222.438 14.957 222.617 16.0078 222.617 17.2031V24H219.16V17.7656C219.16 17.0078 219.051 16.332 218.832 15.7383C218.621 15.1367 218.32 14.6328 217.93 14.2266C217.547 13.8125 217.086 13.5 216.547 13.2891C216.016 13.0703 215.43 12.9609 214.789 12.9609C214.438 12.9609 214.078 12.9961 213.711 13.0664C213.344 13.1289 212.984 13.2305 212.633 13.3711C212.289 13.5117 211.965 13.6914 211.66 13.9102C211.355 14.1211 211.09 14.3711 210.863 14.6602V24H207.406V17.7656C207.406 17.0078 207.297 16.332 207.078 15.7383C206.867 15.1367 206.566 14.6328 206.176 14.2266C205.793 13.8125 205.328 13.5 204.781 13.2891C204.242 13.0703 203.648 12.9609 203 12.9609C202.602 12.9609 202.199 13.0039 201.793 13.0898C201.395 13.168 201.008 13.2812 200.633 13.4297C200.266 13.5781 199.918 13.7578 199.59 13.9688C199.27 14.1797 198.98 14.418 198.723 14.6836V24H195.254V10.1719ZM228.816 8.28516C228.473 8.28516 228.16 8.23828 227.879 8.14453C227.605 8.04297 227.371 7.91016 227.176 7.74609C226.98 7.57422 226.828 7.37891 226.719 7.16016C226.617 6.93359 226.566 6.69531 226.566 6.44531C226.566 6.1875 226.617 5.94922 226.719 5.73047C226.828 5.50391 226.98 5.30859 227.176 5.14453C227.371 4.98047 227.605 4.85156 227.879 4.75781C228.16 4.65625 228.473 4.60547 228.816 4.60547C229.168 4.60547 229.48 4.65625 229.754 4.75781C230.035 4.85156 230.273 4.98047 230.469 5.14453C230.664 5.30859 230.812 5.50391 230.914 5.73047C231.023 5.94922 231.078 6.1875 231.078 6.44531C231.078 6.69531 231.023 6.93359 230.914 7.16016C230.812 7.37891 230.664 7.57422 230.469 7.74609C230.273 7.91016 230.035 8.04297 229.754 8.14453C229.48 8.23828 229.168 8.28516 228.816 8.28516ZM227.082 10.1719H230.551V24H227.082V10.1719ZM241.672 13.0547H234.582V10.1719H248.105L239.574 21.1172H247.637V24H233.199L241.672 13.0547ZM250.332 17.0391C250.332 16.1016 250.523 15.207 250.906 14.3555C251.289 13.4961 251.84 12.7383 252.559 12.082C253.277 11.4258 254.156 10.9023 255.195 10.5117C256.242 10.1211 257.43 9.92578 258.758 9.92578C260.078 9.92578 261.266 10.125 262.32 10.5234C263.383 10.9141 264.281 11.4531 265.016 12.1406C265.758 12.8281 266.324 13.6367 266.715 14.5664C267.113 15.4961 267.312 16.4922 267.312 17.5547C267.312 17.6875 267.309 17.832 267.301 17.9883C267.301 18.1367 267.293 18.2734 267.277 18.3984H254.199C254.348 18.8125 254.586 19.1914 254.914 19.5352C255.25 19.8789 255.668 20.1758 256.168 20.4258C256.668 20.6758 257.246 20.8711 257.902 21.0117C258.559 21.1445 259.285 21.2109 260.082 21.2109C260.879 21.2109 261.672 21.1289 262.461 20.9648C263.25 20.793 264.004 20.5781 264.723 20.3203L265.895 22.9688C265.441 23.1797 264.98 23.3672 264.512 23.5312C264.051 23.6875 263.566 23.8203 263.059 23.9297C262.559 24.0312 262.031 24.1094 261.477 24.1641C260.93 24.2188 260.352 24.2461 259.742 24.2461C258.188 24.2461 256.824 24.0586 255.652 23.6836C254.48 23.3086 253.5 22.7969 252.711 22.1484C251.922 21.5 251.328 20.7383 250.93 19.8633C250.531 18.9883 250.332 18.0469 250.332 17.0391ZM263.633 15.6914C263.508 15.3086 263.312 14.9531 263.047 14.625C262.789 14.2891 262.465 14 262.074 13.7578C261.684 13.5078 261.23 13.3125 260.715 13.1719C260.199 13.0312 259.633 12.9609 259.016 12.9609C258.359 12.9609 257.762 13.0352 257.223 13.1836C256.684 13.332 256.211 13.5312 255.805 13.7812C255.398 14.0312 255.059 14.3203 254.785 14.6484C254.52 14.9766 254.324 15.3242 254.199 15.6914H263.633Z" fill="#201612"/>
<path d="M51.4036 4.82399C43.0012 -3.43469 25.9346 -0.0471752 13.2829 12.3837C0.631273 24.8189 -2.81085 41.5893 5.59159 49.848C13.994 58.1067 31.0607 54.7191 43.7079 42.2882C56.3596 29.8573 59.8017 13.0827 51.4036 4.82399ZM6.77386 45.5686C-0.16709 38.7421 3.21832 24.3515 14.3387 13.4214C25.459 2.49132 40.1 -0.836167 47.0454 5.98604C53.9907 12.8082 50.6009 27.2031 39.4805 38.1332C28.3602 49.0633 13.7192 52.3908 6.77386 45.5686Z" fill="#43AA8B"/>
<path d="M17.5103 38.1332C6.38996 27.2031 3.00456 12.8126 9.94987 5.98606C13.6974 2.30267 18.0949 1.10203 24.5647 2.933C25.3456 2.57281 26.1309 2.24692 26.9118 1.95105C18.012 -1.43218 10.8835 -0.377333 5.5916 4.82401C-2.81083 13.0827 0.744713 29.7459 13.2829 42.2883C17.964 46.9708 19.9752 47.6611 19.9752 47.6611C22.3441 47.1551 24.8046 46.2933 27.2608 45.0926C27.2608 45.0926 20.9481 41.5121 17.5103 38.1332Z" fill="#F3722C"/>
<path d="M43.7079 12.3837C39.7248 8.46879 36.1736 6.30764 31.7238 4.27084C30.9472 4.48953 30.1619 4.74681 29.3767 5.0384C34.1843 6.82649 38.259 9.09484 42.6565 13.4171C53.7769 24.3473 57.1623 38.7378 50.2213 45.5643C46.8185 48.9089 42.3686 50.7699 36.5881 49.535C34.193 51.0443 31.7412 52.275 29.3025 53.2012C38.1935 56.5844 46.1161 55.045 51.4036 49.8437C59.8017 41.5936 56.3596 24.8189 43.7079 12.3837Z" fill="#F3722C"/>
</svg>
