<svg width="36" height="36" viewBox="0 0 36 36" fill="none" xmlns="http://www.w3.org/2000/svg">
<path d="M32.9941 3.15704C27.4943 -2.24868 16.3234 -0.0313769 8.04236 8.10527C-0.238712 16.2447 -2.49174 27.2218 3.00804 32.6275C8.50782 38.0332 19.6787 35.8159 27.9569 27.6792C36.238 19.5426 38.491 8.56276 32.9941 3.15704ZM3.78189 29.8264C-0.761276 25.3581 1.45462 15.9388 8.7334 8.78449C16.0122 1.63019 25.5954 -0.547811 30.1414 3.91766C34.6874 8.38313 32.4687 17.8052 25.1899 24.9595C17.9111 32.1138 8.32792 34.2918 3.78189 29.8264Z" fill="#43AA8B"/>
<path d="M10.8095 24.9599C3.53075 17.8056 1.31485 8.38627 5.86087 3.918C8.31379 1.50703 11.1922 0.721156 15.4269 1.91962C15.9381 1.68386 16.4521 1.47055 16.9632 1.27688C11.1379 -0.937608 6.47196 -0.247158 3.00819 3.15738C-2.49159 8.5631 -0.164321 19.47 8.04251 27.6796C11.1065 30.7445 12.4229 31.1964 12.4229 31.1964C13.9735 30.8652 15.584 30.301 17.1917 29.5152C17.1917 29.5152 13.0597 27.1716 10.8095 24.9599Z" fill="#F3722C"/>
<path d="M27.9571 8.10521C25.35 5.54269 23.0256 4.12811 20.1129 2.79492C19.6046 2.93806 19.0906 3.10647 18.5766 3.29732C21.7234 4.46772 24.3905 5.95247 27.2689 8.78163C34.5477 15.9359 36.7636 25.3552 32.2204 29.8235C29.9931 32.0128 27.0804 33.2309 23.2968 32.4225C21.7291 33.4105 20.1243 34.216 18.5281 34.8223C24.3477 37.0368 29.5333 36.0292 32.9943 32.6246C38.4912 27.2245 36.2382 16.2447 27.9571 8.10521Z" fill="#F3722C"/>
</svg>
